<?xml version="1.0" encoding="utf-8"?>
<!-- Generator: Adobe Illustrator 24.3.0, SVG Export Plug-In . SVG Version: 6.00 Build 0)  -->
<svg version="1.1" id="Layer_1" xmlns="http://www.w3.org/2000/svg" xmlns:xlink="http://www.w3.org/1999/xlink" x="0px" y="0px"
	 viewBox="0 0 81.1 79" style="enable-background:new 0 0 81.1 79;" xml:space="preserve">
<style type="text/css">
	.st0{clip-path:url(#SVGID_2_);fill:#010101;}
	.st1{fill:#5E5F5F;}
	.st2{font-family:'HelveticaNeue';}
	.st3{font-size:2.9579px;}
	.st4{clip-path:url(#SVGID_4_);fill:#FFFFFF;}
	.st5{clip-path:url(#SVGID_4_);fill:none;stroke:#010101;stroke-width:0.3697;}
	.st6{clip-path:url(#SVGID_6_);fill:#D6D5D5;}
	.st7{clip-path:url(#SVGID_8_);}
	.st8{fill:#B42024;}
	.st9{font-family:'Courier';}
	.st10{fill:#010101;}
	.st11{clip-path:url(#SVGID_10_);fill:#939292;}
	.st12{clip-path:url(#SVGID_12_);fill:#939292;}
	.st13{clip-path:url(#SVGID_14_);fill:#FFFFFF;}
	.st14{clip-path:url(#SVGID_14_);fill:none;stroke:#010101;stroke-width:0.2218;}
	.st15{clip-path:url(#SVGID_16_);}
	.st16{clip-path:url(#SVGID_18_);}
	.st17{clip-path:url(#SVGID_22_);}
	.st18{font-family:'HelveticaNeue-Bold';}
	.st19{font-size:4.4369px;}
	.st20{clip-path:url(#SVGID_24_);fill:none;stroke:#010101;stroke-width:0.1849;}
	.st21{clip-path:url(#SVGID_26_);}
	.st22{clip-path:url(#SVGID_26_);fill:#5E5F5F;}
	.st23{clip-path:url(#SVGID_28_);}
	.st24{clip-path:url(#SVGID_32_);}
	.st25{clip-path:url(#SVGID_36_);}
</style>
<g>
	<g>
		<defs>
			<rect id="SVGID_1_" x="6.8" y="12" width="7.9" height="18.9"/>
		</defs>
		<clipPath id="SVGID_2_">
			<use xlink:href="#SVGID_1_"  style="overflow:visible;"/>
		</clipPath>
		<path class="st0" d="M9,17.4c0.1,0,0.1,0,0.1,0.1c0,0.1,0,0.2,0.1,0.3c0.1,0.4,0.2,0.4,0.2,0.7c0,1-0.2,1-0.3,1.5
			c0,0-0.2,0.1-0.4,0.2c-0.2-0.3-0.4-1.2-0.5-1.5c-0.1-0.2,0.2-0.4,0.4-0.6c0.2-0.2,0.2-0.3,0.4-0.5C8.9,17.4,8.9,17.4,9,17.4z
			 M12.4,17.2c0,0,0.1,0,0.2,0.1c0.3,0.2,1,1,1,1.1c0,0.1-0.1,0.3-0.3,0.7c-0.2,0.3-0.3,0.4-0.5,0.8c0,0-0.1,0.2-0.2,0.2
			c0,0-0.1,0-0.3-0.1c-0.1-0.1-0.3-0.1-0.3-0.1c0,0-0.1-0.2-0.1-0.6c0-0.8,0.1-1.1,0.2-1.4C12.2,17.4,12.3,17.2,12.4,17.2z
			 M10.8,12.3c-0.2,0-0.5,0-0.8,0.4c-0.2,0.2-0.1,0.4-0.4,1c-0.4,0.8,0.3,0.9-0.2,1.4c-0.2,0.2,0,0.5,0,0.5c0,0-0.1,0-0.1,0
			c-0.2,0-0.4,0.1-0.6,0.4c-0.3,0.4-0.9,1.4-1.4,2.1c0,0,0,0,0,0c0,0,0,0,0,0.1c-0.1,0.1-0.1,0.2,0,0.4c0.1,0.2,0.1,0.4,0.3,0.7
			c0.1,0.3,0.4,0.7,0.7,1.1c0.1,0.1,0,0.2,0.2,0.4c0.1,0.1,0.2,0.1,0.2,0.1c0.1,0,0.2,0,0.2,0c-0.1,0.5,0,1.1,0.1,1.8
			c0.1,0.4,0.6,2.5,0.6,2.9c0.1,1.6,0.3,2.8,0.4,3.5c0,0,0,0.1,0,0.1c0,0,0,0,0.1,0c0,0.3,0.1,0.3-0.1,0.5c-0.1,0.2-0.3,0.3-0.3,0.6
			c0,0.1,0,0.2,0.1,0.2c0.1,0.1,0.5,0.2,0.8,0c0.2-0.1,0.1-0.4,0.1-0.5c0.1-0.1,0.1-0.2,0.1-0.5c0-0.1,0-0.2-0.1-0.3
			c0,0,0.1,0,0.1-0.1c0-0.4,0-0.6,0-1.1c0-0.4,0-0.7,0-1.1c0-0.5-0.1-0.4-0.1-0.9c0-0.2,0-0.4,0-0.6c0-0.1,0-0.6,0-0.7
			c0-0.9,0-1.2,0.1-2.1c0-0.1,0-0.1,0.1,0c0.3,0.6,0.4,0.9,0.6,1.4c0.2,0.4,0.6,1.6,0.6,1.8c0,0.4,0.1,0.8,0.2,1.2
			c0.1,0.8,0.4,2,0.5,2.2c0,0,0,0.1,0,0.1c0,0,0,0,0.1,0c0,0.2,0,0.4-0.1,0.6c-0.1,0.2,0.1,0.4,0.1,0.4c0.1,0.1,0.2,0.1,0.4,0.1
			c0.1,0,0.2,0.1,0.3,0.1c0,0,0,0,0,0s0.4,0.2,1,0.1c0.2,0,0.2-0.2,0.1-0.3c-0.2-0.3-0.5-0.3-0.6-0.5c-0.2-0.3-0.3-0.4-0.4-0.6
			c0.1,0,0.1,0,0.1,0s0-0.4-0.1-0.7c-0.1-0.7-0.1-1.2-0.1-1.6c0-0.7-0.2-1-0.2-1.2c-0.1-0.8-0.2-0.9-0.3-1.7c0-0.2-0.1-1.2-0.2-1.9
			c-0.1-0.4-0.2-0.7-0.3-1c0,0.1,0,0,0.1-0.1c0.2,0,0.3-0.2,0.4-0.3c0.3-0.4,1.2-1.4,1.3-1.7c0.1-0.1,0.2-0.4,0.2-0.5
			c0-0.2-0.2-0.4-0.2-0.5c-0.1-0.1-0.2-0.4-0.3-0.5c-0.2-0.3-0.4-0.4-0.7-0.8c-0.1-0.1-0.3-0.6-0.6-0.7c-0.2-0.1-0.6-0.1-0.6-0.1
			c0.1-0.2-0.1-0.3-0.1-0.5c0-0.5,0.5-0.3,0-1.5c0-0.1-0.1-0.7-0.4-0.9c0,0-0.1,0-0.2-0.1c-0.1-0.1-0.1-0.1-0.3-0.2
			C10.9,12.4,10.9,12.4,10.8,12.3z"/>
	</g>
	<g>
		<text transform="matrix(1 0 0 1 4.2071 35.4885)" class="st1 st2 st3">Maintainer</text>
	</g>
	<g>
		<defs>
			<rect id="SVGID_3_" x="1.8" width="5.8" height="9.3"/>
		</defs>
		<clipPath id="SVGID_4_">
			<use xlink:href="#SVGID_3_"  style="overflow:visible;"/>
		</clipPath>
		<path class="st4" d="M3.7,7.3C3.7,7.3,3.7,7.3,3.7,7.3l0,0.3c0,0.1,0.1,0.1,0.1,0.2c0,0,0,0.1,0,0.1V8c0,0.1,0.1,0.1,0.1,0.1h0
			v0.2c0,0.1,0.1,0.1,0.1,0.1h0.2c0,0.2,0.2,0.3,0.4,0.3c0.2,0,0.4-0.1,0.4-0.3h0.2c0.1,0,0.1-0.1,0.1-0.1V8.1h0
			C5.6,8.1,5.7,8,5.7,8V7.8c0,0,0-0.1,0-0.1c0.1,0,0.1-0.1,0.1-0.2V7.3c0,0,0,0,0,0H3.7z M4.7,0.6C3.4,0.6,2.4,1.6,2.4,3
			c0,0.2,0,0.5,0.1,0.7c0,0,0,0,0,0c0,0,0,0,0,0.1c0,0.1,0.1,0.1,0.1,0.2c0.3,0.7,1,2.3,1,2.7l0,0.3c0,0,0,0,0,0.1h2.2
			c0,0,0-0.1,0-0.1l0-0.3c0-0.5,1-2.8,1.1-3c0,0,0,0,0,0C7,3.4,7.1,3.2,7.1,3C7.1,1.6,6,0.6,4.7,0.6z"/>
		<path class="st5" d="M3.7,7.3C3.7,7.3,3.7,7.3,3.7,7.3l0,0.3c0,0.1,0.1,0.1,0.1,0.2c0,0,0,0.1,0,0.1V8c0,0.1,0.1,0.1,0.1,0.1h0
			v0.2c0,0.1,0.1,0.1,0.1,0.1h0.2c0,0.2,0.2,0.3,0.4,0.3c0.2,0,0.4-0.1,0.4-0.3h0.2c0.1,0,0.1-0.1,0.1-0.1V8.1h0
			C5.6,8.1,5.7,8,5.7,8V7.8c0,0,0-0.1,0-0.1c0.1,0,0.1-0.1,0.1-0.2V7.3c0,0,0,0,0,0H3.7z M4.7,0.6C3.4,0.6,2.4,1.6,2.4,3
			c0,0.2,0,0.5,0.1,0.7c0,0,0,0,0,0c0,0,0,0,0,0.1c0,0.1,0.1,0.1,0.1,0.2c0.3,0.7,1,2.3,1,2.7l0,0.3c0,0,0,0,0,0.1h2.2
			c0,0,0-0.1,0-0.1l0-0.3c0-0.5,1-2.8,1.1-3c0,0,0,0,0,0C7,3.4,7.1,3.2,7.1,3C7.1,1.6,6,0.6,4.7,0.6z"/>
	</g>
	<g>
		<path class="st1" d="M9.1,4.3V3.9c0-0.1,0-0.1,0-0.2c0-0.1,0-0.1,0.1-0.2c0,0,0.1-0.1,0.1-0.1c0.1,0,0.1,0,0.2,0v0.2
			c0,0-0.1,0-0.1,0c0,0,0,0-0.1,0.1c0,0,0,0.1,0,0.1c0,0,0,0.1,0,0.1h0.2v0.4H9.1z M9.8,4.3V3.9c0-0.1,0-0.1,0-0.2
			c0-0.1,0-0.1,0.1-0.2c0,0,0.1-0.1,0.1-0.1s0.1,0,0.2,0v0.2c0,0-0.1,0-0.1,0c0,0,0,0-0.1,0.1c0,0,0,0.1,0,0.1c0,0,0,0.1,0,0.1h0.2
			v0.4H9.8z M12.7,6l-0.6-2.2h0L11.5,6h-0.4l-0.7-2.6h0.4l0.5,2.2h0l0.6-2.2h0.4l0.6,2.2h0l0.5-2.2h0.4L13.1,6H12.7z M15.2,5.9
			c-0.1,0.1-0.3,0.2-0.5,0.2c-0.2,0-0.3,0-0.4-0.1c-0.1,0-0.2-0.1-0.3-0.2c-0.1-0.1-0.1-0.2-0.2-0.3c0-0.1-0.1-0.3-0.1-0.4
			c0-0.1,0-0.3,0.1-0.4c0-0.1,0.1-0.2,0.2-0.3c0.1-0.1,0.2-0.2,0.3-0.2c0.1,0,0.2-0.1,0.4-0.1c0.2,0,0.3,0,0.4,0.1
			c0.1,0.1,0.2,0.2,0.3,0.3c0.1,0.1,0.1,0.2,0.1,0.4c0,0.1,0,0.3,0,0.4h-1.4c0,0.1,0,0.2,0,0.2c0,0.1,0.1,0.1,0.1,0.2
			c0,0.1,0.1,0.1,0.2,0.1c0.1,0,0.2,0.1,0.3,0.1c0.1,0,0.2,0,0.3-0.1c0.1-0.1,0.1-0.2,0.2-0.3h0.3C15.5,5.6,15.4,5.8,15.2,5.9z
			 M15.2,4.7c0-0.1-0.1-0.1-0.1-0.2c0,0-0.1-0.1-0.2-0.1c-0.1,0-0.1,0-0.2,0c-0.1,0-0.2,0-0.2,0c-0.1,0-0.1,0.1-0.2,0.1
			c0,0-0.1,0.1-0.1,0.2c0,0.1,0,0.1,0,0.2h1.1C15.2,4.8,15.2,4.8,15.2,4.7z M17.2,4.1v0.3h0c0.1-0.2,0.3-0.3,0.6-0.3
			c0.1,0,0.2,0,0.3,0.1c0.1,0,0.2,0.1,0.2,0.1c0.1,0.1,0.1,0.1,0.1,0.2c0,0.1,0,0.2,0,0.3V6h-0.3V4.7c0-0.1,0-0.2-0.1-0.3
			c-0.1-0.1-0.2-0.1-0.3-0.1c-0.1,0-0.2,0-0.2,0c-0.1,0-0.1,0.1-0.2,0.1c0,0.1-0.1,0.1-0.1,0.2c0,0.1,0,0.2,0,0.2V6h-0.3V4.1H17.2z
			 M20.3,5.9C20.2,6,20,6.1,19.8,6.1c-0.2,0-0.3,0-0.4-0.1c-0.1,0-0.2-0.1-0.3-0.2c-0.1-0.1-0.1-0.2-0.2-0.3c0-0.1-0.1-0.3-0.1-0.4
			c0-0.1,0-0.3,0.1-0.4c0-0.1,0.1-0.2,0.2-0.3c0.1-0.1,0.2-0.2,0.3-0.2c0.1,0,0.2-0.1,0.4-0.1c0.2,0,0.3,0,0.4,0.1
			c0.1,0.1,0.2,0.2,0.3,0.3c0.1,0.1,0.1,0.2,0.1,0.4c0,0.1,0,0.3,0,0.4h-1.4c0,0.1,0,0.2,0,0.2c0,0.1,0.1,0.1,0.1,0.2
			c0,0.1,0.1,0.1,0.2,0.1c0.1,0,0.2,0.1,0.3,0.1c0.1,0,0.2,0,0.3-0.1c0.1-0.1,0.1-0.2,0.2-0.3h0.3C20.5,5.6,20.4,5.8,20.3,5.9z
			 M20.2,4.7c0-0.1-0.1-0.1-0.1-0.2c0,0-0.1-0.1-0.2-0.1c-0.1,0-0.1,0-0.2,0c-0.1,0-0.2,0-0.2,0c-0.1,0-0.1,0.1-0.2,0.1
			c0,0-0.1,0.1-0.1,0.2c0,0.1,0,0.1,0,0.2h1.1C20.3,4.8,20.3,4.8,20.2,4.7z M22.3,5.9C22.1,6,22,6.1,21.7,6.1c-0.2,0-0.3,0-0.4-0.1
			c-0.1,0-0.2-0.1-0.3-0.2c-0.1-0.1-0.1-0.2-0.2-0.3c0-0.1-0.1-0.3-0.1-0.4c0-0.1,0-0.3,0.1-0.4c0-0.1,0.1-0.2,0.2-0.3
			c0.1-0.1,0.2-0.2,0.3-0.2c0.1,0,0.2-0.1,0.4-0.1c0.2,0,0.3,0,0.4,0.1c0.1,0.1,0.2,0.2,0.3,0.3c0.1,0.1,0.1,0.2,0.1,0.4
			c0,0.1,0,0.3,0,0.4h-1.4c0,0.1,0,0.2,0,0.2c0,0.1,0.1,0.1,0.1,0.2c0,0.1,0.1,0.1,0.2,0.1c0.1,0,0.2,0.1,0.3,0.1
			c0.1,0,0.2,0,0.3-0.1c0.1-0.1,0.1-0.2,0.2-0.3h0.3C22.5,5.6,22.4,5.8,22.3,5.9z M22.2,4.7c0-0.1-0.1-0.1-0.1-0.2
			c0,0-0.1-0.1-0.2-0.1c-0.1,0-0.1,0-0.2,0c-0.1,0-0.2,0-0.2,0c-0.1,0-0.1,0.1-0.2,0.1c0,0-0.1,0.1-0.1,0.2c0,0.1,0,0.1,0,0.2h1.1
			C22.3,4.8,22.2,4.8,22.2,4.7z M24.3,6V5.8h0C24.3,5.9,24.2,6,24.1,6c-0.1,0-0.2,0.1-0.4,0.1c-0.1,0-0.3,0-0.4-0.1
			c-0.1-0.1-0.2-0.1-0.3-0.2c-0.1-0.1-0.1-0.2-0.2-0.3c0-0.1-0.1-0.2-0.1-0.4c0-0.1,0-0.3,0.1-0.4c0-0.1,0.1-0.2,0.2-0.3
			c0.1-0.1,0.2-0.2,0.3-0.2c0.1-0.1,0.2-0.1,0.4-0.1c0,0,0.1,0,0.2,0c0.1,0,0.1,0,0.2,0c0.1,0,0.1,0.1,0.2,0.1
			c0.1,0,0.1,0.1,0.1,0.1h0v-1h0.3V6H24.3z M23.2,5.4c0,0.1,0.1,0.2,0.1,0.2c0,0.1,0.1,0.1,0.2,0.2c0.1,0,0.2,0.1,0.3,0.1
			c0.1,0,0.2,0,0.3-0.1c0.1,0,0.1-0.1,0.2-0.2c0-0.1,0.1-0.1,0.1-0.2c0-0.1,0-0.2,0-0.3c0-0.1,0-0.2,0-0.3c0-0.1-0.1-0.2-0.1-0.2
			c0-0.1-0.1-0.1-0.2-0.2c-0.1,0-0.2-0.1-0.3-0.1c-0.1,0-0.2,0-0.3,0.1c-0.1,0-0.1,0.1-0.2,0.2c0,0.1-0.1,0.1-0.1,0.2
			c0,0.1,0,0.2,0,0.3C23.1,5.2,23.2,5.3,23.2,5.4z M27,4.1v0.3h-0.4v1.2c0,0,0,0.1,0,0.1c0,0,0,0,0,0.1c0,0,0,0,0.1,0
			c0,0,0.1,0,0.1,0H27V6h-0.2c-0.1,0-0.2,0-0.2,0c-0.1,0-0.1,0-0.1-0.1c0,0-0.1-0.1-0.1-0.1c0-0.1,0-0.1,0-0.2V4.4h-0.3V4.1h0.3V3.5
			h0.3v0.6H27z M27.3,4.7c0-0.1,0.1-0.2,0.2-0.3c0.1-0.1,0.2-0.2,0.3-0.2c0.1-0.1,0.2-0.1,0.4-0.1c0.2,0,0.3,0,0.4,0.1
			s0.2,0.1,0.3,0.2C28.9,4.5,29,4.6,29,4.7c0,0.1,0.1,0.3,0.1,0.4c0,0.1,0,0.3-0.1,0.4c0,0.1-0.1,0.2-0.2,0.3
			c-0.1,0.1-0.2,0.2-0.3,0.2s-0.2,0.1-0.4,0.1c-0.2,0-0.3,0-0.4-0.1c-0.1-0.1-0.2-0.1-0.3-0.2c-0.1-0.1-0.1-0.2-0.2-0.3
			c0-0.1-0.1-0.3-0.1-0.4C27.2,4.9,27.2,4.8,27.3,4.7z M27.6,5.4c0,0.1,0.1,0.2,0.1,0.2c0.1,0.1,0.1,0.1,0.2,0.1c0.1,0,0.1,0,0.2,0
			c0.1,0,0.2,0,0.2,0c0.1,0,0.1-0.1,0.2-0.1c0.1-0.1,0.1-0.1,0.1-0.2c0-0.1,0-0.2,0-0.3c0-0.1,0-0.2,0-0.3c0-0.1-0.1-0.2-0.1-0.2
			c-0.1-0.1-0.1-0.1-0.2-0.1c-0.1,0-0.1,0-0.2,0c-0.1,0-0.2,0-0.2,0c-0.1,0-0.1,0.1-0.2,0.1c-0.1,0.1-0.1,0.1-0.1,0.2
			c0,0.1,0,0.2,0,0.3C27.5,5.2,27.5,5.3,27.6,5.4z M30.8,3.4v1h0c0.1-0.1,0.1-0.2,0.2-0.2c0.1,0,0.2-0.1,0.4-0.1
			c0.1,0,0.3,0,0.4,0.1c0.1,0.1,0.2,0.1,0.3,0.2c0.1,0.1,0.1,0.2,0.2,0.3c0,0.1,0.1,0.2,0.1,0.4c0,0.1,0,0.3-0.1,0.4
			c0,0.1-0.1,0.2-0.2,0.3C32,5.9,31.9,5.9,31.8,6c-0.1,0.1-0.2,0.1-0.4,0.1c0,0-0.1,0-0.2,0c-0.1,0-0.1,0-0.2,0C31,6,31,6,30.9,5.9
			c-0.1,0-0.1-0.1-0.1-0.1h0V6h-0.3V3.4H30.8z M31.9,4.8c0-0.1-0.1-0.2-0.1-0.2c0-0.1-0.1-0.1-0.2-0.2c-0.1,0-0.2-0.1-0.3-0.1
			c-0.1,0-0.2,0-0.3,0.1c-0.1,0-0.1,0.1-0.2,0.2c0,0.1-0.1,0.1-0.1,0.2c0,0.1,0,0.2,0,0.3c0,0.1,0,0.2,0,0.3c0,0.1,0.1,0.2,0.1,0.2
			c0,0.1,0.1,0.1,0.2,0.2c0.1,0,0.2,0.1,0.3,0.1c0.1,0,0.2,0,0.3-0.1c0.1,0,0.1-0.1,0.2-0.2c0-0.1,0.1-0.1,0.1-0.2
			c0-0.1,0-0.2,0-0.3C31.9,5,31.9,4.9,31.9,4.8z M33.9,6V5.7h0c-0.1,0.1-0.2,0.2-0.3,0.3c-0.1,0.1-0.2,0.1-0.4,0.1
			c-0.1,0-0.2,0-0.3,0c-0.1,0-0.2-0.1-0.2-0.1c-0.1-0.1-0.1-0.1-0.1-0.2c0-0.1,0-0.2,0-0.3V4.1H33v1.3c0,0.1,0,0.2,0.1,0.3
			c0.1,0.1,0.2,0.1,0.3,0.1c0.1,0,0.2,0,0.2,0c0.1,0,0.1-0.1,0.2-0.1c0-0.1,0.1-0.1,0.1-0.2c0-0.1,0-0.2,0-0.2V4.1h0.3V6H33.9z
			 M34.7,3.8V3.4H35v0.4H34.7z M35,4.1V6h-0.3V4.1H35z M35.9,3.4V6h-0.3V3.4H35.9z M37.7,6V5.8h0C37.7,5.9,37.6,6,37.5,6
			c-0.1,0-0.2,0.1-0.4,0.1c-0.1,0-0.3,0-0.4-0.1c-0.1-0.1-0.2-0.1-0.3-0.2c-0.1-0.1-0.1-0.2-0.2-0.3c0-0.1-0.1-0.2-0.1-0.4
			c0-0.1,0-0.3,0.1-0.4c0-0.1,0.1-0.2,0.2-0.3c0.1-0.1,0.2-0.2,0.3-0.2c0.1-0.1,0.2-0.1,0.4-0.1c0,0,0.1,0,0.2,0c0.1,0,0.1,0,0.2,0
			c0.1,0,0.1,0.1,0.2,0.1c0.1,0,0.1,0.1,0.1,0.1h0v-1h0.3V6H37.7z M36.6,5.4c0,0.1,0.1,0.2,0.1,0.2c0,0.1,0.1,0.1,0.2,0.2
			c0.1,0,0.2,0.1,0.3,0.1c0.1,0,0.2,0,0.3-0.1c0.1,0,0.1-0.1,0.2-0.2c0-0.1,0.1-0.1,0.1-0.2c0-0.1,0-0.2,0-0.3c0-0.1,0-0.2,0-0.3
			c0-0.1-0.1-0.2-0.1-0.2c0-0.1-0.1-0.1-0.2-0.2c-0.1,0-0.2-0.1-0.3-0.1c-0.1,0-0.2,0-0.3,0.1c-0.1,0-0.1,0.1-0.2,0.2
			c0,0.1-0.1,0.1-0.1,0.2c0,0.1,0,0.2,0,0.3C36.6,5.2,36.6,5.3,36.6,5.4z M41.3,5.8C41.2,5.8,41.2,5.8,41.3,5.8c-0.1,0-0.2,0-0.2,0
			c0,0,0-0.1,0-0.2v-1c0-0.1,0-0.2-0.1-0.3c0-0.1-0.1-0.1-0.2-0.2c-0.1,0-0.1-0.1-0.2-0.1c-0.1,0-0.2,0-0.3,0c-0.1,0-0.2,0-0.3,0
			c-0.1,0-0.2,0.1-0.3,0.1c-0.1,0.1-0.1,0.1-0.2,0.2c0,0.1-0.1,0.2-0.1,0.3h0.3c0-0.1,0.1-0.2,0.1-0.3c0.1-0.1,0.2-0.1,0.3-0.1
			c0,0,0.1,0,0.1,0c0.1,0,0.1,0,0.1,0c0,0,0.1,0.1,0.1,0.1c0,0,0,0.1,0,0.2c0,0.1,0,0.1-0.1,0.1c0,0-0.1,0.1-0.1,0.1
			c-0.1,0-0.1,0-0.2,0c-0.1,0-0.2,0-0.2,0C40,5,39.9,5,39.9,5c-0.1,0-0.1,0.1-0.2,0.1c-0.1,0-0.1,0.1-0.1,0.2c0,0.1-0.1,0.2-0.1,0.3
			c0,0.1,0,0.2,0,0.2c0,0.1,0.1,0.1,0.1,0.2C39.7,6,39.8,6,39.8,6c0.1,0,0.2,0,0.2,0c0.1,0,0.3,0,0.4-0.1c0.1,0,0.2-0.1,0.3-0.2
			c0,0.1,0,0.2,0.1,0.2c0,0,0.1,0.1,0.2,0.1c0.1,0,0.2,0,0.2,0V5.8z M40.7,5.4c0,0,0,0.1,0,0.1s-0.1,0.1-0.1,0.1
			c0,0-0.1,0.1-0.2,0.1c-0.1,0-0.2,0-0.3,0c0,0-0.1,0-0.1,0c0,0-0.1,0-0.1,0c0,0-0.1-0.1-0.1-0.1c0,0,0-0.1,0-0.1
			c0-0.1,0-0.1,0.1-0.2c0,0,0.1-0.1,0.1-0.1c0.1,0,0.1,0,0.2-0.1c0.1,0,0.1,0,0.2,0c0.1,0,0.1,0,0.2,0c0.1,0,0.1,0,0.2-0.1V5.4z
			 M42.9,4.1v0.3h0C43,4.3,43,4.2,43.2,4.2c0.1,0,0.2-0.1,0.4-0.1c0.1,0,0.3,0,0.4,0.1c0.1,0.1,0.2,0.1,0.3,0.2
			c0.1,0.1,0.1,0.2,0.2,0.3c0,0.1,0.1,0.2,0.1,0.4c0,0.1,0,0.3-0.1,0.4c0,0.1-0.1,0.2-0.2,0.3C44.1,5.9,44,5.9,43.9,6
			c-0.1,0.1-0.2,0.1-0.4,0.1c0,0-0.1,0-0.2,0c-0.1,0-0.1,0-0.2,0C43.1,6,43.1,6,43,5.9c-0.1,0-0.1-0.1-0.1-0.1h0v1h-0.3V4.1H42.9z
			 M44,4.8c0-0.1-0.1-0.2-0.1-0.2c0-0.1-0.1-0.1-0.2-0.2c-0.1,0-0.2-0.1-0.3-0.1c-0.1,0-0.2,0-0.3,0.1c-0.1,0-0.1,0.1-0.2,0.2
			c0,0.1-0.1,0.1-0.1,0.2c0,0.1,0,0.2,0,0.3c0,0.1,0,0.2,0,0.3c0,0.1,0.1,0.2,0.1,0.2c0,0.1,0.1,0.1,0.2,0.2c0.1,0,0.2,0.1,0.3,0.1
			c0.1,0,0.2,0,0.3-0.1c0.1,0,0.1-0.1,0.2-0.2C44,5.5,44,5.4,44,5.3c0-0.1,0-0.2,0-0.3C44.1,5,44.1,4.9,44,4.8z M45.1,4.1v0.4h0
			c0.1-0.2,0.2-0.3,0.3-0.3c0.1-0.1,0.3-0.1,0.4-0.1v0.3c-0.1,0-0.2,0-0.3,0.1c-0.1,0-0.2,0.1-0.2,0.2c-0.1,0.1-0.1,0.1-0.1,0.2
			c0,0.1,0,0.2,0,0.3V6h-0.3V4.1H45.1z M47.3,5.9C47.1,6,47,6.1,46.7,6.1c-0.2,0-0.3,0-0.4-0.1c-0.1,0-0.2-0.1-0.3-0.2
			c-0.1-0.1-0.1-0.2-0.2-0.3c0-0.1-0.1-0.3-0.1-0.4c0-0.1,0-0.3,0.1-0.4c0-0.1,0.1-0.2,0.2-0.3c0.1-0.1,0.2-0.2,0.3-0.2
			c0.1,0,0.2-0.1,0.4-0.1c0.2,0,0.3,0,0.4,0.1c0.1,0.1,0.2,0.2,0.3,0.3c0.1,0.1,0.1,0.2,0.1,0.4c0,0.1,0,0.3,0,0.4h-1.4
			c0,0.1,0,0.2,0,0.2c0,0.1,0.1,0.1,0.1,0.2c0,0.1,0.1,0.1,0.2,0.1c0.1,0,0.2,0.1,0.3,0.1c0.1,0,0.2,0,0.3-0.1
			c0.1-0.1,0.1-0.2,0.2-0.3h0.3C47.5,5.6,47.4,5.8,47.3,5.9z M47.2,4.7c0-0.1-0.1-0.1-0.1-0.2c0,0-0.1-0.1-0.2-0.1
			c-0.1,0-0.1,0-0.2,0c-0.1,0-0.2,0-0.2,0c-0.1,0-0.1,0.1-0.2,0.1c0,0-0.1,0.1-0.1,0.2c0,0.1,0,0.1,0,0.2h1.1
			C47.3,4.8,47.2,4.8,47.2,4.7z M49.3,6V5.8h0C49.3,5.9,49.2,6,49.1,6c-0.1,0-0.2,0.1-0.4,0.1c-0.1,0-0.3,0-0.4-0.1
			c-0.1-0.1-0.2-0.1-0.3-0.2c-0.1-0.1-0.1-0.2-0.2-0.3c0-0.1-0.1-0.2-0.1-0.4c0-0.1,0-0.3,0.1-0.4c0-0.1,0.1-0.2,0.2-0.3
			c0.1-0.1,0.2-0.2,0.3-0.2c0.1-0.1,0.2-0.1,0.4-0.1c0,0,0.1,0,0.2,0c0.1,0,0.1,0,0.2,0c0.1,0,0.1,0.1,0.2,0.1
			c0.1,0,0.1,0.1,0.1,0.1h0v-1h0.3V6H49.3z M48.2,5.4c0,0.1,0.1,0.2,0.1,0.2c0,0.1,0.1,0.1,0.2,0.2c0.1,0,0.2,0.1,0.3,0.1
			c0.1,0,0.2,0,0.3-0.1c0.1,0,0.1-0.1,0.2-0.2c0-0.1,0.1-0.1,0.1-0.2c0-0.1,0-0.2,0-0.3c0-0.1,0-0.2,0-0.3c0-0.1-0.1-0.2-0.1-0.2
			c0-0.1-0.1-0.1-0.2-0.2c-0.1,0-0.2-0.1-0.3-0.1c-0.1,0-0.2,0-0.3,0.1c-0.1,0-0.1,0.1-0.2,0.2c0,0.1-0.1,0.1-0.1,0.2
			c0,0.1,0,0.2,0,0.3C48.1,5.2,48.2,5.3,48.2,5.4z M50.1,3.8V3.4h0.3v0.4H50.1z M50.4,4.1V6h-0.3V4.1H50.4z M52.1,4.5
			c-0.1-0.1-0.2-0.1-0.3-0.1c-0.1,0-0.2,0-0.3,0.1c-0.1,0-0.1,0.1-0.2,0.2c0,0.1-0.1,0.1-0.1,0.2c0,0.1,0,0.2,0,0.3
			c0,0.1,0,0.2,0,0.3c0,0.1,0.1,0.2,0.1,0.2c0,0.1,0.1,0.1,0.2,0.2c0.1,0,0.2,0.1,0.3,0.1c0.2,0,0.3,0,0.4-0.1
			c0.1-0.1,0.1-0.2,0.2-0.3h0.3c0,0.2-0.1,0.4-0.3,0.5C52.2,6,52,6.1,51.7,6.1c-0.1,0-0.3,0-0.4-0.1c-0.1,0-0.2-0.1-0.3-0.2
			c-0.1-0.1-0.1-0.2-0.2-0.3c0-0.1-0.1-0.3-0.1-0.4c0-0.1,0-0.3,0.1-0.4c0-0.1,0.1-0.2,0.2-0.3c0.1-0.1,0.2-0.2,0.3-0.2
			c0.1-0.1,0.2-0.1,0.4-0.1c0.1,0,0.2,0,0.3,0c0.1,0,0.2,0.1,0.3,0.1c0.1,0.1,0.1,0.1,0.2,0.2c0,0.1,0.1,0.2,0.1,0.3h-0.3
			C52.2,4.6,52.2,4.5,52.1,4.5z M53.7,4.1v0.3h-0.4v1.2c0,0,0,0.1,0,0.1c0,0,0,0,0,0.1c0,0,0,0,0.1,0c0,0,0.1,0,0.1,0h0.1V6h-0.2
			c-0.1,0-0.2,0-0.2,0c-0.1,0-0.1,0-0.1-0.1c0,0-0.1-0.1-0.1-0.1c0-0.1,0-0.1,0-0.2V4.4h-0.3V4.1H53V3.5h0.3v0.6H53.7z M54.1,3.8
			V3.4h0.3v0.4H54.1z M54.4,4.1V6h-0.3V4.1H54.4z M55.4,6l-0.7-1.9h0.4l0.5,1.6h0l0.5-1.6h0.3L55.8,6H55.4z M58.1,5.9
			C58,6,57.8,6.1,57.6,6.1c-0.2,0-0.3,0-0.4-0.1c-0.1,0-0.2-0.1-0.3-0.2c-0.1-0.1-0.1-0.2-0.2-0.3c0-0.1-0.1-0.3-0.1-0.4
			c0-0.1,0-0.3,0.1-0.4c0-0.1,0.1-0.2,0.2-0.3c0.1-0.1,0.2-0.2,0.3-0.2c0.1,0,0.2-0.1,0.4-0.1c0.2,0,0.3,0,0.4,0.1
			c0.1,0.1,0.2,0.2,0.3,0.3c0.1,0.1,0.1,0.2,0.1,0.4c0,0.1,0,0.3,0,0.4H57c0,0.1,0,0.2,0,0.2c0,0.1,0.1,0.1,0.1,0.2
			c0,0.1,0.1,0.1,0.2,0.1c0.1,0,0.2,0.1,0.3,0.1c0.1,0,0.2,0,0.3-0.1C58,5.6,58,5.6,58.1,5.4h0.3C58.3,5.6,58.2,5.8,58.1,5.9z
			 M58,4.7c0-0.1-0.1-0.1-0.1-0.2c0,0-0.1-0.1-0.2-0.1c-0.1,0-0.1,0-0.2,0c-0.1,0-0.2,0-0.2,0c-0.1,0-0.1,0.1-0.2,0.1
			c0,0-0.1,0.1-0.1,0.2c0,0.1,0,0.1,0,0.2h1.1C58.1,4.8,58.1,4.8,58,4.7z M60.1,4.1v0.3h0c0.1-0.2,0.3-0.3,0.6-0.3
			c0.1,0,0.2,0,0.3,0.1c0.1,0,0.2,0.1,0.2,0.3c0.1-0.1,0.1-0.2,0.3-0.2c0.1-0.1,0.2-0.1,0.3-0.1c0.1,0,0.2,0,0.3,0
			c0.1,0,0.1,0.1,0.2,0.1c0.1,0,0.1,0.1,0.1,0.2c0,0.1,0,0.2,0,0.3V6h-0.3V4.8c0-0.1,0-0.1,0-0.2c0-0.1,0-0.1-0.1-0.1
			c0,0-0.1-0.1-0.1-0.1c0,0-0.1,0-0.2,0c-0.2,0-0.3,0-0.4,0.1c-0.1,0.1-0.1,0.2-0.1,0.4V6h-0.3V4.8c0-0.1,0-0.1,0-0.2
			c0-0.1,0-0.1-0.1-0.1c0,0-0.1-0.1-0.1-0.1c0,0-0.1,0-0.2,0c-0.1,0-0.2,0-0.2,0.1c-0.1,0-0.1,0.1-0.2,0.1c0,0.1-0.1,0.1-0.1,0.2
			c0,0.1,0,0.1,0,0.1V6h-0.3V4.1H60.1z M62.9,4.7c0-0.1,0.1-0.2,0.2-0.3c0.1-0.1,0.2-0.2,0.3-0.2c0.1-0.1,0.2-0.1,0.4-0.1
			c0.2,0,0.3,0,0.4,0.1c0.1,0.1,0.2,0.1,0.3,0.2c0.1,0.1,0.1,0.2,0.2,0.3c0,0.1,0.1,0.3,0.1,0.4c0,0.1,0,0.3-0.1,0.4
			c0,0.1-0.1,0.2-0.2,0.3c-0.1,0.1-0.2,0.2-0.3,0.2C64,6,63.9,6.1,63.7,6.1c-0.2,0-0.3,0-0.4-0.1c-0.1-0.1-0.2-0.1-0.3-0.2
			c-0.1-0.1-0.1-0.2-0.2-0.3c0-0.1-0.1-0.3-0.1-0.4C62.8,4.9,62.8,4.8,62.9,4.7z M63.2,5.4c0,0.1,0.1,0.2,0.1,0.2
			c0.1,0.1,0.1,0.1,0.2,0.1c0.1,0,0.1,0,0.2,0c0.1,0,0.2,0,0.2,0c0.1,0,0.1-0.1,0.2-0.1c0.1-0.1,0.1-0.1,0.1-0.2c0-0.1,0-0.2,0-0.3
			c0-0.1,0-0.2,0-0.3c0-0.1-0.1-0.2-0.1-0.2C64.1,4.5,64,4.4,64,4.4c-0.1,0-0.1,0-0.2,0c-0.1,0-0.2,0-0.2,0c-0.1,0-0.1,0.1-0.2,0.1
			c-0.1,0.1-0.1,0.1-0.1,0.2c0,0.1,0,0.2,0,0.3C63.1,5.2,63.2,5.3,63.2,5.4z M66.4,6V5.8h0C66.4,5.9,66.3,6,66.2,6
			c-0.1,0-0.2,0.1-0.4,0.1c-0.1,0-0.3,0-0.4-0.1c-0.1-0.1-0.2-0.1-0.3-0.2C65.1,5.7,65,5.6,65,5.5c0-0.1-0.1-0.2-0.1-0.4
			c0-0.1,0-0.3,0.1-0.4c0-0.1,0.1-0.2,0.2-0.3c0.1-0.1,0.2-0.2,0.3-0.2c0.1-0.1,0.2-0.1,0.4-0.1c0,0,0.1,0,0.2,0c0.1,0,0.1,0,0.2,0
			c0.1,0,0.1,0.1,0.2,0.1c0.1,0,0.1,0.1,0.1,0.1h0v-1h0.3V6H66.4z M65.3,5.4c0,0.1,0.1,0.2,0.1,0.2c0,0.1,0.1,0.1,0.2,0.2
			c0.1,0,0.2,0.1,0.3,0.1c0.1,0,0.2,0,0.3-0.1c0.1,0,0.1-0.1,0.2-0.2c0-0.1,0.1-0.1,0.1-0.2c0-0.1,0-0.2,0-0.3c0-0.1,0-0.2,0-0.3
			c0-0.1-0.1-0.2-0.1-0.2c0-0.1-0.1-0.1-0.2-0.2c-0.1,0-0.2-0.1-0.3-0.1c-0.1,0-0.2,0-0.3,0.1c-0.1,0-0.1,0.1-0.2,0.2
			c0,0.1-0.1,0.1-0.1,0.2c0,0.1,0,0.2,0,0.3C65.3,5.2,65.3,5.3,65.3,5.4z M68.6,5.9C68.4,6,68.3,6.1,68,6.1c-0.2,0-0.3,0-0.4-0.1
			c-0.1,0-0.2-0.1-0.3-0.2c-0.1-0.1-0.1-0.2-0.2-0.3c0-0.1-0.1-0.3-0.1-0.4c0-0.1,0-0.3,0.1-0.4c0-0.1,0.1-0.2,0.2-0.3
			c0.1-0.1,0.2-0.2,0.3-0.2c0.1,0,0.2-0.1,0.4-0.1c0.2,0,0.3,0,0.4,0.1c0.1,0.1,0.2,0.2,0.3,0.3c0.1,0.1,0.1,0.2,0.1,0.4
			c0,0.1,0,0.3,0,0.4h-1.4c0,0.1,0,0.2,0,0.2c0,0.1,0.1,0.1,0.1,0.2c0,0.1,0.1,0.1,0.2,0.1c0.1,0,0.2,0.1,0.3,0.1
			c0.1,0,0.2,0,0.3-0.1c0.1-0.1,0.1-0.2,0.2-0.3h0.3C68.8,5.6,68.7,5.8,68.6,5.9z M68.5,4.7c0-0.1-0.1-0.1-0.1-0.2
			c0,0-0.1-0.1-0.2-0.1c-0.1,0-0.1,0-0.2,0c-0.1,0-0.2,0-0.2,0c-0.1,0-0.1,0.1-0.2,0.1c0,0-0.1,0.1-0.1,0.2c0,0.1,0,0.1,0,0.2h1.1
			C68.6,4.8,68.5,4.8,68.5,4.7z M69.6,3.4V6h-0.3V3.4H69.6z M70.9,4.4V4.1h0.3V3.8c0-0.2,0-0.3,0.1-0.4c0.1-0.1,0.2-0.1,0.4-0.1
			c0,0,0.1,0,0.1,0c0,0,0.1,0,0.1,0v0.3c0,0-0.1,0-0.1,0c0,0-0.1,0-0.1,0c-0.1,0-0.1,0-0.2,0c0,0-0.1,0.1-0.1,0.2v0.3h0.4v0.3h-0.4
			V6h-0.3V4.4H70.9z M72.1,4.7c0-0.1,0.1-0.2,0.2-0.3c0.1-0.1,0.2-0.2,0.3-0.2c0.1-0.1,0.2-0.1,0.4-0.1c0.2,0,0.3,0,0.4,0.1
			s0.2,0.1,0.3,0.2c0.1,0.1,0.1,0.2,0.2,0.3c0,0.1,0.1,0.3,0.1,0.4c0,0.1,0,0.3-0.1,0.4c0,0.1-0.1,0.2-0.2,0.3
			c-0.1,0.1-0.2,0.2-0.3,0.2S73.1,6.1,73,6.1c-0.2,0-0.3,0-0.4-0.1c-0.1-0.1-0.2-0.1-0.3-0.2c-0.1-0.1-0.1-0.2-0.2-0.3
			c0-0.1-0.1-0.3-0.1-0.4C72.1,4.9,72.1,4.8,72.1,4.7z M72.4,5.4c0,0.1,0.1,0.2,0.1,0.2c0.1,0.1,0.1,0.1,0.2,0.1c0.1,0,0.1,0,0.2,0
			c0.1,0,0.2,0,0.2,0c0.1,0,0.1-0.1,0.2-0.1c0.1-0.1,0.1-0.1,0.1-0.2c0-0.1,0-0.2,0-0.3c0-0.1,0-0.2,0-0.3c0-0.1-0.1-0.2-0.1-0.2
			c-0.1-0.1-0.1-0.1-0.2-0.1c-0.1,0-0.1,0-0.2,0c-0.1,0-0.2,0-0.2,0c-0.1,0-0.1,0.1-0.2,0.1c-0.1,0.1-0.1,0.1-0.1,0.2
			c0,0.1,0,0.2,0,0.3C72.4,5.2,72.4,5.3,72.4,5.4z M74.6,4.1v0.4h0c0.1-0.2,0.2-0.3,0.3-0.3c0.1-0.1,0.3-0.1,0.4-0.1v0.3
			c-0.1,0-0.2,0-0.3,0.1c-0.1,0-0.2,0.1-0.2,0.2c-0.1,0.1-0.1,0.1-0.1,0.2c0,0.1,0,0.2,0,0.3V6h-0.3V4.1H74.6z M76.4,3.4h0.4l0.7,1
			l0.7-1h0.4l-0.9,1.3L78.6,6h-0.4l-0.7-1.1L76.7,6h-0.4l0.9-1.4L76.4,3.4z M79.2,3.4v0.4c0,0.1,0,0.1,0,0.2c0,0.1,0,0.1-0.1,0.2
			c0,0-0.1,0.1-0.1,0.1c-0.1,0-0.1,0-0.2,0V4.2c0,0,0.1,0,0.1,0c0,0,0,0,0.1-0.1c0,0,0-0.1,0-0.1c0,0,0-0.1,0-0.1h-0.2V3.4H79.2z
			 M79.9,3.4v0.4c0,0.1,0,0.1,0,0.2c0,0.1,0,0.1-0.1,0.2c0,0-0.1,0.1-0.1,0.1c-0.1,0-0.1,0-0.2,0V4.2c0,0,0.1,0,0.1,0
			c0,0,0,0,0.1-0.1c0,0,0-0.1,0-0.1c0,0,0-0.1,0-0.1h-0.2V3.4H79.9z"/>
	</g>
	<g>
		<defs>
			<rect id="SVGID_5_" x="20.5" y="11.7" width="59" height="23"/>
		</defs>
		<clipPath id="SVGID_6_">
			<use xlink:href="#SVGID_5_"  style="overflow:visible;"/>
		</clipPath>
		<path class="st6" d="M22.2,34.3h55.5c0.7,0,1.4-0.6,1.4-1.4V13.4c0-0.7-0.6-1.4-1.4-1.4H22.2c-0.7,0-1.4,0.6-1.4,1.4V33
			C20.9,33.7,21.5,34.3,22.2,34.3z"/>
	</g>
	<g>
		<defs>
			<rect id="SVGID_7_" x="20.9" y="12" width="58.3" height="22.3"/>
		</defs>
		<clipPath id="SVGID_8_">
			<use xlink:href="#SVGID_7_"  style="overflow:visible;"/>
		</clipPath>
		<g class="st7">
			<text transform="matrix(1 0 0 1 22.3618 16.4758)" class="st8 st9 st3">$</text>
		</g>
		<g class="st7">
			<text transform="matrix(1 0 0 1 24.1372 16.4758)" class="st10 st9 st3"> ballet quickstar</text>
		</g>
		<g class="st7">
			<text transform="matrix(1 0 0 1 52.6963 16.4758)" class="st10 st9 st3">t</text>
		</g>
		<g class="st7">
			<text transform="matrix(1 0 0 1 22.3618 20.1731)" class="st10 st9 st3">Generating new ballet project...</text>
		</g>
		<g class="st7">
			<text transform="matrix(1 0 0 1 22.3618 23.8713)" class="st10 st9 st3">full_name [Your Name]: Alic</text>
		</g>
		<g class="st7">
			<text transform="matrix(1 0 0 1 67.7222 23.8713)" class="st10 st9 st3">e</text>
		</g>
	</g>
	<g>
		<defs>
			<rect id="SVGID_9_" x="22.7" y="25.1" width="54.7" height="3.5"/>
		</defs>
		<clipPath id="SVGID_10_">
			<use xlink:href="#SVGID_9_"  style="overflow:visible;"/>
		</clipPath>
		<path class="st11" d="M25,28.2h50.1c0.5,0,0.9,0,1.1-0.1c0.3-0.1,0.6-0.4,0.7-0.7C77,27.2,77,27,77,26.8s0-0.4-0.1-0.5
			c-0.1-0.3-0.4-0.6-0.7-0.7c-0.2-0.1-0.5-0.1-1.1-0.1H25c-0.5,0-0.9,0-1.1,0.1c-0.3,0.1-0.6,0.4-0.7,0.7c-0.1,0.1-0.1,0.4-0.1,0.5
			s0,0.4,0.1,0.5c0.1,0.3,0.4,0.6,0.7,0.7C24.1,28.2,24.4,28.2,25,28.2z"/>
	</g>
	<g>
		<defs>
			<rect id="SVGID_11_" x="22.7" y="28.5" width="54.7" height="3.5"/>
		</defs>
		<clipPath id="SVGID_12_">
			<use xlink:href="#SVGID_11_"  style="overflow:visible;"/>
		</clipPath>
		<path class="st12" d="M25,31.5h50.1c0.5,0,0.9,0,1.1-0.1c0.3-0.1,0.6-0.4,0.7-0.7c0.1-0.1,0.1-0.4,0.1-0.5s0-0.4-0.1-0.5
			c-0.1-0.3-0.4-0.6-0.7-0.7c-0.2-0.1-0.5-0.1-1.1-0.1H25c-0.5,0-0.9,0-1.1,0.1c-0.3,0.1-0.6,0.4-0.7,0.7C23.1,29.8,23,30,23,30.2
			s0,0.4,0.1,0.5c0.1,0.3,0.4,0.6,0.7,0.7C24.1,31.5,24.4,31.5,25,31.5z"/>
	</g>
	<g>
		<defs>
			<rect id="SVGID_13_" y="37.4" width="81.1" height="41.6"/>
		</defs>
		<clipPath id="SVGID_14_">
			<use xlink:href="#SVGID_13_"  style="overflow:visible;"/>
		</clipPath>
		<path class="st13" d="M10.8,38.9h59.5c2.5,0,4,0,5,0.4c1.4,0.5,2.6,1.7,3.1,3.1c0.4,1,0.4,2.5,0.4,5v20c0,2.5,0,4-0.4,5
			c-0.5,1.4-1.7,2.6-3.1,3.1c-1,0.4-2.5,0.4-5,0.4H10.8c-2.5,0-4,0-5-0.4c-1.4-0.5-2.6-1.7-3.1-3.1c-0.4-1-0.4-2.5-0.4-5v-20
			c0-2.5,0-4,0.4-5c0.5-1.4,1.7-2.6,3.1-3.1C6.8,38.9,8.3,38.9,10.8,38.9z"/>
		<path class="st14" d="M10.8,38.9h59.5c2.5,0,4,0,5,0.4c1.4,0.5,2.6,1.7,3.1,3.1c0.4,1,0.4,2.5,0.4,5v20c0,2.5,0,4-0.4,5
			c-0.5,1.4-1.7,2.6-3.1,3.1c-1,0.4-2.5,0.4-5,0.4H10.8c-2.5,0-4,0-5-0.4c-1.4-0.5-2.6-1.7-3.1-3.1c-0.4-1-0.4-2.5-0.4-5v-20
			c0-2.5,0-4,0.4-5c0.5-1.4,1.7-2.6,3.1-3.1C6.8,38.9,8.3,38.9,10.8,38.9z"/>
	</g>
	<g>
		<defs>
			<rect id="SVGID_15_" x="4.7" y="41.2" width="19.4" height="5.7"/>
		</defs>
		<clipPath id="SVGID_16_">
			<use xlink:href="#SVGID_15_"  style="overflow:visible;"/>
		</clipPath>
		<g class="st15">
			<text transform="matrix(1 0 0 1 5.7276 45.0559)" class="st1 st2 st3">README.md</text>
		</g>
	</g>
	<g>
		<defs>
			<rect id="SVGID_17_" x="7.7" y="48.1" width="21.1" height="4.7"/>
		</defs>
		<clipPath id="SVGID_18_">
			<use xlink:href="#SVGID_17_"  style="overflow:visible;"/>
		</clipPath>
		<g class="st16">
			<defs>
				<rect id="SVGID_19_" x="8" y="48.5" width="20.4" height="4"/>
			</defs>
			<clipPath id="SVGID_20_">
				<use xlink:href="#SVGID_19_"  style="overflow:visible;"/>
			</clipPath>
			<g style="clip-path:url(#SVGID_20_);">
				
					<image style="overflow:visible;" width="102" height="20" xlink:href="3A388659.png"  transform="matrix(0.1997 0 0 0.1997 8.0394 48.4546)">
				</image>
			</g>
		</g>
	</g>
	<g>
		<defs>
			<rect id="SVGID_21_" x="6.8" y="54.5" width="21.5" height="8.2"/>
		</defs>
		<clipPath id="SVGID_22_">
			<use xlink:href="#SVGID_21_"  style="overflow:visible;"/>
		</clipPath>
		<g class="st17">
			<text transform="matrix(1 0 0 1 8.1446 60.2581)"><tspan x="0" y="0" class="st10 st18 st19">P</tspan><tspan x="2.9" y="0" class="st10 st18 st19">r</tspan><tspan x="4.4" y="0" class="st10 st18 st19">edict </tspan><tspan x="15.7" y="0" class="st10 st18 st19">X</tspan></text>
		</g>
	</g>
	<g>
		<defs>
			<rect id="SVGID_23_" x="7.7" y="61.5" width="68.8" height="0.9"/>
		</defs>
		<clipPath id="SVGID_24_">
			<use xlink:href="#SVGID_23_"  style="overflow:visible;"/>
		</clipPath>
		<line class="st20" x1="8.1" y1="62" x2="76.2" y2="62"/>
	</g>
	<g>
		<defs>
			<rect id="SVGID_25_" x="7.1" y="61.9" width="69.9" height="13.1"/>
		</defs>
		<clipPath id="SVGID_26_">
			<use xlink:href="#SVGID_25_"  style="overflow:visible;"/>
		</clipPath>
		<g class="st21">
			<text transform="matrix(1 0 0 1 8.0117 65.7493)"><tspan x="0" y="0" class="st1 st2 st3">Join our data science collaboration! </tspan><tspan x="47.9" y="0" class="st1 st2 st3">Y</tspan><tspan x="49.5" y="0" class="st1 st2 st3">our task is to </tspan></text>
		</g>
		<g class="st21">
			<text transform="matrix(1 0 0 1 8.0117 69.4456)"><tspan x="0" y="0" class="st1 st2 st3">develop and submit featu</tspan><tspan x="33.6" y="0" class="st1 st2 st3">r</tspan><tspan x="34.5" y="0" class="st1 st2 st3">e de</tspan></text>
		</g>
		<path class="st22" d="M48.3,68.1v-0.2h0.3v-0.2c0-0.1,0-0.2,0.1-0.3c0.1-0.1,0.2-0.1,0.3-0.1c0,0,0.1,0,0.1,0c0,0,0.1,0,0.1,0v0.2
			c0,0,0,0-0.1,0c0,0,0,0-0.1,0c-0.1,0-0.1,0-0.1,0c0,0-0.1,0.1-0.1,0.1v0.2h0.3v0.2h-0.3v1.3h-0.3v-1.3H48.3z M49.4,67.3h0.3v0.3
			h-0.3V67.3z M49.4,67.9h0.3v1.5h-0.3V67.9z"/>
		<g class="st21">
			<text transform="matrix(1 0 0 1 49.8184 69.4456)" class="st1 st2 st3">nitions to the </text>
		</g>
		<g class="st21">
			<text transform="matrix(1 0 0 1 8.0117 73.1428)"><tspan x="0" y="0" class="st1 st2 st3">p</tspan><tspan x="1.8" y="0" class="st1 st2 st3">r</tspan><tspan x="2.7" y="0" class="st1 st2 st3">oject.</tspan></text>
		</g>
	</g>
	<g>
		<defs>
			<rect id="SVGID_27_" x="29.4" y="48.5" width="18.4" height="4"/>
		</defs>
		<clipPath id="SVGID_28_">
			<use xlink:href="#SVGID_27_"  style="overflow:visible;"/>
		</clipPath>
		<g class="st23">
			<defs>
				<rect id="SVGID_29_" x="29.4" y="48.5" width="18.4" height="4"/>
			</defs>
			<clipPath id="SVGID_30_">
				<use xlink:href="#SVGID_29_"  style="overflow:visible;"/>
			</clipPath>
			<g style="clip-path:url(#SVGID_30_);">
				
					<image style="overflow:visible;" width="92" height="20" xlink:href="3A38865B.png"  transform="matrix(0.1997 0 0 0.1997 29.3666 48.4546)">
				</image>
			</g>
		</g>
	</g>
	<g>
		<defs>
			<rect id="SVGID_31_" x="48.4" y="47.8" width="26.1" height="4.7"/>
		</defs>
		<clipPath id="SVGID_32_">
			<use xlink:href="#SVGID_31_"  style="overflow:visible;"/>
		</clipPath>
		<g class="st24">
			<defs>
				<rect id="SVGID_33_" x="48.8" y="48.2" width="25.4" height="4"/>
			</defs>
			<clipPath id="SVGID_34_">
				<use xlink:href="#SVGID_33_"  style="overflow:visible;"/>
			</clipPath>
			<g style="clip-path:url(#SVGID_34_);">
				
					<image style="overflow:visible;" width="127" height="20" xlink:href="3A38865E.png"  transform="matrix(0.1997 0 0 0.1997 48.8095 48.2027)">
				</image>
			</g>
		</g>
	</g>
	<g>
		<defs>
			<rect id="SVGID_35_" x="55.9" y="51.2" width="3" height="4.5"/>
		</defs>
		<clipPath id="SVGID_36_">
			<use xlink:href="#SVGID_35_"  style="overflow:visible;"/>
		</clipPath>
		<g class="st25">
			<defs>
				<rect id="SVGID_37_" x="55.9" y="51.2" width="3" height="4.5"/>
			</defs>
			<clipPath id="SVGID_38_">
				<use xlink:href="#SVGID_37_"  style="overflow:visible;"/>
			</clipPath>
			<g transform="matrix(-1.885356e-03 0 0 1.885356e-03 58.9236 51.1931)" style="clip-path:url(#SVGID_38_);">
				
					<image style="overflow:visible;" width="1602" height="2400" xlink:href="3A38865F.png"  transform="matrix(-1.885356e-03 0 0 1.885356e-03 58.9236 51.1931)">
				</image>
			</g>
		</g>
	</g>
</g>
</svg>
