<?xml version="1.0" encoding="utf-8"?>
<!-- Generator: Adobe Illustrator 24.3.0, SVG Export Plug-In . SVG Version: 6.00 Build 0)  -->
<svg version="1.1" id="Layer_1" xmlns="http://www.w3.org/2000/svg" xmlns:xlink="http://www.w3.org/1999/xlink" x="0px" y="0px"
	 viewBox="0 0 108.5 97.7" style="enable-background:new 0 0 108.5 97.7;" xml:space="preserve">
<style type="text/css">
	.st0{clip-path:url(#SVGID_2_);fill:#FFFFFF;}
	.st1{clip-path:url(#SVGID_2_);fill:none;stroke:#010101;stroke-width:0.3697;}
	.st2{clip-path:url(#SVGID_4_);fill:#939292;}
	.st3{clip-path:url(#SVGID_6_);fill:none;stroke:#010101;stroke-width:0.3697;}
	.st4{clip-path:url(#SVGID_8_);fill:#939292;}
	.st5{clip-path:url(#SVGID_10_);fill:#939292;}
	.st6{clip-path:url(#SVGID_12_);}
	.st7{clip-path:url(#SVGID_16_);fill:#FDE144;}
	.st8{clip-path:url(#SVGID_18_);}
	.st9{fill:#5E5F5F;}
	.st10{font-family:'HelveticaNeue';}
	.st11{font-size:2.5882px;}
	.st12{clip-path:url(#SVGID_20_);fill:none;stroke:#010101;stroke-width:0.4067;}
	.st13{clip-path:url(#SVGID_22_);fill:#D6D5D5;}
	.st14{clip-path:url(#SVGID_24_);}
	.st15{fill:#22B14B;}
	.st16{font-family:'Courier-Bold';}
	.st17{font-size:2.9579px;}
	.st18{fill:#010101;}
	.st19{font-family:'Courier';}
	.st20{fill:#971C55;}
	.st21{fill:#014E80;}
	.st22{clip-path:url(#SVGID_26_);fill:#939292;}
	.st23{clip-path:url(#SVGID_28_);}
	.st24{font-size:2.2185px;}
	.st25{clip-path:url(#SVGID_30_);fill:#D6D5D5;}
	.st26{clip-path:url(#SVGID_32_);}
	.st27{fill:#B42024;}
	.st28{clip-path:url(#SVGID_34_);}
	.st29{clip-path:url(#SVGID_36_);fill:#D6D5D5;}
	.st30{clip-path:url(#SVGID_38_);}
	.st31{clip-path:url(#SVGID_40_);fill:#FCDDDD;}
	.st32{clip-path:url(#SVGID_42_);}
	.st33{font-size:1.8487px;}
	.st34{clip-path:url(#SVGID_44_);}
	.st35{clip-path:url(#SVGID_46_);fill:#939292;}
	.st36{clip-path:url(#SVGID_48_);}
	.st37{clip-path:url(#SVGID_50_);}
	.st38{clip-path:url(#SVGID_52_);}
	.st39{clip-path:url(#SVGID_54_);}
	.st40{clip-path:url(#SVGID_56_);}
	.st41{clip-path:url(#SVGID_58_);}
	.st42{clip-path:url(#SVGID_62_);fill:#488FCC;}
	.st43{clip-path:url(#SVGID_64_);fill:#488FCC;}
	.st44{fill:#FFFFFF;}
	.st45{clip-path:url(#SVGID_66_);fill:#010101;}
	.st46{clip-path:url(#SVGID_68_);}
	.st47{font-size:3.6974px;}
</style>
<g>
	<g>
		<defs>
			<rect id="SVGID_1_" width="108.5" height="97.7"/>
		</defs>
		<clipPath id="SVGID_2_">
			<use xlink:href="#SVGID_1_"  style="overflow:visible;"/>
		</clipPath>
		<rect x="2.4" y="1.7" class="st0" width="103.7" height="92.9"/>
		<rect x="2.4" y="1.7" class="st1" width="103.7" height="92.9"/>
	</g>
	<g>
		<defs>
			<rect id="SVGID_3_" x="5.2" y="3.1" width="5.9" height="5.3"/>
		</defs>
		<clipPath id="SVGID_4_">
			<use xlink:href="#SVGID_3_"  style="overflow:visible;"/>
		</clipPath>
		<path class="st2" d="M7.1,3.5h2.2c0.4,0,0.7,0,0.9,0.1c0.3,0.1,0.5,0.3,0.5,0.5c0.1,0.2,0.1,0.4,0.1,0.9v1.5c0,0.4,0,0.7-0.1,0.9
			c-0.1,0.3-0.3,0.5-0.5,0.5C10,8,9.7,8,9.3,8H7.1C6.7,8,6.4,8,6.2,7.9C6,7.8,5.8,7.6,5.7,7.4C5.6,7.2,5.6,6.9,5.6,6.5V5
			c0-0.4,0-0.7,0.1-0.9C5.8,3.8,6,3.6,6.2,3.5C6.4,3.5,6.7,3.5,7.1,3.5z"/>
	</g>
	<g>
		<defs>
			<rect id="SVGID_5_" x="4.3" y="10" width="100" height="1.1"/>
		</defs>
		<clipPath id="SVGID_6_">
			<use xlink:href="#SVGID_5_"  style="overflow:visible;"/>
		</clipPath>
		<line class="st3" x1="4.6" y1="10.5" x2="103.9" y2="10.5"/>
	</g>
	<g>
		<defs>
			<rect id="SVGID_7_" x="12.3" y="3.1" width="5.9" height="5.3"/>
		</defs>
		<clipPath id="SVGID_8_">
			<use xlink:href="#SVGID_7_"  style="overflow:visible;"/>
		</clipPath>
		<path class="st4" d="M14.2,3.5h2.2c0.4,0,0.7,0,0.9,0.1c0.3,0.1,0.5,0.3,0.5,0.5c0.1,0.2,0.1,0.4,0.1,0.9v1.5c0,0.4,0,0.7-0.1,0.9
			c-0.1,0.3-0.3,0.5-0.5,0.5C17.1,8,16.8,8,16.4,8h-2.2c-0.4,0-0.7,0-0.9-0.1c-0.3-0.1-0.5-0.3-0.5-0.5c-0.1-0.2-0.1-0.4-0.1-0.9V5
			c0-0.4,0-0.7,0.1-0.9c0.1-0.3,0.3-0.5,0.5-0.5C13.5,3.5,13.8,3.5,14.2,3.5z"/>
	</g>
	<g>
		<defs>
			<rect id="SVGID_9_" x="20.2" y="3.1" width="5.9" height="5.3"/>
		</defs>
		<clipPath id="SVGID_10_">
			<use xlink:href="#SVGID_9_"  style="overflow:visible;"/>
		</clipPath>
		<path class="st5" d="M22,3.5h2.2c0.4,0,0.7,0,0.9,0.1c0.3,0.1,0.5,0.3,0.5,0.5c0.1,0.2,0.1,0.4,0.1,0.9v1.5c0,0.4,0,0.7-0.1,0.9
			c-0.1,0.3-0.3,0.5-0.5,0.5C24.9,8,24.6,8,24.2,8H22c-0.4,0-0.7,0-0.9-0.1c-0.3-0.1-0.5-0.3-0.5-0.5c-0.1-0.2-0.1-0.4-0.1-0.9V5
			c0-0.4,0-0.7,0.1-0.9c0.1-0.3,0.3-0.5,0.5-0.5C21.3,3.5,21.6,3.5,22,3.5z"/>
	</g>
	<g>
		<defs>
			<rect id="SVGID_11_" x="98.2" y="2.8" width="5.2" height="5.2"/>
		</defs>
		<clipPath id="SVGID_12_">
			<use xlink:href="#SVGID_11_"  style="overflow:visible;"/>
		</clipPath>
		<g class="st6">
			<defs>
				<rect id="SVGID_13_" x="98.2" y="2.8" width="5.2" height="5.2"/>
			</defs>
			<clipPath id="SVGID_14_">
				<use xlink:href="#SVGID_13_"  style="overflow:visible;"/>
			</clipPath>
			<g transform="matrix(1.030937e-03 0 0 1.030937e-03 98.2414 2.841)" style="clip-path:url(#SVGID_14_);">
				
					<image style="overflow:visible;" width="5000" height="5000" xlink:href="D6575C7C.png"  transform="matrix(1.030937e-03 0 0 1.030937e-03 98.2414 2.841)">
				</image>
			</g>
		</g>
	</g>
	<g>
		<defs>
			<rect id="SVGID_15_" x="80.7" y="2.7" width="7.6" height="6.1"/>
		</defs>
		<clipPath id="SVGID_16_">
			<use xlink:href="#SVGID_15_"  style="overflow:visible;"/>
		</clipPath>
		<path class="st7" d="M87.9,4.9l-2.5-1.8v1c0,0,0,0,0,0C83,4.1,81,6,81,8.4c0,0,0,0,0,0h1.6c0,0,0,0,0,0c0-1.5,1.2-2.7,2.7-2.7
			c0,0,0,0,0,0v1L87.9,4.9z"/>
	</g>
	<g>
		<defs>
			<rect id="SVGID_17_" x="87.2" y="4.6" width="10" height="2.6"/>
		</defs>
		<clipPath id="SVGID_18_">
			<use xlink:href="#SVGID_17_"  style="overflow:visible;"/>
		</clipPath>
		<g class="st8">
			<text transform="matrix(1 0 0 1 87.9106 6.9174)" class="st9 st10 st11">Submit</text>
		</g>
	</g>
	<g>
		<defs>
			<rect id="SVGID_19_" x="79.5" y="2.1" width="17.8" height="7.3"/>
		</defs>
		<clipPath id="SVGID_20_">
			<use xlink:href="#SVGID_19_"  style="overflow:visible;"/>
		</clipPath>
		<path class="st12" d="M81.5,2.6h13.9c0.4,0,0.7,0,0.8,0.1c0.2,0.1,0.4,0.3,0.5,0.5c0.1,0.2,0.1,0.4,0.1,0.8v3.3
			c0,0.4,0,0.7-0.1,0.8c-0.1,0.2-0.3,0.4-0.5,0.5c-0.2,0.1-0.4,0.1-0.8,0.1H81.5c-0.4,0-0.7,0-0.8-0.1c-0.2-0.1-0.4-0.3-0.5-0.5
			c-0.1-0.2-0.1-0.4-0.1-0.8V4.1c0-0.4,0-0.7,0.1-0.8c0.1-0.2,0.3-0.4,0.5-0.5C80.8,2.6,81.1,2.6,81.5,2.6z"/>
	</g>
	<g>
		<defs>
			<rect id="SVGID_21_" x="10.5" y="12.6" width="93.7" height="11.3"/>
		</defs>
		<clipPath id="SVGID_22_">
			<use xlink:href="#SVGID_21_"  style="overflow:visible;"/>
		</clipPath>
		<rect x="10.9" y="13" class="st13" width="93" height="10.5"/>
	</g>
	<g>
		<defs>
			<rect id="SVGID_23_" x="10.9" y="13" width="93" height="10.5"/>
		</defs>
		<clipPath id="SVGID_24_">
			<use xlink:href="#SVGID_23_"  style="overflow:visible;"/>
		</clipPath>
		<g class="st14">
			<text transform="matrix(1 0 0 1 12.3388 17.4028)" class="st15 st16 st17">from</text>
		</g>
		<g class="st14">
			<text transform="matrix(1 0 0 1 19.4399 17.4028)" class="st18 st19 st17"> ballet </text>
		</g>
		<g class="st14">
			<text transform="matrix(1 0 0 1 33.6391 17.4028)" class="st15 st16 st17">import</text>
		</g>
		<g class="st14">
			<text transform="matrix(1 0 0 1 44.2895 17.4028)" class="st18 st19 st17"> </text>
		</g>
		<g class="st14">
			<text transform="matrix(1 0 0 1 46.0634 17.4028)" class="st18 st19 st17">b</text>
		</g>
		<g class="st14">
			<text transform="matrix(1 0 0 1 12.3388 21.1)" class="st18 st19 st17">X_raw, y_raw </text>
		</g>
		<g class="st14">
			<text transform="matrix(1 0 0 1 35.4145 21.1)" class="st20 st19 st17">=</text>
		</g>
		<g class="st14">
			<text transform="matrix(1 0 0 1 37.1889 21.1)" class="st18 st19 st17"> b.</text>
		</g>
		<g class="st14">
			<text transform="matrix(1 0 0 1 42.5146 21.1)" class="st21 st19 st17">api</text>
		</g>
		<g class="st14">
			<text transform="matrix(1 0 0 1 47.8393 21.1)" class="st18 st19 st17">.</text>
		</g>
		<g class="st14">
			<text transform="matrix(1 0 0 1 49.6142 21.1)" class="st21 st19 st17">load_data</text>
		</g>
		<g class="st14">
			<text transform="matrix(1 0 0 1 65.5893 21.1)" class="st18 st19 st17">()</text>
		</g>
	</g>
	<g>
		<defs>
			<rect id="SVGID_25_" x="10.5" y="25.5" width="21.1" height="2.5"/>
		</defs>
		<clipPath id="SVGID_26_">
			<use xlink:href="#SVGID_25_"  style="overflow:visible;"/>
		</clipPath>
		<path class="st22" d="M12.2,25.8h17.6c0.4,0,0.6,0,0.8,0.1c0.2,0.1,0.4,0.3,0.5,0.5c0,0.1,0.1,0.2,0.1,0.3c0,0.1,0,0.2-0.1,0.3
			c-0.1,0.2-0.3,0.4-0.5,0.5c-0.2,0.1-0.4,0.1-0.8,0.1H12.2c-0.4,0-0.6,0-0.8-0.1c-0.2-0.1-0.4-0.3-0.5-0.5c0-0.1-0.1-0.2-0.1-0.3
			c0-0.1,0-0.2,0.1-0.3c0.1-0.2,0.3-0.4,0.5-0.5C11.6,25.8,11.8,25.8,12.2,25.8z"/>
	</g>
	<g>
		<defs>
			<rect id="SVGID_27_" x="4.2" y="11.5" width="6.9" height="5.5"/>
		</defs>
		<clipPath id="SVGID_28_">
			<use xlink:href="#SVGID_27_"  style="overflow:visible;"/>
		</clipPath>
		<g class="st23">
			<text transform="matrix(1 0 0 1 5.8916 15.06)" class="st9 st10 st24">[ 1 ]</text>
		</g>
	</g>
	<g>
		<defs>
			<rect id="SVGID_29_" x="10.5" y="30.3" width="93.7" height="18"/>
		</defs>
		<clipPath id="SVGID_30_">
			<use xlink:href="#SVGID_29_"  style="overflow:visible;"/>
		</clipPath>
		<rect x="10.9" y="30.6" class="st25" width="93" height="17.3"/>
	</g>
	<g>
		<defs>
			<rect id="SVGID_31_" x="10.9" y="30.6" width="93" height="17.3"/>
		</defs>
		<clipPath id="SVGID_32_">
			<use xlink:href="#SVGID_31_"  style="overflow:visible;"/>
		</clipPath>
		<g class="st26">
			<text transform="matrix(1 0 0 1 12.3388 35.0961)" class="st15 st16 st17">from</text>
		</g>
		<g class="st26">
			<text transform="matrix(1 0 0 1 19.4399 35.0961)" class="st18 st19 st17"> ballet </text>
		</g>
		<g class="st26">
			<text transform="matrix(1 0 0 1 33.6391 35.0961)" class="st15 st16 st17">import</text>
		</g>
		<g class="st26">
			<text transform="matrix(1 0 0 1 44.2895 35.0961)" class="st18 st19 st17"> Featur</text>
		</g>
		<g class="st26">
			<text transform="matrix(1 0 0 1 56.7153 35.0961)" class="st18 st19 st17">e</text>
		</g>
		<g class="st26">
			<text transform="matrix(1 0 0 1 12.3388 38.7934)" class="st18 st19 st17">input </text>
		</g>
		<g class="st26">
			<text transform="matrix(1 0 0 1 22.9892 38.7934)" class="st20 st19 st17">=</text>
		</g>
		<g class="st26">
			<text transform="matrix(1 0 0 1 24.7641 38.7934)" class="st18 st19 st17"> </text>
		</g>
		<g class="st26">
			<text transform="matrix(1 0 0 1 26.5385 38.7934)" class="st27 st19 st17">&apos;FHINS3C&apos;</text>
		</g>
		<g class="st26">
			<text transform="matrix(1 0 0 1 12.3388 42.4916)" class="st18 st19 st17">transformer </text>
		</g>
		<g class="st26">
			<text transform="matrix(1 0 0 1 33.6391 42.4916)" class="st20 st19 st17">=</text>
		</g>
		<g class="st26">
			<text transform="matrix(1 0 0 1 35.4145 42.4916)" class="st18 st19 st17"> Non</text>
		</g>
		<g class="st26">
			<text transform="matrix(1 0 0 1 42.5146 42.4916)" class="st18 st19 st17">e</text>
		</g>
	</g>
	<g>
		<defs>
			<rect id="SVGID_33_" x="11.6" y="32.1" width="91.5" height="14.4"/>
		</defs>
		<clipPath id="SVGID_34_">
			<use xlink:href="#SVGID_33_"  style="overflow:visible;"/>
		</clipPath>
		<g class="st28">
			<text transform="matrix(1 0 0 1 12.3388 46.1889)" class="st18 st19 st17">feature </text>
		</g>
		<g class="st28">
			<text transform="matrix(1 0 0 1 26.5385 46.1889)" class="st20 st19 st17">=</text>
		</g>
		<g class="st28">
			<text transform="matrix(1 0 0 1 28.3139 46.1889)" class="st18 st19 st17"> Feature(input, transformer)</text>
		</g>
	</g>
	<g>
		<defs>
			<rect id="SVGID_35_" x="10.5" y="53" width="93.7" height="7.3"/>
		</defs>
		<clipPath id="SVGID_36_">
			<use xlink:href="#SVGID_35_"  style="overflow:visible;"/>
		</clipPath>
		<rect x="10.9" y="53.4" class="st29" width="93" height="6.6"/>
	</g>
	<g>
		<defs>
			<rect id="SVGID_37_" x="10.9" y="53.4" width="93" height="6.6"/>
		</defs>
		<clipPath id="SVGID_38_">
			<use xlink:href="#SVGID_37_"  style="overflow:visible;"/>
		</clipPath>
		<g class="st30">
			<text transform="matrix(1 0 0 1 12.3388 57.8188)" class="st18 st19 st17">b.</text>
		</g>
		<g class="st30">
			<text transform="matrix(1 0 0 1 15.8881 57.8188)" class="st21 st19 st17">validate_feature_api</text>
		</g>
		<g class="st30">
			<text transform="matrix(1 0 0 1 51.3896 57.8188)" class="st18 st19 st17">(feature)</text>
		</g>
	</g>
	<g>
		<defs>
			<rect id="SVGID_39_" x="10.5" y="60.6" width="93.7" height="21.6"/>
		</defs>
		<clipPath id="SVGID_40_">
			<use xlink:href="#SVGID_39_"  style="overflow:visible;"/>
		</clipPath>
		<rect x="10.9" y="61" class="st31" width="93" height="20.9"/>
	</g>
	<g>
		<defs>
			<rect id="SVGID_41_" x="10.9" y="61" width="93" height="20.9"/>
		</defs>
		<clipPath id="SVGID_42_">
			<use xlink:href="#SVGID_41_"  style="overflow:visible;"/>
		</clipPath>
		<g class="st32">
			<text transform="matrix(1 0 0 1 12.3388 64.228)" class="st18 st19 st33">INFO - Building features and target..</text>
		</g>
		<g class="st32">
			<text transform="matrix(1 0 0 1 53.3867 64.228)" class="st18 st19 st33">.</text>
		</g>
		<g class="st32">
			<text transform="matrix(1 0 0 1 12.3388 66.4477)" class="st18 st19 st33">INFO - Building features and target...DON</text>
		</g>
		<g class="st32">
			<text transform="matrix(1 0 0 1 57.8242 66.4477)" class="st18 st19 st33">E</text>
		</g>
		<g class="st32">
			<text transform="matrix(1 0 0 1 12.3388 68.6655)" class="st18 st19 st33">INFO - Feature is NOT valid; here is some advice for resolving the feature API </text>
		</g>
		<g class="st32">
			<text transform="matrix(1 0 0 1 12.3388 70.8832)" class="st18 st19 st33">issues</text>
		</g>
		<g class="st32">
			<text transform="matrix(1 0 0 1 18.9946 70.8832)" class="st18 st19 st33">.</text>
		</g>
		<g class="st32">
			<text transform="matrix(1 0 0 1 12.3388 73.103)" class="st18 st19 st33">INFO - NoMissingValuesCheck: When transforming sample data, the feature produces </text>
		</g>
		<g class="st32">
			<text transform="matrix(1 0 0 1 12.3388 75.3207)" class="st18 st19 st33">NaN values. If you reasonably expect these missing values, make sure you clean </text>
		</g>
		<g class="st32">
			<text transform="matrix(1 0 0 1 12.3388 77.5395)" class="st18 st19 st33">missing values as an additional step in your transformer list. For example: </text>
		</g>
		<g class="st32">
			<text transform="matrix(1 0 0 1 12.3388 79.7572)" class="st18 st19 st33">NullFiller(replacement=replacement</text>
		</g>
		<g class="st32">
			<text transform="matrix(1 0 0 1 50.0581 79.7572)" class="st18 st19 st33">)</text>
		</g>
	</g>
	<g>
		<defs>
			<rect id="SVGID_43_" x="10.4" y="80.7" width="87.7" height="6.6"/>
		</defs>
		<clipPath id="SVGID_44_">
			<use xlink:href="#SVGID_43_"  style="overflow:visible;"/>
		</clipPath>
		<g class="st34">
			<text transform="matrix(1 0 0 1 11.8925 85.1762)" class="st18 st19 st17">False</text>
		</g>
	</g>
	<g>
		<defs>
			<rect id="SVGID_45_" x="10.5" y="49.4" width="21.1" height="2.5"/>
		</defs>
		<clipPath id="SVGID_46_">
			<use xlink:href="#SVGID_45_"  style="overflow:visible;"/>
		</clipPath>
		<path class="st35" d="M12.2,49.7h17.6c0.4,0,0.6,0,0.8,0.1c0.2,0.1,0.4,0.3,0.5,0.5c0,0.1,0.1,0.2,0.1,0.3c0,0.1,0,0.2-0.1,0.3
			c-0.1,0.2-0.3,0.4-0.5,0.5c-0.2,0.1-0.4,0.1-0.8,0.1H12.2c-0.4,0-0.6,0-0.8-0.1c-0.2-0.1-0.4-0.3-0.5-0.5c0-0.1-0.1-0.2-0.1-0.3
			c0-0.1,0-0.2,0.1-0.3c0.1-0.2,0.3-0.4,0.5-0.5C11.6,49.7,11.8,49.7,12.2,49.7z"/>
	</g>
	<g>
		<defs>
			<rect id="SVGID_47_" x="4.2" y="23.4" width="6.9" height="5.5"/>
		</defs>
		<clipPath id="SVGID_48_">
			<use xlink:href="#SVGID_47_"  style="overflow:visible;"/>
		</clipPath>
		<g class="st36">
			<text transform="matrix(1 0 0 1 5.8916 26.9145)" class="st9 st10 st24">[ 1 ]</text>
		</g>
	</g>
	<g>
		<defs>
			<rect id="SVGID_49_" x="4.2" y="29.3" width="6.9" height="5.5"/>
		</defs>
		<clipPath id="SVGID_50_">
			<use xlink:href="#SVGID_49_"  style="overflow:visible;"/>
		</clipPath>
		<g class="st37">
			<text transform="matrix(1 0 0 1 5.8916 32.8315)" class="st9 st10 st24">[ 8 ]</text>
		</g>
	</g>
	<g>
		<defs>
			<rect id="SVGID_51_" x="4.2" y="47.9" width="6.9" height="5.5"/>
		</defs>
		<clipPath id="SVGID_52_">
			<use xlink:href="#SVGID_51_"  style="overflow:visible;"/>
		</clipPath>
		<g class="st38">
			<text transform="matrix(1 0 0 1 5.8916 51.4164)" class="st9 st10 st24">[ 8 ]</text>
		</g>
	</g>
	<g>
		<defs>
			<rect id="SVGID_53_" x="3" y="52.1" width="8.2" height="5.5"/>
		</defs>
		<clipPath id="SVGID_54_">
			<use xlink:href="#SVGID_53_"  style="overflow:visible;"/>
		</clipPath>
		<g class="st39">
			<text transform="matrix(1 0 0 1 4.6586 55.5873)" class="st9 st10 st24">[ 24 ]</text>
		</g>
	</g>
	<g>
		<defs>
			<rect id="SVGID_55_" x="3" y="81.3" width="8.2" height="5.5"/>
		</defs>
		<clipPath id="SVGID_56_">
			<use xlink:href="#SVGID_55_"  style="overflow:visible;"/>
		</clipPath>
		<g class="st40">
			<text transform="matrix(1 0 0 1 4.6586 84.8051)" class="st9 st10 st24">[ 24 ]</text>
		</g>
	</g>
	<g>
		<defs>
			<rect id="SVGID_57_" x="80.5" y="6.9" width="3.8" height="5.3"/>
		</defs>
		<clipPath id="SVGID_58_">
			<use xlink:href="#SVGID_57_"  style="overflow:visible;"/>
		</clipPath>
		<g class="st41">
			<defs>
				<rect id="SVGID_59_" x="80.9" y="7.3" width="3" height="4.5"/>
			</defs>
			<clipPath id="SVGID_60_">
				<use xlink:href="#SVGID_59_"  style="overflow:visible;"/>
			</clipPath>
			<g transform="matrix(-1.885356e-03 0 0 1.885356e-03 83.9384 7.2924)" style="clip-path:url(#SVGID_60_);">
				
					<image style="overflow:visible;" width="1602" height="2400" xlink:href="D6575C7D.png"  transform="matrix(-1.885356e-03 0 0 1.885356e-03 83.9384 7.2924)">
				</image>
			</g>
		</g>
	</g>
	<g>
		<defs>
			<rect id="SVGID_61_" x="3" y="30.5" width="2.1" height="17.7"/>
		</defs>
		<clipPath id="SVGID_62_">
			<use xlink:href="#SVGID_61_"  style="overflow:visible;"/>
		</clipPath>
		<path class="st42" d="M4,30.8c0.1,0,0.2,0,0.2,0c0.2,0.1,0.3,0.2,0.4,0.4c0,0.1,0,0.3,0,0.6v14.9c0,0.3,0,0.5,0,0.6
			c-0.1,0.2-0.2,0.3-0.4,0.4c-0.1,0-0.1,0-0.2,0c-0.1,0-0.2,0-0.2,0c-0.2-0.1-0.3-0.2-0.4-0.4c0-0.1,0-0.3,0-0.6V31.8
			c0-0.3,0-0.5,0-0.6c0.1-0.2,0.2-0.3,0.4-0.4C3.9,30.8,4,30.8,4,30.8z"/>
	</g>
	<g>
		<defs>
			<rect id="SVGID_63_" x="3" y="48.5" width="2.1" height="4.2"/>
		</defs>
		<clipPath id="SVGID_64_">
			<use xlink:href="#SVGID_63_"  style="overflow:visible;"/>
		</clipPath>
		<path class="st43" d="M4,48.9c0.1,0,0.2,0,0.2,0c0.2,0.1,0.3,0.2,0.4,0.4c0,0.1,0,0.3,0,0.6v1.5c0,0.3,0,0.4,0,0.6
			c-0.1,0.2-0.2,0.3-0.4,0.4c-0.1,0-0.2,0-0.2,0c-0.1,0-0.2,0-0.2,0c-0.2-0.1-0.3-0.2-0.4-0.4c0-0.1,0-0.3,0-0.6v-1.5
			c0-0.3,0-0.4,0-0.6c0.1-0.2,0.2-0.3,0.4-0.4C3.9,48.9,4,48.9,4,48.9z"/>
	</g>
	<path class="st44" d="M101.8,54.2H82.6c-0.2,0-0.5-0.2-0.5-0.5v-7.3c0-0.2,0.2-0.5,0.5-0.5h19.2c0.2,0,0.5,0.2,0.5,0.5v7.3
		C102.2,54,102,54.2,101.8,54.2z"/>
	<g>
		<defs>
			<rect id="SVGID_65_" x="88.2" y="26.7" width="8.9" height="21.8"/>
		</defs>
		<clipPath id="SVGID_66_">
			<use xlink:href="#SVGID_65_"  style="overflow:visible;"/>
		</clipPath>
		<path class="st45" d="M90.4,33c0.1,0,0.1,0,0.1,0.1c0.1,0.3,0.1,0.6,0.1,1c0.1,0.6,0.2,1.2,0.1,1.6c0,0.2,0,0.3,0,0.4
			c0,0-0.2,0.2-0.3,0.2c-0.1,0-0.2,0.1-0.3,0.1c-0.1-0.3-0.5-1.8-0.6-2c0-0.1,0-0.3,0-0.4c0,0,0-0.1,0-0.1
			C89.9,33.6,90.2,33.2,90.4,33C90.4,33,90.4,33,90.4,33z M94.6,33c0.1,0,0.1,0.1,0.1,0.1c0.4,0.4,0.7,0.7,0.7,0.8
			c0,0.2,0,0.5,0,0.5S95.1,35.9,95,36c-0.1,0.1-0.5-0.2-0.7-0.1c0-0.3,0-0.5,0-1c0-0.6,0.1-1.5,0.2-1.7C94.5,33,94.6,32.9,94.6,33z
			 M92.4,27.1c-0.2,0-0.5,0.1-0.7,0.3c-0.4,0.4-0.3,1.1-0.3,1.1s-0.1,0-0.1,0.4c0.1,0.2,0,0.3,0.2,0.4c0,0.3,0.2,0.3,0.2,0.8
			c0,0-0.1,0-0.2,0.1c0,0,0,0.2-0.1,0.2c-0.4,0.2-1.2,0.4-1.4,0.6c-0.3,0.3-1.5,2.6-1.5,2.8c0,0.3,0,0.6,0,0.7
			c0.3,0.7,0.7,2,1.2,2.5c0.1,0.1,0.2,0.2,0.3,0.2c0.2,0.1,0.4,0.2,0.4,0.3c-0.1,0.9-0.2,2.9-0.2,3.9c-0.1,0.6-0.1,1.4-0.1,1.8
			c-0.1,0.8-0.1,1.7-0.3,2.7c-0.1,0.4-0.3,1-0.2,1c-0.2,0.4-0.8,0.6-1.1,0.7c-0.1,0-0.2,0.1-0.2,0.2l0,0.1c0,0.1,0.1,0.1,0.1,0.1
			c0.2,0,0.7,0.1,1.1,0c0.4-0.2,1-0.1,1.4-0.1c0.1,0,0.1-0.5,0.1-0.7c0-0.1,0-0.1,0-0.1l0,0c0.2,0,0.4-2.5,0.6-4.4
			c0.1-0.8,0.5-2.7,0.6-3.3c0-0.1,0.1-0.1,0.1,0c0.1,0.5,0.2,1.5,0.3,2.2c0,0.2,0.1,0.8,0.1,1.2c0,1.2-0.1,3.8,0.1,4.1
			c0,0,0,0.5-0.2,0.9c-0.2,0.5,0.9,0.5,1.2,0.3c0.4-0.2,0.2-0.7,0.2-0.9c0-0.2,0.1-0.2,0.2-0.5c0.1-1.1,0-2.5,0-3.6
			c0-0.4,0.1-1.1,0.1-2c0-1,0-1.9-0.1-2.7c0-0.6,0.1-0.6,0-1.4c0.6,0.1,0.7,0,0.9-0.2c0.5-0.7,1.1-2.2,1.2-2.4
			c0.2,0,0.2-0.5,0.1-0.8c0-0.1-0.1-0.1-0.2-0.1c-0.2-0.6-1.2-2-1.4-2.3c-0.1-0.3-1.1-0.5-1.5-0.6c-0.1,0-0.1-0.1-0.1-0.1
			c0,0,0,0,0-0.1C93.4,30,93.2,30,93.2,30c0-0.1,0-0.3,0-0.4c0.1-0.1,0.1-0.3,0.2-0.4c0.1,0,0.1,0,0.2-0.3c0-0.1,0.1-0.4,0-0.5
			c0-0.2,0.2-1-0.3-1.2c-0.1,0-0.1-0.1-0.2-0.1C92.9,27.1,92.6,27,92.4,27.1z"/>
	</g>
	<g>
		<defs>
			<rect id="SVGID_67_" x="82.9" y="47.2" width="19.3" height="6.6"/>
		</defs>
		<clipPath id="SVGID_68_">
			<use xlink:href="#SVGID_67_"  style="overflow:visible;"/>
		</clipPath>
		<g class="st46">
			<text transform="matrix(1 0 0 1 84.2104 51.8588)" class="st9 st10 st47">Developer</text>
		</g>
	</g>
</g>
</svg>
