<?xml version="1.0" encoding="utf-8"?>
<!-- Generator: Adobe Illustrator 24.3.0, SVG Export Plug-In . SVG Version: 6.00 Build 0)  -->
<svg version="1.1" id="Layer_1" xmlns="http://www.w3.org/2000/svg" xmlns:xlink="http://www.w3.org/1999/xlink" x="0px" y="0px"
	 viewBox="0 0 117 22.5" style="enable-background:new 0 0 117 22.5;" xml:space="preserve">
<style type="text/css">
	.st0{fill:#010101;}
	.st1{fill:#5E5F5F;}
	.st2{font-family:'HelveticaNeue';}
	.st3{font-size:3.6974px;}
	.st4{fill:#D6D5D5;}
	.st5{clip-path:url(#SVGID_2_);}
	.st6{fill:#B42024;}
	.st7{font-family:'Courier';}
	.st8{font-size:2.9579px;}
	.st9{fill:#22B14B;}
	.st10{font-family:'Courier-Bold';}
</style>
<g>
	<path class="st0" d="M8.3,0C8.2,0,8.1,0,8,0.1c0,0,0,0-0.1,0c-0.1,0-0.2,0-0.2,0c-0.1,0.1-0.8,0.4-1,1.5c-0.1,0.6,0,0.7-0.1,1
		C6.5,2.9,6.4,3.1,6.4,3.5C6.5,3.7,6.7,4,6.7,4c-0.2,0.4-0.5,1.6-0.6,2C6,6.3,5.9,6.7,5.8,8c0,0.2,0,0.4-0.1,0.5
		c0,0.1-0.2,0.2-0.3,0.3c0,0.1-0.1,0.4-0.1,0.5c0,0.1,0,0.1,0,0.2c0,0,0,0,0,0.1c0,0,0,0,0,0c0,0,0,0.1,0.1,0.1c0.1,0,0.1,0,0.1,0.1
		c0.1,0.1,0.2,0.1,0.2,0.1c0-0.1,0.1-0.2,0.1-0.2c0,0,0-0.1,0,0c0,0.1,0.1,0.2,0.2,0.1c0,0,0,0,0-0.1c0-0.1,0.1-0.2,0.1-0.5
		c0.1-0.2,0-0.4,0-0.6c0-0.1,0.1-0.5,0.2-0.8c0.1-0.2,0.2-0.9,0.3-1.2C6.7,6.2,6.9,5.9,7,5.7c0,0.2,0.1,0.5,0,0.8
		C7,7.1,6.6,7.7,6.6,7.7l0,0.1c0,0.1-0.1,0.3-0.1,0.5c0,0.6,0.2,0.9,0.2,1c0,0.1-0.1,0.7-0.2,1.3c0,0.2,0,1.3-0.2,1.6
		c-0.1,0.3-0.3,0.4-0.6,1.2C5.5,14,5,15.6,4.9,15.6c0,0,0.1,0.1,0.1,0.1c0,0.1-0.2,0.2-0.2,0.3c-0.1,0.2-0.1,0.2-0.1,0.3
		c0,0.1,0,0.2,0.1,0.2c0.1,0,0.3,0.2,0.4,0.2c0.2,0,0.5,0.3,0.7,0.4c0.1,0.1,0.3,0.1,0.5,0.1c0.2,0,0.4,0,0.5,0
		c0.1,0,0.1-0.1,0.1-0.2c0-0.1-0.4-0.2-0.5-0.2c-0.1-0.1-0.3-0.4-0.5-0.5c-0.1-0.1-0.2-0.1-0.2-0.2c0,0,0-0.2,0-0.2c0,0,0,0,0.1,0
		c0,0,0.1-0.2,0.2-0.4c0.3-0.5,0.2-0.4,0.7-1.4c0.2-0.3,0.5-0.8,0.6-1.1c0.1-0.2,0.3-0.8,0.4-1c0.1-0.1,0.3-0.7,0.4-1.2
		c0-0.1,0,0,0.1,0.1c0,0.1,0.7,0.9,0.9,1.4c0.1,0.1,0.1,0.3,0.1,0.4c0.1,0.8,0.1,1.2,0.2,1.7c0.2,0.4,0.6,1.7,0.6,1.8
		c0,0,0,0.1,0.1,0.1c0.1,0,0.1,0,0.1,0c0,0,0,0.1,0,0.3c0,0.2,0,0.2,0,0.4c0,0.2,0.1,0.3,0.2,0.4c0,0,0.3,0,0.4,0
		c0,0,0.1-0.1,0.1-0.1c0.2,0,0.4,0,0.7-0.1c0.4-0.1,0.5-0.1,0.7-0.2c0.2-0.1,0.3-0.3,0.1-0.4c-0.1,0-0.2,0-0.4,0
		c-0.2,0-0.6-0.1-0.8-0.2c-0.1,0-0.1,0-0.1-0.1c0,0-0.1-0.1-0.1-0.1c0,0-0.1-0.1-0.1-0.2c0.1,0,0.1,0,0.1-0.1c0-0.1-0.4-2.2-0.5-3.2
		c0-0.1,0-0.3-0.1-0.4c0-0.3,0-0.5-0.1-0.7c-0.1-0.2-0.5-1.6-1-2.6C9.2,8.6,9,8.3,9,7.7c0-0.3,0-0.5,0.1-0.7c0-0.2,0.1-0.4,0.1-0.4
		s0,0.1,0.1,0.2C9.3,6.9,9.3,6.9,9.4,7c0.3,0.2,1.3,0.8,1.3,0.9c0,0.1,0.1,0.2,0.2,0.3c0.1,0.1,0.2,0.1,0.2,0.2
		c0,0.1,0.2,0.1,0.3,0.1c0.1,0,0.2-0.2,0.3-0.2c0,0,0.1-0.1,0.1-0.2c0-0.1,0-0.2-0.1-0.3c-0.1-0.1-0.2-0.2-0.3-0.2
		c-0.1,0-0.2,0-0.4-0.1c-0.1-0.1-0.2-0.1-0.3-0.3C9.9,6.4,9.6,6.2,9.5,6.1C9.5,6.1,9.4,6,9.3,5.8c0,0,0.1-0.4,0.1-0.6
		c0-0.1,0.1-0.3,0-0.4c0-0.1-0.1-0.2-0.1-0.3C9.2,4.3,9.1,4.1,8.9,3.9c0,0-0.1-0.2-0.2-0.3C8.6,3.5,8.6,3.3,8.5,3.2
		c0,0,0-0.1-0.1-0.1c0-0.1,0-0.2,0-0.3c0-0.2,0.1-0.2,0.1-0.3c0,0,0.1-0.1,0.2,0c0.1,0,0.2,0,0.3,0c0.1,0,0.1-0.2,0.1-0.2
		c0-0.1,0.1-0.1,0-0.2c0,0,0.1,0,0.1-0.1c0-0.1,0-0.2,0-0.2c0.1,0,0.1-0.1,0.1-0.2c0,0-0.1-0.1-0.1-0.1c0,0,0-0.1-0.1-0.1
		c0-0.1,0-0.3,0-0.4c0-0.3-0.1-0.3-0.1-0.5c0-0.1,0-0.1,0-0.1C9,0.1,8.8,0,8.5,0C8.5,0,8.4,0,8.3,0z"/>
	<text transform="matrix(1 0 0 1 -1.831055e-04 21.727)" class="st1 st2 st3">Consumer</text>
	<rect x="24" y="5.4" class="st4" width="93" height="15.2"/>
	<g>
		<defs>
			<rect id="SVGID_1_" x="24" y="5.4" width="93" height="15.2"/>
		</defs>
		<clipPath id="SVGID_2_">
			<use xlink:href="#SVGID_1_"  style="overflow:visible;"/>
		</clipPath>
		<g class="st5">
			<text transform="matrix(1 0 0 1 25.4583 9.811)" class="st6 st7 st8">$</text>
		</g>
		<g class="st5">
			<text transform="matrix(1 0 0 1 27.2342 9.811)" class="st0 st7 st8"> pip install github.com/alice/ballet-predict-</text>
		</g>
		<g class="st5">
			<text transform="matrix(1 0 0 1 107.1111 9.811)" class="st0 st7 st8">x</text>
		</g>
		<g class="st5">
			<text transform="matrix(1 0 0 1 25.4583 13.5082)" class="st0 st7 st8">&gt;&gt;&gt; from</text>
		</g>
		<g class="st5">
			<text transform="matrix(1 0 0 1 39.659 13.5082)" class="st9 st10 st8"> </text>
		</g>
		<g class="st5">
			<text transform="matrix(1 0 0 1 41.4334 13.5082)" class="st0 st7 st8">predict_x.api</text>
		</g>
		<g class="st5">
			<text transform="matrix(1 0 0 1 64.5096 13.5082)" class="st9 st10 st8"> </text>
		</g>
		<g class="st5">
			<text transform="matrix(1 0 0 1 66.285 13.5082)" class="st0 st7 st8">import</text>
		</g>
		<g class="st5">
			<text transform="matrix(1 0 0 1 76.9349 13.5082)" class="st9 st10 st8"> </text>
		</g>
		<g class="st5">
			<text transform="matrix(1 0 0 1 78.7108 13.5082)" class="st0 st7 st8">ap</text>
		</g>
		<g class="st5">
			<text transform="matrix(1 0 0 1 82.2601 13.5082)" class="st0 st7 st8">i</text>
		</g>
		<g class="st5">
			<text transform="matrix(1 0 0 1 25.4583 17.2055)" class="st0 st7 st8">&gt;&gt;&gt; features = api.pipeline.transform(X_new)</text>
		</g>
	</g>
</g>
</svg>
