<?xml version="1.0" encoding="utf-8"?>
<!-- Generator: Adobe Illustrator 24.3.0, SVG Export Plug-In . SVG Version: 6.00 Build 0)  -->
<svg version="1.1" id="Layer_1" xmlns="http://www.w3.org/2000/svg" xmlns:xlink="http://www.w3.org/1999/xlink" x="0px" y="0px"
	 viewBox="0 0 277.8 98.5" style="enable-background:new 0 0 277.8 98.5;" xml:space="preserve">
<style type="text/css">
	.st0{fill:#FADC36;}
	.st1{fill:#575757;}
	.st2{fill:#F3A154;}
	.st3{fill:#5699C9;}
	.st4{fill:#E46580;}
	.st5{fill:#F27726;}
	.st6{fill:#969696;}
	.st7{fill:#707071;}
</style>
<g>
	<g>
		<rect x="110.2" y="20.6" class="st0" width="57.3" height="57.3"/>
	</g>
	<g>
		<path class="st1" d="M129.2,33.6c0-1,0.5-1.5,1.5-1.5h1.4c0.9,0,1.4,0.5,1.4,1.5v9c0,0.3,0,0.6,0,0.8c0,0.2,0,0.4-0.1,0.6
			c0,0.2,0,0.4,0,0.5h0.1c0.4-0.8,1-1.4,1.6-2c0.6-0.5,1.3-1,2.3-1.4c0.9-0.4,2.1-0.7,3.4-0.7c1.5,0,2.8,0.3,4,0.9
			c1.2,0.6,2.2,1.4,3.1,2.4s1.5,2.2,2,3.7c0.5,1.4,0.7,3,0.7,4.7c0,1.8-0.2,3.4-0.7,4.8c-0.5,1.4-1.2,2.7-2.1,3.7
			c-0.9,1-2,1.8-3.2,2.4c-1.2,0.6-2.6,0.8-4,0.8c-1.3,0-2.4-0.2-3.3-0.7c-0.9-0.4-1.6-0.9-2.2-1.5c-0.7-0.6-1.2-1.3-1.6-2.1h-0.1
			c0,0.1,0,0.2,0,0.4c0.1,0.3,0.1,0.6,0.1,1V62c0,0.9-0.5,1.3-1.5,1.3h-1.1c-1,0-1.5-0.5-1.5-1.5V33.6z M133.4,52.1c0,1,0.1,2,0.4,3
			s0.7,1.8,1.2,2.5c0.5,0.7,1.2,1.3,1.9,1.8c0.8,0.4,1.7,0.7,2.8,0.7c0.9,0,1.7-0.2,2.5-0.5c0.8-0.4,1.5-0.9,2.1-1.5
			s1.1-1.5,1.4-2.5c0.3-1,0.5-2.1,0.5-3.4c0-1.2-0.2-2.3-0.5-3.3c-0.3-1-0.7-1.8-1.3-2.5c-0.6-0.7-1.2-1.2-2-1.6
			c-0.8-0.4-1.6-0.6-2.5-0.6c-0.9,0-1.7,0.2-2.4,0.5c-0.8,0.3-1.4,0.8-2.1,1.4c-0.6,0.6-1.1,1.5-1.4,2.5
			C133.5,49.6,133.4,50.8,133.4,52.1z"/>
	</g>
</g>
<g>
	<g>
		<circle class="st0" cx="56.4" cy="23.3" r="23.3"/>
	</g>
	<g>
		<g>
			<path class="st2" d="M58.2,25.1c-4.5,0-8.2-3.7-8.2-8.2s3.7-8.2,8.2-8.2s8.2,3.7,8.2,8.2S62.7,25.1,58.2,25.1z M58.2,12
				c-2.7,0-4.9,2.2-4.9,4.9s2.2,4.9,4.9,4.9s4.9-2.2,4.9-4.9S60.9,12,58.2,12z"/>
		</g>
		<g>
			<path class="st3" d="M58.2,37.9c-4.5,0-8.2-3.7-8.2-8.2c0-4.5,3.7-8.2,8.2-8.2c4.5,0,8.2,3.7,8.2,8.2
				C66.4,34.2,62.7,37.9,58.2,37.9z M58.2,24.8c-2.7,0-4.9,2.2-4.9,4.9c0,2.7,2.2,4.9,4.9,4.9c2.7,0,4.9-2.2,4.9-4.9
				C63.1,27,60.9,24.8,58.2,24.8z"/>
		</g>
		<g>
			<path class="st4" d="M51.8,31.6c-4.5,0-8.2-3.7-8.2-8.2c0-4.5,3.7-8.2,8.2-8.2c4.5,0,8.2,3.7,8.2,8.2
				C60,27.9,56.3,31.6,51.8,31.6z M51.8,18.5c-2.7,0-4.9,2.2-4.9,4.9c0,2.7,2.2,4.9,4.9,4.9c2.7,0,4.9-2.2,4.9-4.9
				C56.7,20.7,54.5,18.5,51.8,18.5z"/>
		</g>
		<g>
			<path class="st3" d="M62.4,27.2c-1.3-2.3-4.3-3.1-6.7-1.8c-0.6,0.3-1.1,0.8-1.5,1.3l-2.7-2c0.7-0.9,1.5-1.7,2.5-2.2
				c3.9-2.3,9-0.9,11.2,3L62.4,27.2z"/>
		</g>
		<g>
			<path class="st2" d="M51.1,21c-1.1-1.9-1.4-4.1-0.8-6.2c0.6-2.1,1.9-3.9,3.8-5C56,8.7,58.2,8.4,60.3,9c2.1,0.6,3.9,1.9,5,3.8
				l-2.9,1.7c-0.7-1.1-1.7-1.9-3-2.3c-1.3-0.3-2.6-0.2-3.7,0.5c-1.1,0.7-1.9,1.7-2.3,3c-0.3,1.3-0.2,2.6,0.5,3.7L51.1,21z"/>
		</g>
	</g>
</g>
<g>
	<circle class="st0" cx="23.3" cy="75.2" r="23.3"/>
</g>
<g>
	<g>
		<path class="st1" d="M15.7,64.5c0,1.7,1.4,3.1,3.1,3.1c1.7,0,3.1-1.4,3.1-3.1c0-1.7-1.4-3.1-3.1-3.1
			C17.1,61.4,15.7,62.8,15.7,64.5z M18.8,63c0.8,0,1.5,0.7,1.5,1.5c0,0.8-0.7,1.5-1.5,1.5s-1.5-0.7-1.5-1.5
			C17.3,63.7,17.9,63,18.8,63z"/>
	</g>
	<g>
		<path class="st1" d="M27.8,61.4c-1.7,0-3.1,1.4-3.1,3.1c0,1.7,1.4,3.1,3.1,3.1c1.7,0,3.1-1.4,3.1-3.1
			C30.9,62.8,29.5,61.4,27.8,61.4z M27.8,66c-0.8,0-1.5-0.7-1.5-1.5c0-0.8,0.7-1.5,1.5-1.5c0.8,0,1.5,0.7,1.5,1.5
			C29.3,65.4,28.7,66,27.8,66z"/>
	</g>
	<g>
		<path class="st1" d="M17.4,70.7c0-1.7-1.4-3.1-3.1-3.1c-1.7,0-3.1,1.4-3.1,3.1s1.4,3.1,3.1,3.1C16,73.8,17.4,72.4,17.4,70.7z
			 M12.8,70.7c0-0.8,0.7-1.5,1.5-1.5s1.5,0.7,1.5,1.5c0,0.8-0.7,1.5-1.5,1.5S12.8,71.5,12.8,70.7z"/>
	</g>
	<g>
		<path class="st1" d="M17.1,86.2v-2.7c0.7-0.3,1.2-1,1.2-1.8v-4.1c0-1.7-1.4-3.1-3.1-3.1h-2c-1.7,0-3.1,1.4-3.1,3.1v4.1
			c0,0.8,0.5,1.5,1.2,1.8v2.7c0,1.1,0.9,1.9,1.9,1.9h1.9C16.3,88.2,17.1,87.3,17.1,86.2z M13,86.2v-4.2h-0.9c-0.2,0-0.3-0.1-0.3-0.3
			v-4.1c0-0.8,0.7-1.5,1.5-1.5h2c0.8,0,1.5,0.7,1.5,1.5v4.1c0,0.2-0.1,0.3-0.3,0.3h-0.9v4.2c0,0.2-0.1,0.3-0.3,0.3h-1.9
			C13.2,86.6,13,86.4,13,86.2z"/>
	</g>
	<g>
		<path class="st1" d="M26.4,70.7c0-1.7-1.4-3.1-3.1-3.1s-3.1,1.4-3.1,3.1s1.4,3.1,3.1,3.1S26.4,72.4,26.4,70.7z M21.8,70.7
			c0-0.8,0.7-1.5,1.5-1.5s1.5,0.7,1.5,1.5c0,0.8-0.7,1.5-1.5,1.5S21.8,71.5,21.8,70.7z"/>
	</g>
	<g>
		<path class="st1" d="M19.2,77.7v4.1c0,0.8,0.5,1.5,1.2,1.8v2.7c0,1.1,0.9,1.9,1.9,1.9h1.9c1.1,0,1.9-0.9,1.9-1.9v-2.7
			c0.7-0.3,1.2-1,1.2-1.8v-4.1c0-1.7-1.4-3.1-3.1-3.1h-2C20.6,74.5,19.2,75.9,19.2,77.7z M20.8,77.7c0-0.8,0.7-1.5,1.5-1.5h2
			c0.8,0,1.5,0.7,1.5,1.5v4.1c0,0.2-0.1,0.3-0.3,0.3h-0.9v4.2c0,0.2-0.1,0.3-0.3,0.3h-1.9c-0.2,0-0.3-0.1-0.3-0.3v-4.2h-0.9
			c-0.2,0-0.3-0.1-0.3-0.3L20.8,77.7z"/>
	</g>
	<g>
		<path class="st1" d="M35.5,70.7c0-1.7-1.4-3.1-3.1-3.1c-1.7,0-3.1,1.4-3.1,3.1s1.4,3.1,3.1,3.1C34.1,73.8,35.5,72.4,35.5,70.7z
			 M30.8,70.7c0-0.8,0.7-1.5,1.5-1.5c0.8,0,1.5,0.7,1.5,1.5c0,0.8-0.7,1.5-1.5,1.5C31.5,72.2,30.8,71.5,30.8,70.7z"/>
	</g>
	<g>
		<path class="st1" d="M28.2,77.7v4.1c0,0.8,0.5,1.5,1.2,1.8v2.7c0,1.1,0.9,1.9,1.9,1.9h1.9c1.1,0,1.9-0.9,1.9-1.9v-2.7
			c0.7-0.3,1.2-1,1.2-1.8v-4.1c0-1.7-1.4-3.1-3.1-3.1h-2C29.6,74.5,28.2,75.9,28.2,77.7z M29.8,77.7c0-0.8,0.7-1.5,1.5-1.5h2
			c0.8,0,1.5,0.7,1.5,1.5v4.1c0,0.2-0.1,0.3-0.3,0.3h-0.9v4.2c0,0.2-0.1,0.3-0.3,0.3h-1.9c-0.2,0-0.3-0.1-0.3-0.3v-4.2h-0.9
			c-0.2,0-0.3-0.1-0.3-0.3L29.8,77.7L29.8,77.7z"/>
	</g>
</g>
<g>
	<circle class="st0" cx="221.4" cy="23.3" r="23.3"/>
</g>
<g>
	<g>
		<g>
			<path class="st1" d="M234.1,16c-1.3-2.3-4.3-2.7-6.9-2.5c-1.4-2.9-3.4-4.8-5.7-4.8s-4.3,1.8-5.7,4.8c-2.6-0.2-5.6,0.3-6.9,2.5
				c-1.1,2-0.6,4.6,1.3,7.3c-1.8,2.7-2.4,5.3-1.3,7.3c1.3,2.3,4.3,2.7,6.9,2.5c1.4,2.9,3.4,4.8,5.7,4.8s4.3-1.8,5.7-4.8
				c2.6,0.2,5.6-0.3,6.9-2.5c1.1-2,0.6-4.6-1.3-7.3C234.6,20.6,235.2,18,234.1,16z M221.4,9.9c1.7,0,3.2,1.4,4.4,3.7
				c-1.4,0.2-2.9,0.7-4.4,1.2c-1.5-0.6-3-1-4.4-1.2C218.2,11.4,219.8,9.9,221.4,9.9z M227.6,26.9c-1.9,1.5-3.9,2.6-6.2,3.6
				c-2.3-1-4.3-2.1-6.2-3.6c-0.3-2.3-0.3-4.8,0-7.1c1.8-1.4,3.8-2.6,6.2-3.6c2.3,1,4.3,2.1,6.2,3.6
				C227.9,22.1,227.9,24.5,227.6,26.9z M229,20.9c0.9,0.8,1.6,1.6,2.3,2.4c-0.6,0.8-1.4,1.6-2.3,2.4C229.1,24.2,229.1,22.5,229,20.9
				z M227.3,28.6c-0.2,1.2-0.6,2.2-1,3.2c-1-0.1-2.1-0.4-3.3-0.8c0.7-0.3,1.5-0.7,2.2-1.1C226,29.5,226.7,29.1,227.3,28.6z
				 M219.8,31c-1.1,0.4-2.2,0.6-3.3,0.8c-0.4-1-0.7-2-1-3.2C217,29.6,218.3,30.4,219.8,31z M213.9,25.7c-0.9-0.8-1.6-1.6-2.3-2.4
				c0.6-0.8,1.4-1.6,2.3-2.4C213.8,22.5,213.8,24.1,213.9,25.7z M215.6,18c0.2-1.2,0.6-2.2,1-3.2c1,0.1,2.1,0.4,3.3,0.8
				C218.4,16.2,217.1,17,215.6,18z M223.1,15.6c1.1-0.4,2.2-0.6,3.3-0.8c0.4,1,0.7,2,1,3.2C225.8,17,224.5,16.2,223.1,15.6z
				 M209.8,16.6c1-1.7,3.4-2,5.4-1.9c-0.5,1.3-0.9,2.8-1.1,4.4c-1.3,1-2.4,2.1-3.2,3.2C209.5,20.1,209,18.1,209.8,16.6z M209.8,30
				c-0.8-1.4-0.4-3.5,1-5.6c0.9,1.1,2,2.2,3.2,3.2c0.2,1.6,0.6,3.1,1.1,4.4C213.2,32,210.8,31.7,209.8,30z M221.4,36.7
				c-1.7,0-3.2-1.4-4.4-3.7c1.4-0.2,2.9-0.7,4.4-1.2c1.5,0.6,3,1,4.4,1.2C224.7,35.3,223.1,36.7,221.4,36.7z M233,30
				c-1,1.7-3.4,2-5.4,1.9c0.5-1.3,0.9-2.8,1.1-4.4c1.3-1,2.4-2.1,3.2-3.2C233.4,26.5,233.9,28.5,233,30z M232,22.2
				c-0.9-1.1-2-2.2-3.2-3.2c-0.2-1.6-0.6-3.1-1.1-4.4c0.2,0,0.4,0,0.6,0c2.3,0,4,0.7,4.7,2C233.9,18.1,233.4,20.1,232,22.2z"/>
		</g>
	</g>
	<g transform="translate(0,-952.36218)">
		<g>
			<path class="st1" d="M221.4,971.7c-0.8,0-1.6,0.2-2.2,0.4s-1,0.7-1,1.2v4.8c0,0.5,0.4,0.9,1,1.2c0.6,0.3,1.3,0.4,2.2,0.4
				s1.6-0.2,2.2-0.4s1-0.7,1-1.2v-4.8c0-0.5-0.4-0.9-1-1.2S222.3,971.7,221.4,971.7z M221.4,972c0.8,0,1.5,0.2,2,0.4
				c0.5,0.2,0.8,0.6,0.8,0.8c0,0.3-0.3,0.6-0.8,0.8c-0.5,0.2-1.2,0.4-2,0.4c-0.8,0-1.5-0.2-2-0.4s-0.8-0.6-0.8-0.8
				c0-0.3,0.3-0.6,0.8-0.8C219.9,972.2,220.6,972,221.4,972z M218.7,974c0.2,0.2,0.4,0.3,0.6,0.4c0.6,0.3,1.3,0.4,2.2,0.4
				s1.6-0.2,2.2-0.4c0.2-0.1,0.4-0.3,0.6-0.4v0.8c0,0.3-0.3,0.6-0.8,0.8c-0.5,0.2-1.2,0.4-2,0.4c-0.8,0-1.5-0.2-2-0.4
				s-0.8-0.6-0.8-0.8V974z M218.7,975.6c0.2,0.2,0.4,0.3,0.6,0.4c0.6,0.3,1.3,0.4,2.2,0.4s1.6-0.2,2.2-0.4c0.2-0.1,0.4-0.3,0.6-0.4
				v0.8c0,0.3-0.3,0.6-0.8,0.8c-0.5,0.2-1.2,0.4-2,0.4c-0.8,0-1.5-0.2-2-0.4c-0.5-0.2-0.8-0.6-0.8-0.8V975.6z M218.7,977.2
				c0.2,0.2,0.4,0.3,0.6,0.4c0.6,0.3,1.3,0.4,2.2,0.4s1.6-0.2,2.2-0.4c0.2-0.1,0.4-0.3,0.6-0.4v0.8c0,0.3-0.3,0.6-0.8,0.8
				c-0.5,0.2-1.2,0.4-2,0.4c-0.8,0-1.5-0.2-2-0.4c-0.5-0.2-0.8-0.6-0.8-0.8V977.2z"/>
			<path class="st1" d="M221.4,979.9c-0.8,0-1.6-0.2-2.3-0.5c-0.7-0.3-1.1-0.8-1.1-1.4v-4.8c0-0.5,0.4-1,1.1-1.4
				c1.2-0.6,3.3-0.6,4.5,0c0.7,0.3,1.1,0.8,1.1,1.4v4.8c0,0.5-0.4,1-1.1,1.4C223.1,979.7,222.3,979.9,221.4,979.9z M218.9,977.7v0.4
				c0,0.2,0.2,0.4,0.6,0.6c1,0.5,2.8,0.5,3.8,0c0.4-0.2,0.6-0.4,0.6-0.6v-0.4c-0.1,0.1-0.2,0.1-0.3,0.2c-1.2,0.6-3.3,0.6-4.5,0
				C219.1,977.8,219,977.7,218.9,977.7z M218.9,976.1v0.4c0,0.2,0.2,0.4,0.6,0.6c1,0.5,2.8,0.5,3.8,0c0.4-0.2,0.6-0.4,0.6-0.6v-0.4
				c-0.1,0.1-0.2,0.1-0.3,0.2c-1.2,0.6-3.3,0.6-4.5,0C219.1,976.2,219,976.1,218.9,976.1z M218.9,974.5v0.4c0,0.2,0.2,0.4,0.6,0.6
				c1,0.5,2.8,0.5,3.8,0c0.4-0.2,0.6-0.4,0.6-0.6v-0.4c-0.1,0.1-0.2,0.1-0.3,0.2c-1.2,0.6-3.3,0.6-4.5,0
				C219.1,974.6,219,974.5,218.9,974.5z M221.4,972.2c-0.7,0-1.4,0.1-1.9,0.4c-0.4,0.2-0.6,0.4-0.6,0.6c0,0.2,0.2,0.4,0.6,0.6
				c1,0.5,2.8,0.5,3.8,0c0.4-0.2,0.6-0.4,0.6-0.6c0-0.2-0.2-0.5-0.6-0.6C222.8,972.4,222.1,972.2,221.4,972.2z"/>
		</g>
	</g>
</g>
<g>
	<circle class="st0" cx="254.5" cy="75.2" r="23.3"/>
</g>
<g>
	<path class="st5" d="M254.9,82.5c-4.5,0-8.3-1.6-10.4-4c0.8,2.2,2.2,4,4,5.4c1.9,1.3,4.1,2,6.4,2c2.3,0,4.5-0.7,6.4-2
		c1.9-1.3,3.3-3.2,4-5.4C263.2,80.8,259.3,82.5,254.9,82.5z"/>
	<path class="st5" d="M254.9,66.8c4.5,0,8.3,1.6,10.4,4c-0.8-2.2-2.2-4-4-5.4c-1.9-1.3-4.1-2-6.4-2c-2.3,0-4.5,0.7-6.4,2
		c-1.9,1.3-3.3,3.2-4,5.4C246.5,68.4,250.4,66.8,254.9,66.8z"/>
</g>
<path class="st6" d="M248.8,87.2c0,0.4-0.1,0.8-0.3,1.2c-0.2,0.4-0.5,0.6-0.9,0.8c-0.4,0.2-0.8,0.2-1.2,0.2
	c-0.4-0.1-0.8-0.3-1.1-0.5c-0.3-0.3-0.5-0.7-0.6-1.1c-0.1-0.4-0.1-0.8,0.1-1.2c0.1-0.4,0.4-0.7,0.7-1c0.3-0.2,0.7-0.4,1.2-0.4
	c0.6,0,1.1,0.2,1.5,0.6C248.5,86.1,248.8,86.6,248.8,87.2L248.8,87.2z"/>
<g>
	<path class="st7" d="M264.1,61.5c-0.3-0.3-0.8-0.5-1.2-0.4c-0.3,0-0.6,0.1-0.9,0.3s-0.5,0.5-0.6,0.8c-0.1,0.3-0.1,0.7-0.1,1
		c0.1,0.3,0.3,0.6,0.5,0.8c0.2,0.2,0.5,0.4,0.9,0.4s0.7,0,1-0.1c0.3-0.1,0.6-0.4,0.7-0.7c0.2-0.3,0.3-0.6,0.2-0.9
		C264.6,62.2,264.4,61.8,264.1,61.5z"/>
	<path class="st7" d="M245.4,63.8c-0.2-0.1-0.5-0.1-0.7,0c-0.2,0.1-0.5,0.2-0.6,0.4c-0.2,0.2-0.3,0.4-0.3,0.7s0,0.5,0.1,0.7
		c0.1,0.2,0.3,0.4,0.5,0.5c0.2,0.1,0.5,0.2,0.7,0.2c0.3,0,0.6-0.2,0.9-0.4s0.3-0.6,0.3-0.9c0-0.2-0.1-0.5-0.2-0.7
		S245.6,63.9,245.4,63.8z"/>
</g>
<g>
	<polygon class="st0" points="110.2,44.1 89,44.1 89,24.4 79.7,24.4 79.7,22.2 91.2,22.2 91.2,41.9 110.2,41.9 	"/>
</g>
<g>
	<polygon class="st0" points="81.2,75.9 41.1,75.9 41.1,73.7 79,73.7 79,54 110.2,54 110.2,56.2 81.2,56.2 	"/>
</g>
<g>
	<polygon class="st0" points="188.1,44.1 166.9,44.1 166.9,41.9 185.8,41.9 185.8,22.2 201.4,22.2 201.4,24.4 188.1,24.4 	"/>
</g>
<g>
	<polygon class="st0" points="236,75.9 195.8,75.9 195.8,56.2 166.9,56.2 166.9,54 198.1,54 198.1,73.7 236,73.7 	"/>
</g>
</svg>
