<?xml version="1.0" encoding="utf-8"?>
<!-- Generator: Adobe Illustrator 24.3.0, SVG Export Plug-In . SVG Version: 6.00 Build 0)  -->
<svg version="1.1" id="Layer_1" xmlns="http://www.w3.org/2000/svg" xmlns:xlink="http://www.w3.org/1999/xlink" x="0px" y="0px"
	 viewBox="0 0 360 360" style="enable-background:new 0 0 360 360;" xml:space="preserve">
<style type="text/css">
	.st0{fill:#5C5E60;}
</style>
<g>
	<g>
		<g>
			<path class="st0" d="M359.7,307.7c0,6.6-5.2,11.8-11.8,11.8c-101,0-126-110.9-142.7-184.3l-0.2-0.4
				c-6.2-27.7-15.6-70.2-25.1-70.2h-0.3c-9.9,0-19.9,47.7-24.9,70.4l-0.1,0.4C138.1,208.7,113,319.5,12.1,319.5
				c-6.6,0-11.8-5.2-11.8-11.8c0-6.6,5.2-11.8,11.8-11.8c82.4,0,103.9-96.1,119.7-166.2l0.4-2c11-47.7,19.6-85.6,46.5-87.2
				c0.4,0,0.9-0.1,1.3-0.1c0.4,0,0.8,0,1.1,0c27,1.6,35.7,39.4,46.6,87.2l0.5,1.9c15.8,70.2,37.3,166.3,119.7,166.3
				C354.5,295.9,359.7,301.1,359.7,307.7z"/>
		</g>
	</g>
</g>
</svg>
