<?xml version="1.0" encoding="utf-8"?>
<!-- Generator: Adobe Illustrator 24.3.0, SVG Export Plug-In . SVG Version: 6.00 Build 0)  -->
<svg version="1.1" id="Layer_1" xmlns="http://www.w3.org/2000/svg" xmlns:xlink="http://www.w3.org/1999/xlink" x="0px" y="0px"
	 viewBox="0 0 360 360" style="enable-background:new 0 0 360 360;" xml:space="preserve">
<style type="text/css">
	.st0{fill:#801518;}
</style>
<g>
	<path class="st0" d="M72.6,233.6H0v-7.4h16.9v-92.6H0v-7.4h67.9c25.2,0,38.8,12.5,38.8,26.9c0,12-10.2,21.4-27.1,24.4
		c18.6,1.4,32.1,11.9,32.1,26.9C111.7,219.9,98.5,233.6,72.6,233.6z M65.8,133.7H37.4V175h24.4c15.2,0,22.7-9.7,22.7-21.7
		C84.5,146.1,81.6,133.7,65.8,133.7z M83.5,187.3c-5.3-6.7-12.7-6.7-15.8-6.7H37.4v45.7h28.8c22.5,0,22.5-20,22.5-21.9
		C88.7,202.7,88.7,193.9,83.5,187.3z"/>
	<path class="st0" d="M230.5,165.8c-1.6-17.8-3.1-30.3-25.5-30.3h-11.9v90.9h23.9v7.4c-8.4-0.5-25.8-0.5-35-0.5
		c-9.2,0-26.6,0-35,0.5v-7.4h23.9v-90.9h-12c-22.5,0-24.1,12.7-25.5,30.3H126l3.3-37.7h105.3l3.3,37.7H230.5z"/>
	<path class="st0" d="M320.9,233.6h-72.6v-7.4h16.9v-92.6h-16.9v-7.4h67.9c25.2,0,38.8,12.5,38.8,26.9c0,12-10.2,21.4-27.1,24.4
		c18.6,1.4,32.1,11.9,32.1,26.9C360,219.9,346.9,233.6,320.9,233.6z M314.2,133.7h-28.5V175h24.4c15.2,0,22.7-9.7,22.7-21.7
		C332.8,146.1,330,133.7,314.2,133.7z M331.9,187.3c-5.3-6.7-12.7-6.7-15.8-6.7h-30.3v45.7h28.8c22.5,0,22.5-20,22.5-21.9
		C337,202.7,337,193.9,331.9,187.3z"/>
</g>
</svg>
