<?xml version="1.0" encoding="utf-8"?>
<!-- Generator: Adobe Illustrator 24.3.0, SVG Export Plug-In . SVG Version: 6.00 Build 0)  -->
<svg version="1.1" id="Layer_1" xmlns="http://www.w3.org/2000/svg" xmlns:xlink="http://www.w3.org/1999/xlink" x="0px" y="0px"
	 viewBox="0 0 360 360" style="enable-background:new 0 0 360 360;" xml:space="preserve">
<style type="text/css">
	.st0{fill:#5A5B5B;stroke:#5A5B5B;stroke-width:1.9357;stroke-linecap:round;stroke-linejoin:round;stroke-miterlimit:10;}
</style>
<g>
	<g>
		<path class="st0" d="M352.7,169.2c-2.7-6.7-11.3-11.9-18.5-11.8c-0.8-5.9-3.2-10.5-9.4-9.9c-7.5,0.7-13.6,5.7-17,12.3
			c-1.4-0.8-3-1.2-5.2-0.9c-7.5,1.2-10.8,9.9-11.3,17c-8.7,2.2-2.9,19.8-1.1,25.6c0.5,1.5,1.7,2.3,2.9,2.4
			c-5.4,1.5-9.8,6.2-7.4,12.1c0.6,1.4,1.5,2.5,2.6,3.5c-1,0.1-1.9,0.2-2.9,0.4c-6.5,1.2-5,5.8-5.6,10.8c-5.3,3.4-6.4,10.4-2.8,15.4
			c-0.3,0.4-0.6,0.8-0.7,1.4c-1,3.5-0.7,5.8,0.3,9.3c0.3,1.2,2,2.1,2.1,3.2c0.3,2.3-1.6,6.5-2.3,8.5c-1.5,4.8-3.4,9.6-5.1,14.5
			c-0.5,0-1.1,0.1-1.7,0.5c-6.3,3.8-12.8,6.6-20.1,8.1c-3.1,0.6-18.3,3.5-21.2,0.5c-1-1-2.1-1.2-3.2-0.9c-1.7-1.8-3.8-3.2-6.3-4
			c0-0.2,0.1-0.3,0-0.5c-2.3-15-4.2-29.9-5.5-45c-0.6-7.7,0.3-17-3.9-23.9c-4.6-7.8-14.3-14.2-20.8-20.3
			c-10.6-10-21.2-20.1-31.9-30.1c-0.3-0.3-0.5-0.3-0.8-0.5c0.8-10.6,1.1-21.3,1.2-32c6.6,2.2,14.2,4.9,20.3,2.5
			c6.5-2.6,9.9-10.6,13.4-16.1c0.1-0.1,0.1-0.2,0.1-0.3c1.4,0.6,3,0.8,4.8,0.7c2.9-0.1,7.5-0.5,9.6-2.8c2.4-2.7,1.1-7.4,1.2-10.6
			c0.2-5.4,0.8-10.6,0.7-16c3-0.6,5.2-3,5.7-6.3c0.3-2.2-0.4-4.3-0.8-6.4c-0.4-2.2-0.5-4.4-0.3-6.5c6.5-2.1,13.6-3.9,16.3-11
			c2.3-5.9,0.3-12.4-3.9-17c-4-4.4-9.4-6.8-15.5-7.9c2.8-10.1-2.8-20.6-14.2-21.6c-7.5-0.6-16.6,2.5-23.9,4.4
			c-1.2,0.3-2.3,0.7-3.4,1c-3.6-8.1-8.3-13.9-18.1-14.6c-8.1-0.6-15.2,2.8-21.6,7.4c0.1-1,0.1-1.9-0.2-2.9c-2-8.6-15.6-5.9-22.6-3.6
			c-12.4-6.1-26.1,1.6-33,12.6C66,29,70.9,47,82.3,50.7c0,0.5,0,0.9,0.1,1.4c0.1,2.5,0.4,5,1.9,7.1c2.8,4,7.6,4.4,12.1,3.7
			c1.2,5.8-3.3,11.5-5.1,17.3c-1.5,4.9-1.7,9.7-1.1,14.8c0.5,4,1.1,8.6,3.7,11.9c0.8,1,8.4,6.5,9,4.9c-0.2,0.5-0.3,1-0.3,1.4
			c-6.6,13.7-19,34.5-34.9,34c-1.2-0.1-2.1,0.5-2.6,1.2c-12.6,1.9-19.7,11.3-24.7,23.5c-8.5,20.6-14.4,42.7-20.1,64.2
			c-1.2,4.3,5.5,6.1,6.6,1.9c5.4-20.2,15.2-82.8,42.7-83c1.1,0,1.9-0.5,2.5-1.1c0.8-0.1,1.5-0.3,2.2-0.5c0.1,1,0.6,1.8,1.7,2.3
			c34.1,14.5,16.5,56.5,6.3,81c-11,26.6-22.9,53-35.4,79c-1.9,4,4.1,7.5,6,3.5c1.7-3.4,3.3-6.9,5-10.3c0.9,2.8,1.9,5.5,2.6,8.6
			c1.9,8.8,1.2,17.5-3.5,25.4c-2.3,3.8,3.7,7.3,6,3.5c3.9-6.5,5.7-13.5,5.5-21c-0.3-9.2-5.5-17.3-5.7-26.3c0-0.1-0.1-0.2-0.1-0.3
			c12.8-27,25.4-54.3,35-82.4c6.6-19.2,8.2-43.6-5.7-58.2c8.9,3.2,16.3,8.1,25.2,14.2c10.4,7.2,22.6,10.5,32.6,18.2
			c9.5,7.4,19.2,18.9,30.5,8.1c0.1-0.1,0.1-0.1,0.1-0.2c8.4,7.3,18.6,15.2,22.9,24.6c4.6,10.3,3.6,23.5,4.8,34.6
			c1.1,10,2.5,20,4.1,29.9c-2.6-0.5-5.4-0.5-8.1,0.1c-10.3-4.3-21.7-2.5-30.5,4.8c-0.6,0.5-0.9,1.1-1,1.7
			c-5.5-1.4-11.2-2.1-16.8-0.1c-6.5,2.3-11.7,7.2-16.4,11.9c-0.6,0.6-0.8,1.2-0.9,1.9c-12.3,0.1-23.9,4.7-32.9,13.6
			c-6.8-0.6-13.4,1-19.8,3.7c-5.8,2.4-11.5,5.2-13.2,11.7c-1.1,4.3,5.6,6.2,6.6,1.9c1.3-5.2,8.5-7.2,12.9-8.6
			c4.2-1.4,8.3-2.1,12.5-1.7c0.8,0.6,1.9,0.9,2.9,0.5c0.6,0.1,1.2,0.2,1.7,0.3c3.4,1,5.2-2.8,3.7-5.2c8.8-7.3,20-10.6,31.6-8.9
			c4.3,0.6,6.1-5.7,2.1-6.6c3.2-3.2,6.7-6.2,10.9-7.7c6-2.2,12.1-0.3,17.9,1.5c3.4,1.1,5.2-3,3.6-5.4c5.4-4.2,12.1-5.5,18.5-4.1
			c0.5,2,2.7,3.8,5.2,2.6c0.3-0.1,0.5-0.1,0.8-0.3c0.1,0.1,0.2,0.1,0.3,0.1c1.8,1,3.5,0.3,4.5-1.1c3-0.1,5.9,0.8,8.3,2.9
			c1.7,1.5,3.7,1,5-0.3c2.1,3.5,0.6,8.5-1.9,12.4c-0.2-0.2-0.3-0.5-0.5-0.6c-2.3-1.7-4.9-2.8-7.7-3.2c-0.8-1.9-3.6-3.3-5.7-1.4
			c-7.8,6.8-17.9,9.6-28.1,7.7h-0.1c0.8-1.2,1.5-2.5,2.2-3.9c1.9-4-4.1-7.5-6-3.5c-4.6,9.7-13.5,16.3-24.1,17.7
			c-1.2-1-3.2-1.4-4.7-0.1c-6.8,5.7-14.6,9-23.1,10.1c-0.1-2.6-3.5-4.8-5.9-2.5c-1.2,1.2-2.5,2.1-3.7,3.2c-0.5,0.2-0.8,0.5-1,0.8
			c-6.4,4.9-13.7,8.3-21.7,9.9c-4.4,0.9-2.5,7.5,1.9,6.6c8.8-1.7,16.8-5.5,23.9-10.8c11.6,0.2,22.5-3.4,31.7-10.1
			c0.3,0.1,0.5,0.1,0.8,0.1c10.1-0.6,19.3-5.1,25.9-12.3c0.4,0.7,1.1,1.3,2.2,1.5c11.2,2.1,22-0.2,31.1-6.5c0.5,0.2,1,0.4,1.6,0.3
			c2.1-0.1,3.8,0.5,5.5,1.4c1.6,12.9,3.2,25.7,4.8,38.6c0.5,3.4,4.7,4.1,6.3,2.2c10.6,1.5,20.6-5.3,29-11.3
			c9.2-6.6,17.2-14.5,24.2-23.4c0.6-0.1,1.4-0.3,2-0.9c21.9-21.1,53.4-41.7,50.8-75.2c1.7-0.3,3.4-1.9,3.2-3.9
			c3.8-0.5,7.2-2.1,9.1-5.8c2.5-4.9-0.1-8.6-1.5-13.3c-2.6-8.1-0.6-8.3,2.8-14.4c1.1-1.9,2-3.8,2.4-6c0.5-3.2-0.3-6-1.8-8.5
			c1.8-3.8,3.6-7.7,5.4-11.5C352.4,176.6,354.3,173.2,352.7,169.2z M149.1,181.4c-9-5.8-19.1-8.9-28-14.8
			c-12.5-8.3-23-14.7-37.2-17.6c10.1-6.8,18-19.1,23.4-29.6c0-0.1,0.1-0.1,0.1-0.1c9.5-17.7,24.3-31.1,42.8-39.1
			c4.1-1.7,0.6-7.7-3.5-6c-16.1,6.9-29.5,18.1-39.4,32.2c-0.5-0.3-1-0.5-1.8-1.1c-5-4-7.8-4.9-8.5-11.7
			c-1.2-12.7,12.5-26.7,3.4-38.6c-2.1-2.7-6.2-1.2-6.6,1.3c-2.4,0.1-4.3-0.8-4.5-4.2c-0.3-3.9-0.2-7.9-0.3-11.9
			c-0.1-4.5-7-4.5-6.9,0c0,0.8,0.1,1.7,0.1,2.5c-6.3-4.7-6.8-16.9-2-22.5c5.2-6.1,13.2-11.2,21.2-7.7c0.6,1.2,1.9,2.1,3.7,1.4
			c3.6-1.3,7.2-2.2,11.1-2.3c5.9-0.2,4.6,4.1,2.5,8.2c-3.3,6.6-7.4,12.9-11,19.3c-2.2,3.9,3.7,7.4,6,3.5c3.5-6.1,7.1-12.1,10.5-18.3
			c0.1-0.1,0.1-0.2,0.1-0.3c0.5-0.1,1-0.3,1.5-0.7c11.6-9.1,27.6-17.4,35.4-0.5c-5.5,2.1-10.8,4.6-15.9,7.9c-3.7,2.5-0.3,8.5,3.5,6
			c7.5-4.9,15.6-8.1,24.2-10.5c7.2-1.9,35.5-8.3,29.3,9.7c-10.8-0.5-22.6,1.8-31.1,3.7c-4.3,1-2.5,7.6,1.9,6.6
			c9.2-2.1,18.7-3.4,28.1-2.9c5,0.3,10.5,0.6,14.8,3.2c7,3.5,6.8,9.4-0.5,17.6c-1.8,0.6-3.5,1.2-5.4,1.8c-1.8-0.8-4-0.3-4.5,2.1
			c-0.5,2.8-0.8,5.7-0.6,8.5c0.1,1,1.5,8.6,0.8,8.6c-0.8,0-1.4,0.3-1.9,0.6c-1.2-0.1-2.3,0.5-2.9,1.5c-1.5-0.6-3-1.1-4.7-1.3
			c-4.4-0.6-6.3,6-1.9,6.6c1.7,0.3,3.2,0.6,4.8,1.3c0.5,0.2,0.8,0.3,1.3,0.3c-0.1,4.5-0.6,9-0.8,13.5c-0.1,1.4-0.1,2.8,0,4.2
			c0.1,0.6-0.2,1.6-0.1,1.8c-2.1,1.4-6.5,0.3-7.9-1c-2.7-2.7-6.6,0.5-5.7,3.4c-0.4,0.3-0.8,0.6-1,1.1c-2.3,3.5-5.3,10.9-9.3,12.8
			c-4.6,2.3-12.9-1-18.5-2.9c0-1.4,0.1-2.8,0-4.2c-0.1-4.5-7-4.5-6.9,0c0.3,15.4-0.2,30.8-1.4,46.3c-0.2,2.5,1.8,3.5,3.7,3.2
			c7.5,7.1,15,14.2,22.6,21.3C168.1,200.5,154.7,185,149.1,181.4z M283,269.9c1.2-3.4,2.8-6.9,3-10.6c3,1.5,5.1,3.4,6.1,7.2
			c-1.4,0.1-2.6,0.8-3.2,2.4c-3.7,10.8-6.6,21.7-8.6,33c-2.2-0.5-4.4-1-6.6-1.6C275.1,290,279.7,279.8,283,269.9z M254.4,334.3
			c-7.3,5.7-19.2,15.5-29.1,13.3c-0.1,0-0.1,0-0.2,0c-1.2-9.9-2.5-19.8-3.7-29.7h0.1c5.2-4.6,9-11,8.1-18.2c0-0.1-0.1-0.2-0.1-0.3
			c5.4,1,12.4,0,16.5-0.6c7.9-1,15.4-3.6,22.5-7.3c-1.1,4.1-1.9,8.2-2.2,12.4c-0.2,3,2.8,3.9,4.9,2.9c3.1,0.9,6.3,1.7,9.4,2.3
			c-0.9,0.8-1.8,1.6-2.6,2.5c-1.1,0-2.2,0.3-3,1.4C269,321,262.2,328.1,254.4,334.3z M287,303.5c1.6-8.6,3.8-17.1,6.5-25.5
			c0.1,3.1,0.1,6.2,0,9.4c-0.2,4.5,6.8,4.5,6.9,0c0.3-8.4,0.2-17.6-2-25.7c-1.8-6.6-8.5-8.2-14.3-10.8c-0.5-0.2-1-0.3-1.4-0.3
			c0.1-0.5,0.1-0.9,0.3-1.5c2.3-0.9,3.4-4.5,0.6-6.3c-3.2-2.1-2.3-6.1,1.2-7.1c2.8-0.8,3-3.7,1.7-5.5c-0.1-1.3-0.1-2.6,0.1-3.1
			c0.8-1.4,4.8-1,6.6-1.1c5.8-0.4,11.7-0.8,17.5-1.2c4.5-0.3,4.5-7.2,0-6.9c-1.2,0.1-2.5,0.1-3.7,0.2c-0.3-0.1-0.6-0.3-1-0.3
			c-2.6-0.2-7.8-0.3-9.9-2.1c-2.6-0.3-2.8-1.4-0.4-3.2c0.4-1.9,1.4-2.7,2.8-2.3c3.8-1.2,13.2,0.6,15.4,3.1c3,3.3,4.8,9.7,6.7,13.6
			c1.8,3.7,3.7,7.4,5.5,11.2c-1.3,0.4-2.3,1.4-2,3.1C327.4,267.5,306,286.5,287,303.5z M344.8,176.8c-1.5,3.4-3.2,6.8-4.8,10.1
			c-3-0.3-5.7,3.4-2.9,5.7c0.1,0.1,0.1,0.1,0.2,0.2c0,0.1-0.1,0.1-0.1,0.2c-1.2,2.5,0.8,4.8,2.8,5.2c-0.1,4.8-5.7,9.6-6.6,14.6
			c-0.6,3.6,5.7,20-0.7,20.3c-0.5,0-0.9,0.1-1.3,0.3c-2.1-4.4-4.3-8.7-6.5-13.1c-2.1-4.3-4-11.4-7.8-14.5c-2.3-1.9-5.2-1.9-8.2-2.1
			c-4.5-0.3-9.5-1.1-14-0.5c1.4-0.6,2.3-2,1.7-3.8c-0.5-1.5-4.4-17.3-3.1-17c2.1,0.4,4.5-0.9,4.4-3.4c-0.2-3.4,0.5-13.1,5.4-11.9
			c0.6,0.1,1.1,0.5,1.5,1c0,0.1-0.1,0.3-0.1,0.5c-0.2,1.5,0.6,2.5,1.7,3c0.5,2.1,0.6,4.5,1,6.2c0.9,4.3,7.6,2.5,6.6-1.9
			c-0.6-2.6-1-6.3-2-9.5c1.4-5.4,5.7-10.6,11.2-11.7c1.9-0.4,2.4-0.4,3.2,1.4c0.8,1.7,0.5,4.7,0.6,6.5c0.1,4-0.2,8-0.9,12
			c-0.8,4.4,5.9,6.2,6.6,1.9c0.5-2.7,1.2-7.4,1.4-12.1c3.3,0.1,6.1,1.4,8.6,3.7C346.1,171,346.6,172.9,344.8,176.8z"/>
		<path class="st0" d="M190.9,221.4c3.2-3.2-1.7-8.1-4.9-4.9c-7,7-28.6-12.2-34.3-16.7c-3.4-2.8-8.4,2.1-4.9,4.9
			c8,6.5,16.7,12.8,25.8,17.8C178.8,225.8,185.6,226.7,190.9,221.4z"/>
	</g>
</g>
</svg>
