<?xml version="1.0" encoding="utf-8"?>
<!-- Generator: Adobe Illustrator 24.3.0, SVG Export Plug-In . SVG Version: 6.00 Build 0)  -->
<svg version="1.1" id="Layer_1" xmlns="http://www.w3.org/2000/svg" xmlns:xlink="http://www.w3.org/1999/xlink" x="0px" y="0px"
	 viewBox="0 0 360 360" style="enable-background:new 0 0 360 360;" xml:space="preserve">
<style type="text/css">
	.st0{fill:#1A315B;}
</style>
<g>
	<g>
		<g>
			<path class="st0" d="M180.1,90.5c23.4,0,42.5-19.1,42.5-42.5S203.5,5.4,180.1,5.4s-42.5,19.1-42.5,42.5S156.6,90.5,180.1,90.5z
				 M180.1,21.2c14.8,0,26.8,11.9,26.8,26.8s-11.9,26.8-26.8,26.8c-14.8,0-26.8-11.9-26.8-26.8S165.3,21.2,180.1,21.2z"/>
			<path class="st0" d="M180.1,96.1c-26.5,0-47.9-21.5-47.9-47.9s21.5-47.9,47.9-47.9S228,21.6,228,48.1
				C228.2,74.4,206.5,96.1,180.1,96.1z M180.1,11c-20.4,0-36.9,16.6-36.9,36.9c0,20.4,16.6,36.9,36.9,36.9S217,68.2,217,47.9
				C217.1,27.7,200.5,11,180.1,11z M180.1,80.3c-17.8,0-32.4-14.5-32.4-32.4s14.5-32.4,32.4-32.4s32.4,14.5,32.4,32.4
				S197.9,80.3,180.1,80.3z M180.1,26.8c-11.8,0-21.3,9.5-21.3,21.3s9.5,21.3,21.3,21.3c11.8,0,21.3-9.5,21.3-21.3
				S191.9,26.8,180.1,26.8z"/>
		</g>
		<g>
			<path class="st0" d="M312.1,90.5c23.4,0,42.5-19.1,42.5-42.5S335.6,5.4,312.1,5.4s-42.5,19.1-42.5,42.5S288.7,90.5,312.1,90.5z
				 M312.1,21.2c14.8,0,26.8,11.9,26.8,26.8s-11.9,26.8-26.8,26.8c-14.8,0-26.8-11.9-26.8-26.8S297.3,21.2,312.1,21.2z"/>
			<path class="st0" d="M312.1,96.1c-26.5,0-47.9-21.5-47.9-47.9s21.5-47.9,47.9-47.9c26.5,0,47.9,21.3,47.9,47.8
				S338.6,96.1,312.1,96.1z M312.1,11c-20.4,0-36.9,16.6-36.9,36.9c0,20.4,16.6,36.9,36.9,36.9c20.3,0,36.9-16.6,36.9-36.9
				C349.2,27.7,332.5,11,312.1,11z M312.1,80.3c-17.8,0-32.4-14.5-32.4-32.4s14.5-32.4,32.4-32.4c17.8,0,32.4,14.5,32.4,32.4
				S330,80.3,312.1,80.3z M312.1,26.8c-11.8,0-21.3,9.5-21.3,21.3s9.5,21.3,21.3,21.3c11.8,0,21.3-9.5,21.3-21.3
				S323.9,26.8,312.1,26.8z"/>
		</g>
		<g>
			<path class="st0" d="M312.1,137.5c-23.4,0-42.5,19.1-42.5,42.5s19.1,42.5,42.5,42.5s42.5-19.1,42.5-42.5S335.6,137.5,312.1,137.5
				z M312.1,206.8c-14.8,0-26.8-11.9-26.8-26.8s11.9-26.8,26.8-26.8c14.8,0,26.8,11.9,26.8,26.8
				C338.9,194.8,326.9,206.8,312.1,206.8z"/>
			<path class="st0" d="M312.1,228.1c-26.5,0-47.9-21.5-47.9-47.9s21.5-47.9,47.9-47.9c26.5,0,47.9,21.5,47.9,47.9
				C360.1,206.5,338.6,228.1,312.1,228.1z M312.1,143.1c-20.4,0-36.9,16.6-36.9,36.9c0,20.4,16.6,36.9,36.9,36.9
				c20.3,0,36.9-16.6,36.9-36.9C349.2,159.6,332.5,143.1,312.1,143.1z M312.1,212.4c-17.8,0-32.4-14.5-32.4-32.4
				s14.5-32.4,32.4-32.4c17.8,0,32.4,14.5,32.4,32.4S330,212.4,312.1,212.4z M312.1,158.7c-11.8,0-21.3,9.5-21.3,21.3
				s9.5,21.3,21.3,21.3c11.8,0,21.3-9.5,21.3-21.3C333.5,168.4,323.9,158.7,312.1,158.7z"/>
		</g>
		<g>
			<path class="st0" d="M48,269.5c-23.4,0-42.5,19.1-42.5,42.5s19.1,42.5,42.5,42.5s42.5-19.1,42.5-42.5S71.5,269.5,48,269.5z
				 M48,338.8c-14.8,0-26.8-11.9-26.8-26.8c0-14.8,11.9-26.8,26.8-26.8s26.8,11.9,26.8,26.8C74.8,326.9,62.8,338.8,48,338.8z"/>
			<path class="st0" d="M48,360c-26.5,0-47.9-21.5-47.9-47.9c0-26.5,21.5-47.9,47.9-47.9S96,285.6,96,312.1
				C96.1,338.5,74.5,360,48,360z M48,275.1c-20.4,0-36.9,16.6-36.9,36.9c0,20.4,16.6,36.9,36.9,36.9s36.9-16.6,36.9-36.9
				C85.1,291.6,68.4,275.1,48,275.1z M48,344.4c-17.8,0-32.4-14.5-32.4-32.4s14.5-32.4,32.4-32.4s32.4,14.5,32.4,32.4
				S65.9,344.4,48,344.4z M48,290.7c-11.8,0-21.3,9.5-21.3,21.3c0,11.8,9.5,21.3,21.3,21.3s21.3-9.5,21.3-21.3
				C69.4,300.3,59.8,290.7,48,290.7z"/>
		</g>
		<g>
			<path class="st0" d="M312.1,269.5c-20.7,0-38,15-41.7,34.6h-48.6c-3.2-17.1-16.8-30.7-33.9-33.9v-48.6
				c19.7-3.6,34.6-21,34.6-41.7c0-23.4-19.1-42.5-42.5-42.5c-20.7,0-38,15-41.7,34.6H89.8C86.6,155,73,141.4,55.9,138.3V89.7
				c19.7-3.6,34.6-21,34.6-41.7C90.5,24.5,71.5,5.4,48,5.4S5.5,24.5,5.5,47.9c0,20.7,15,38,34.6,41.7v48.6
				c-19.7,3.6-34.6,21-34.6,41.7c0,23.4,19.1,42.5,42.5,42.5c20.7,0,38-15,41.7-34.6h48.6c3.2,17.1,16.8,30.7,33.9,33.9v48.6
				c-19.7,3.6-34.6,21-34.6,41.7c0,23.4,19.1,42.5,42.5,42.5c20.7,0,38-15,41.7-34.6h48.6c3.6,19.7,21,34.6,41.7,34.6
				c23.4,0,42.5-19.1,42.5-42.5C354.6,288.6,335.6,269.5,312.1,269.5z M21.3,47.9c0-14.8,11.9-26.8,26.8-26.8s26.8,11.9,26.8,26.8
				S62.8,74.7,48,74.7S21.3,62.8,21.3,47.9z M48,206.8c-14.8,0-26.8-11.9-26.8-26.8s11.9-26.8,26.8-26.8s26.8,11.9,26.8,26.8
				C74.8,194.8,62.8,206.8,48,206.8z M153.3,180c0-14.8,11.9-26.8,26.8-26.8c14.8,0,26.8,11.9,26.8,26.8c0,14.8-11.9,26.8-26.8,26.8
				C165.3,206.8,153.3,194.8,153.3,180z M180.1,338.8c-14.8,0-26.8-11.9-26.8-26.8c0-14.8,11.9-26.8,26.8-26.8
				c14.8,0,26.8,11.9,26.8,26.8C206.8,326.9,194.9,338.8,180.1,338.8z M312.1,338.8c-14.8,0-26.8-11.9-26.8-26.8
				c0-14.8,11.9-26.8,26.8-26.8c14.8,0,26.8,11.9,26.8,26.8C338.9,326.9,326.9,338.8,312.1,338.8z"/>
			<path class="st0" d="M312.1,360c-21.5,0-40.2-14.4-46.1-34.6h-39.9c-5.9,20.3-24.5,34.6-46.1,34.6c-26.5,0-47.9-21.5-47.9-47.9
				c0-21.5,14.4-40.2,34.6-46.1V226c-15.7-4.5-28.1-17.1-32.7-32.7H94c-5.9,20.3-24.5,34.6-46.1,34.6c-26.5,0-47.9-21.5-47.9-47.9
				c0-21.5,14.4-40.2,34.6-46.1V93.9c-20.1-5.7-34.5-24.4-34.5-46C0.1,21.5,21.6,0,48,0S96,21.5,96,47.9c0,21.5-14.4,40.2-34.6,46.1
				V134c15.7,4.5,28.1,17.1,32.7,32.7h39.9c5.9-20.3,24.5-34.6,46.1-34.6c26.5,0,47.9,21.5,47.9,47.9c0,21.5-14.4,40.2-34.6,46.1
				v39.9c15.7,4.5,28.1,17.1,32.7,32.7H266c5.9-20.3,24.5-34.6,46.1-34.6c26.5,0,47.9,21.5,47.9,47.9
				C360.1,338.5,338.6,360,312.1,360z M217.3,314.5h57.8l0.9,4.5c3.3,17.4,18.6,30.1,36.3,30.1c20.4,0,36.9-16.6,36.9-36.9
				c0-20.4-16.6-36.9-36.9-36.9c-17.7,0-33,12.7-36.3,30.1l-0.9,4.5h-57.8l-0.9-4.5c-2.7-14.8-14.7-26.6-29.5-29.5l-4.5-0.9v-57.8
				l4.5-0.9C204.3,213,217,197.7,217,180c0-20.4-16.6-36.9-36.9-36.9c-17.7,0-33,12.7-36.3,30.1l-0.9,4.5H85.2l-0.9-4.5
				c-2.7-14.8-14.7-26.8-29.5-29.5l-4.5-0.9V85l4.5-0.9c17.4-3.3,30.1-18.6,30.1-36.3c0-20.4-16.6-36.9-36.9-36.9
				c-20.4,0-36.9,16.6-36.9,36.9c0,17.7,12.7,33,30.1,36.3l4.5,0.9v57.8l-4.5,0.9C23.8,147,11.1,162.3,11.1,180
				c0,20.4,16.6,36.9,36.9,36.9c17.7,0,33-12.7,36.3-30.1l0.9-4.5H143l0.9,4.5c2.7,14.8,14.7,26.6,29.5,29.5l4.5,0.9V275l-4.5,0.9
				c-17.4,3.3-30.1,18.6-30.1,36.3c0,20.4,16.6,36.9,36.9,36.9c17.7,0,33-12.7,36.3-30.1L217.3,314.5z M312.1,344.4
				c-17.8,0-32.4-14.5-32.4-32.4s14.5-32.4,32.4-32.4c17.8,0,32.4,14.5,32.4,32.4C344.5,329.9,330,344.4,312.1,344.4z M312.1,290.7
				c-11.8,0-21.3,9.5-21.3,21.3c0,11.8,9.5,21.3,21.3,21.3c11.8,0,21.3-9.5,21.3-21.3C333.5,300.3,323.9,290.7,312.1,290.7z
				 M180.1,344.4c-17.8,0-32.4-14.5-32.4-32.4s14.5-32.4,32.4-32.4s32.4,14.5,32.4,32.4S197.9,344.4,180.1,344.4z M180.1,290.7
				c-11.8,0-21.3,9.5-21.3,21.3c0,11.8,9.5,21.3,21.3,21.3c11.8,0,21.3-9.5,21.3-21.3C201.4,300.3,191.9,290.7,180.1,290.7z
				 M180.1,212.4c-17.8,0-32.4-14.5-32.4-32.4s14.5-32.4,32.4-32.4s32.4,14.5,32.4,32.4S197.9,212.4,180.1,212.4z M180.1,158.7
				c-11.8,0-21.3,9.5-21.3,21.3s9.5,21.3,21.3,21.3c11.8,0,21.3-9.5,21.3-21.3C201.4,168.4,191.9,158.7,180.1,158.7z M48,212.4
				c-17.8,0-32.4-14.5-32.4-32.4s14.5-32.4,32.4-32.4s32.4,14.5,32.4,32.4S65.9,212.4,48,212.4z M48,158.7
				c-11.8,0-21.3,9.5-21.3,21.3s9.5,21.3,21.3,21.3s21.3-9.5,21.3-21.3C69.4,168.4,59.8,158.7,48,158.7z M48,80.3
				c-17.8,0-32.4-14.5-32.4-32.4S30.2,15.6,48,15.6s32.4,14.5,32.4,32.4S65.9,80.3,48,80.3z M48,26.8c-11.8,0-21.3,9.5-21.3,21.3
				S36.2,69.4,48,69.4s21.3-9.5,21.3-21.3S59.8,26.8,48,26.8z"/>
		</g>
		<g>
			<circle class="st0" cx="48" cy="47.9" r="32.5"/>
			<path class="st0" d="M48,85.9c-20.9,0-38-17.1-38-38s17.1-38,38-38s38,17.1,38,38C86,69,69.1,85.9,48,85.9z M48,21
				c-14.8,0-26.9,12.1-26.9,26.9S33.2,74.9,48,74.9s26.9-12.1,26.9-26.9S63,21,48,21z"/>
		</g>
		<g>
			<ellipse class="st0" cx="312.1" cy="312.1" rx="32.5" ry="32.5"/>
			<path class="st0" d="M312.1,350c-20.9,0-38-17.1-38-38c0-20.9,17.1-38,38-38c20.9,0,38,17.1,38,38
				C350.1,332.9,333.2,350,312.1,350z M312.1,285.1c-14.8,0-26.9,12.1-26.9,26.9c0,14.8,12.1,26.9,26.9,26.9
				c14.8,0,26.9-12.1,26.9-26.9C339.1,297.2,326.9,285.1,312.1,285.1z"/>
		</g>
	</g>
</g>
</svg>
