<?xml version="1.0" encoding="utf-8"?>
<!-- Generator: Adobe Illustrator 24.3.0, SVG Export Plug-In . SVG Version: 6.00 Build 0)  -->
<svg version="1.1" id="Layer_1" xmlns="http://www.w3.org/2000/svg" xmlns:xlink="http://www.w3.org/1999/xlink" x="0px" y="0px"
	 viewBox="0 0 360 360" style="enable-background:new 0 0 360 360;" xml:space="preserve">
<style type="text/css">
	.st0{fill:#5F419A;}
	.st1{fill:#FCB017;}
	.st2{fill:#3E2E85;}
	.st3{fill:#3F2F84;}
</style>
<g>
	<g>
		<g>
			<g>
				<path class="st0" d="M193.3,289.8c-2.2,0-4.3-0.9-5.9-2.6l-145-153.2c-2.9-3.2-2.6-8.2,0.6-11.1c3.2-2.9,8.2-2.6,11.1,0.6
					l145,153.2c2.9,3.2,2.6,8.2-0.6,11.1C197,289.1,195.1,289.8,193.3,289.8z"/>
			</g>
		</g>
	</g>
	<g>
		<g>
			<g>
				<path class="st0" d="M48.3,245.7c-1.8,0-3.6-0.6-5.1-1.9c-3.3-2.8-3.7-7.8-0.8-11.1L187.3,73c2.8-3.3,7.8-3.7,11.1-0.8
					c3.3,2.8,3.7,7.8,0.8,11.1L54.3,243C52.7,244.8,50.5,245.7,48.3,245.7z"/>
			</g>
		</g>
	</g>
	<g>
		<g>
			<g>
				<path class="st0" d="M311.7,187.9H188.3c-4.3,0-7.9-3.5-7.9-7.9c0-4.3,3.5-7.9,7.9-7.9h123.4c4.3,0,7.9,3.5,7.9,7.9
					C319.6,184.3,316.1,187.9,311.7,187.9z"/>
			</g>
		</g>
	</g>
	<g>
		<g>
			<g>
				<path class="st0" d="M193.3,289.8c-0.9,0-1.8-0.2-2.7-0.5l-145-44c-3.1-1.1-5.1-4-5.2-7.2c-0.1-3.2,1.9-6.2,4.9-7.4l121.2-50.2
					L45.6,136c-3.1-1.1-5.1-4-5.2-7.2c-0.1-3.2,1.9-6.2,4.9-7.4l145-50.6c2.9-1.2,6.2-0.6,8.5,1.6l118.4,101.9
					c1.5,1.5,2.4,3.5,2.4,5.6s-0.9,4.1-2.4,5.6L198.8,287.5C197.3,289,195.3,289.8,193.3,289.8z M70,237.4l121.3,35.4L300.4,180
					l-109-92.7L70,128.2L191,172.6c3.1,1.1,5.1,4,5.2,7.2c0.1,3.3-1.9,6.2-4.9,7.4L70,237.4z"/>
			</g>
		</g>
	</g>
	<g>
		<g>
			<g>
				<circle class="st1" cx="48.3" cy="128.7" r="35.6"/>
			</g>
		</g>
		<g>
			<g>
				<path class="st2" d="M48.3,172.2c-24,0-43.5-19.5-43.5-43.5s19.5-43.5,43.5-43.5s43.5,19.5,43.5,43.5S72.3,172.2,48.3,172.2z
					 M48.3,100.9c-15.3,0-27.8,12.5-27.8,27.8s12.5,27.8,27.8,27.8s27.8-12.5,27.8-27.8S63.6,100.9,48.3,100.9z"/>
				<path class="st3" d="M48.3,175.7c-25.9,0-47-21.1-47-47s21.1-47,47-47s47,21.1,47,47S74.2,175.7,48.3,175.7z M48.3,88.7
					c-22.1,0-40,17.9-40,40s17.9,40,40,40s40-17.9,40-40S70.3,88.7,48.3,88.7z M48.3,159.9c-17.2,0-31.3-14-31.3-31.3
					s14-31.3,31.3-31.3c17.2,0,31.3,14,31.3,31.3S65.5,159.9,48.3,159.9z M48.3,104.4c-13.4,0-24.3,10.9-24.3,24.3
					c0,13.4,10.9,24.3,24.3,24.3s24.3-10.9,24.3-24.3C72.5,115.3,61.7,104.4,48.3,104.4z"/>
			</g>
		</g>
	</g>
	<g>
		<g>
			<g>
				<circle class="st1" cx="48.3" cy="237.9" r="35.6"/>
			</g>
		</g>
		<g>
			<g>
				<path class="st2" d="M48.3,281.4c-24,0-43.5-19.5-43.5-43.5s19.5-43.5,43.5-43.5s43.5,19.5,43.5,43.5S72.3,281.4,48.3,281.4z
					 M48.3,210.1c-15.3,0-27.8,12.5-27.8,27.8s12.5,27.8,27.8,27.8s27.8-12.5,27.8-27.8S63.6,210.1,48.3,210.1z"/>
				<path class="st3" d="M48.3,284.9c-25.9,0-47-21.1-47-47c0-25.9,21.1-47,47-47s47,21.1,47,47C95.3,263.8,74.2,284.9,48.3,284.9z
					 M48.3,197.9c-22.1,0-40,17.9-40,40s17.9,40,40,40s40-17.9,40-40S70.3,197.9,48.3,197.9z M48.3,269.1c-17.2,0-31.3-14-31.3-31.3
					s14-31.3,31.3-31.3c17.2,0,31.3,14,31.3,31.3S65.5,269.1,48.3,269.1z M48.3,213.6c-13.4,0-24.3,10.9-24.3,24.3
					c0,13.4,10.9,24.3,24.3,24.3s24.3-10.9,24.3-24.3C72.5,224.5,61.7,213.6,48.3,213.6z"/>
			</g>
		</g>
	</g>
	<g>
		<g>
			<g>
				<circle class="st1" cx="193.3" cy="78.1" r="35.6"/>
			</g>
		</g>
		<g>
			<g>
				<path class="st2" d="M193.3,121.6c-24,0-43.5-19.5-43.5-43.5c0-24,19.5-43.5,43.5-43.5c24,0,43.5,19.5,43.5,43.5
					C236.8,102.1,217.3,121.6,193.3,121.6z M193.3,50.3c-15.3,0-27.8,12.5-27.8,27.8c0,15.3,12.5,27.8,27.8,27.8
					c15.3,0,27.8-12.5,27.8-27.8C221,62.8,208.6,50.3,193.3,50.3z"/>
				<path class="st3" d="M193.3,125.1c-25.9,0-47-21.1-47-47c0-25.9,21.1-47,47-47c25.9,0,47,21.1,47,47
					C240.3,104,219.2,125.1,193.3,125.1z M193.3,38.1c-22,0-40,17.9-40,40c0,22,17.9,40,40,40c22.1,0,40-17.9,40-40
					C233.3,56.1,215.3,38.1,193.3,38.1z M193.3,109.4c-17.2,0-31.3-14-31.3-31.3c0-17.2,14-31.3,31.3-31.3c17.2,0,31.3,14,31.3,31.3
					C224.6,95.3,210.5,109.4,193.3,109.4z M193.3,53.8c-13.4,0-24.2,10.9-24.2,24.3c0,13.4,10.9,24.3,24.2,24.3
					c13.4,0,24.3-10.9,24.3-24.3C217.5,64.7,206.6,53.8,193.3,53.8z"/>
			</g>
		</g>
	</g>
	<g>
		<g>
			<g>
				<circle class="st1" cx="193.3" cy="180" r="35.6"/>
			</g>
		</g>
		<g>
			<g>
				<path class="st2" d="M193.3,223.5c-24,0-43.5-19.5-43.5-43.5c0-24,19.5-43.5,43.5-43.5c24,0,43.5,19.5,43.5,43.5
					C236.8,204,217.3,223.5,193.3,223.5z M193.3,152.2c-15.3,0-27.8,12.5-27.8,27.8c0,15.3,12.5,27.8,27.8,27.8
					c15.3,0,27.8-12.5,27.8-27.8C221,164.7,208.6,152.2,193.3,152.2z"/>
				<path class="st3" d="M193.3,227c-25.9,0-47-21.1-47-47c0-25.9,21.1-47,47-47c25.9,0,47,21.1,47,47
					C240.3,205.9,219.2,227,193.3,227z M193.3,140c-22,0-40,17.9-40,40c0,22.1,17.9,40,40,40c22.1,0,40-17.9,40-40
					C233.3,157.9,215.3,140,193.3,140z M193.3,211.3c-17.2,0-31.3-14-31.3-31.3c0-17.2,14-31.3,31.3-31.3c17.2,0,31.3,14,31.3,31.3
					C224.6,197.2,210.5,211.3,193.3,211.3z M193.3,155.7c-13.4,0-24.2,10.9-24.2,24.3c0,13.4,10.9,24.3,24.2,24.3
					c13.4,0,24.3-10.9,24.3-24.3C217.5,166.6,206.6,155.7,193.3,155.7z"/>
			</g>
		</g>
	</g>
	<g>
		<g>
			<g>
				<circle class="st1" cx="311.7" cy="180" r="35.6"/>
			</g>
		</g>
		<g>
			<g>
				<path class="st2" d="M311.7,223.5c-24,0-43.5-19.5-43.5-43.5c0-24,19.5-43.5,43.5-43.5c24,0,43.5,19.5,43.5,43.5
					C355.2,204,335.7,223.5,311.7,223.5z M311.7,152.2c-15.3,0-27.8,12.5-27.8,27.8c0,15.3,12.5,27.8,27.8,27.8
					c15.3,0,27.8-12.5,27.8-27.8C339.5,164.7,327,152.2,311.7,152.2z"/>
				<path class="st3" d="M311.7,227c-25.9,0-47-21.1-47-47c0-25.9,21.1-47,47-47c25.9,0,47,21.1,47,47
					C358.7,205.9,337.6,227,311.7,227z M311.7,140c-22,0-40,17.9-40,40c0,22.1,17.9,40,40,40c22.1,0,40-17.9,40-40
					C351.7,157.9,333.8,140,311.7,140z M311.7,211.3c-17.2,0-31.3-14-31.3-31.3c0-17.2,14-31.3,31.3-31.3c17.2,0,31.3,14,31.3,31.3
					C343,197.2,329,211.3,311.7,211.3z M311.7,155.7c-13.4,0-24.3,10.9-24.3,24.3c0,13.4,10.9,24.3,24.3,24.3
					c13.4,0,24.3-10.9,24.3-24.3C336,166.6,325.1,155.7,311.7,155.7z"/>
			</g>
		</g>
	</g>
	<g>
		<g>
			<g>
				<circle class="st1" cx="193.3" cy="281.9" r="35.6"/>
			</g>
		</g>
		<g>
			<g>
				<path class="st2" d="M193.3,325.4c-24,0-43.5-19.5-43.5-43.5c0-24,19.5-43.5,43.5-43.5c24,0,43.5,19.5,43.5,43.5
					C236.8,305.9,217.3,325.4,193.3,325.4z M193.3,254.1c-15.3,0-27.8,12.5-27.8,27.8c0,15.3,12.5,27.8,27.8,27.8
					c15.3,0,27.8-12.5,27.8-27.8C221,266.6,208.6,254.1,193.3,254.1z"/>
				<path class="st3" d="M193.3,328.9c-25.9,0-47-21.1-47-47c0-25.9,21.1-47,47-47c25.9,0,47,21.1,47,47
					C240.3,307.8,219.2,328.9,193.3,328.9z M193.3,241.9c-22,0-40,17.9-40,40c0,22.1,17.9,40,40,40c22.1,0,40-17.9,40-40
					C233.3,259.8,215.3,241.9,193.3,241.9z M193.3,313.2c-17.2,0-31.3-14-31.3-31.3c0-17.2,14-31.3,31.3-31.3
					c17.2,0,31.3,14,31.3,31.3C224.6,299.1,210.5,313.2,193.3,313.2z M193.3,257.6c-13.4,0-24.2,10.9-24.2,24.3
					c0,13.4,10.9,24.3,24.2,24.3c13.4,0,24.3-10.9,24.3-24.3C217.5,268.5,206.6,257.6,193.3,257.6z"/>
			</g>
		</g>
	</g>
</g>
</svg>
