<?xml version="1.0" encoding="utf-8"?>
<!-- Generator: Adobe Illustrator 24.3.0, SVG Export Plug-In . SVG Version: 6.00 Build 0)  -->
<svg version="1.1" id="Layer_1" xmlns="http://www.w3.org/2000/svg" xmlns:xlink="http://www.w3.org/1999/xlink" x="0px" y="0px"
	 viewBox="0 0 363.3 414.1" style="enable-background:new 0 0 363.3 414.1;" xml:space="preserve">
<style type="text/css">
	.st0{fill:#E5E5E6;}
	.st1{fill:#37A6CB;}
	.st2{fill:#6CBF65;}
	.st3{fill:#030303;}
	.st4{fill:none;stroke:#030303;stroke-width:3.4228;stroke-linecap:round;stroke-miterlimit:10;}
</style>
<g>
	<path class="st0" d="M175.5,316.2c-3,0.7-5.8,1.9-8.7,2.9c-2.8,1-5.6,1.9-8.4,2.9c-5.6,2-11.1,4.2-16.6,6.5
		c-10.7,4.4-21.6,7.4-32.7,10.5c-3.3,0.9-6.4,2-9.5,3.4c0,0,0,0,0,0c-1.3-1.2-2.6-2.4-3.9-3.6c-0.8-0.8-1.6-1.5-2.5-2.3
		c1.3-3.4-0.3-7.7-1.1-11.1c-0.9-3.8-1.7-7.7-2.4-11.6c-0.7-3.7-1.4-7.4-2.2-11.1c0-0.1,0.1-0.2,0.1-0.3c0.1-0.4,0.1-0.8,0-1.1
		c0.1,0.3,0.2,0.2,0.2-0.4c0.1-0.5,0.1-1,0.2-1.4c0.1-0.7,0.1-1.3,0.2-2c0.2-1.6,0.1-3.1,0.1-4.6c0-2.9,0.2-5.7,0.6-8.6
		c0.7-5.8,0.8-11.7,1.4-17.5c0.6-5.7,1.1-10.3,3.1-16.1c1.1-3.2,2.2-6.2,2.5-9.6c0-0.6,0-1.2,0-1.8c3.1-1.4,6.3-2.7,9.5-4.2
		c5.1-2.4,9.9-5.3,14.8-8.2c1-0.4,1.9-0.9,2.9-1.3c4.9-2.3,9.9-4.3,14.7-6.8c2.4-1.2,4.7-2.6,6.9-4c2.7-1.8,5.2-3.5,6.8-6.4
		c0.7-1.3,0.6-2.6,0-3.5c0,0,0-0.1,0-0.1c1-2.1-0.7-4.2-2.9-3.8c-0.2,0-0.3,0.1-0.5,0.1c-0.2-1.1-0.7-2.1-1.5-3c0,0-0.1-0.1-0.1-0.1
		c1.7-1,3.4-2.1,4.9-3.4c2.1-1.8,0.3-4.8-2.1-4.9c-3.3-0.2-6.6,0.3-9.8,1.2c-1.1-2-2.6-3.9-4.4-5.2c-2.9-2.2-6.1-3.7-9.6-4.8
		c-2.6-0.8-5.2-1.4-7.8-1.6c-3.1-1.7-6.6-2.7-10.2-2.7c-0.1-0.6-0.2-1.2-0.3-1.8c-0.7-3.6-1.4-7.3-2.3-10.9
		c-0.4-1.8-0.7-3.7-1.3-5.4c-0.3-1-0.7-2-1.1-3c1.6-0.9,2.8-2.1,3.2-4c0.1-0.5,0.1-1,0.1-1.5c3-0.8,6.1-1.6,9.1-2.5
		c8.7-2.6,17.2-5.9,25.6-9.6c0.8-0.4,1.4-1,1.9-1.8c2.6-0.8,4.9-2,6.4-4.4c0.6-1,1-2.2,1-3.4c0.5-0.6,0.9-1.1,1.3-1.6
		c1.6-2.3,2.9-4.9,4.1-7.5c0.7-1.6,1.4-3.2,1.9-4.8c1.1-2.4,1.9-5,2.4-7.5c1.4-6.7,0.4-13.5-0.8-20.1c-1.1-6-2.4-12-3.7-17.9
		c-1.3-6.1-2.6-12.2-4.8-18.1c-1.2-3.3-2.6-6.6-4-9.8c-1.4-3.2-2.5-6.8-4.5-9.7c-2.1-3-6.4-1.1-5.8,2.4c0.5,2.9,1.7,5.6,2.4,8.5
		c0.7,2.9,1.4,5.8,1.9,8.7c0.6,2.9,0.9,5.9,1.6,8.8c0.6,2.8,1.3,5.6,1.8,8.4c1.2,6,1.9,11.1,2.6,16.7c0.7,5.7,1.3,11.4,0.9,17.2
		c-0.1,0.7-0.1,1.4-0.2,2.1c0,0.3-0.1,0.6-0.1,0.9c0,0.1,0,0.2-0.1,0.4c-0.2,0.8-0.3,1.6-0.6,2.4c-0.1,0.2-0.1,0.4-0.2,0.6
		c-0.9,1.5-1.7,3-2.6,4.5c-0.5,0.9-1,1.8-1.6,2.6c-10,3.7-20.4,6.2-30.8,8.5c-12.4,2.7-24.8,5.1-37.3,7.5c-3.5,0.7-6.9,1.3-10.4,1.8
		c-2.5,0.4-5,1.1-7.4,1.8c0.1-1.4,0.1-2.9-0.1-4.4c-0.6-3.9-2.4-7.4-4.1-11c-3-6.4-5.5-12.7-7.8-19.7c-2.6-7.9-4.7-15.9-6.2-24
		c-0.7-3.9-1.4-7.8-1.8-11.5c-0.1-1-0.2-2.1-0.3-3.1c-0.1-0.8-0.3-1.5-0.5-2.2c1-0.7,1.7-1.8,2-3c0,0,0.1,0,0.1,0
		c0-0.2,0.1-0.4,0.1-0.6c0.1-0.2,0.1-0.4,0.2-0.6c0.2-0.5,0.2-1,0.2-1.5c0.1-0.6,0.2-1.1,0.2-1.7c0.1-0.4,0.1-0.9,0.2-1.3
		c0-0.2,0.1-0.4,0.1-0.5c0.1-0.2,0.2-0.4,0.3-0.6c0.4-0.9,0.6-1.8,0.6-2.9c0-0.6,0-1.1-0.2-1.6c0.3-0.3,0.6-0.6,0.9-0.8
		c0.2-0.1,1-0.8,0.9-0.8c1-0.7,2-1.4,3.1-2c4.5-2.8,9.4-5.2,14.3-7.1c5.2-2,10.4-4,15.9-5.3c5.2-1.3,10.2-1.8,15.5-2.4
		c3.3-0.4,6.5-1,9.7-1.8c1.3-0.3,2.5-0.4,3.9-0.6c1.9-0.2,4.5,0.4,6.3-0.2c5.1-1.8,3.5-10.4-2.3-10.6c-1.3,0-2.6,0-3.8,0.1
		c-1.9-0.9-3.8-1.1-6.1-1.1c-2.3-0.1-4.5,0-6.8,0.2c-4.5,0.4-9,1-13.4,1.8c-4,0.7-8.3,1.2-12.2,2.5c-4.1,1.4-9,2.3-13,3.8
		c-7.9,2.8-16.2,5.6-23,10.6c-3.6,2.6-6.9,5.6-9.6,9.1c-2.6,3.3-3.7,8.5-6,12c-2.7,4-5.5,8.1-7.9,12.3c-1.2,2.1-2.3,4.2-3.4,6.3
		C0.6,73,0.7,75.3,1.5,78c0.4,1.3,0.4,2.5,1.7,2.8c0,1.6,0.3,3.3,0.9,5c1.3,3.6,2.7,7.3,4.1,10.9c3.8,10.1,7.4,20.2,11.6,30.1
		c0.7,2,1.4,3.9,2.1,5.9c1.9,5.2,3.9,10.2,6.4,14.9c2.5,4.7,5.2,9.2,7.9,13.7c1,1.6,2.8,2.5,4.6,2.4c3.3,3.4,8.3,4.4,13.1,4.3
		c5.9-0.1,12-0.9,17.7-2.3c5.3-1.3,10.5-2.9,15.7-4.6c0.2,1.5,0.5,2.9,0.7,4.4c0.5,2.9,0.9,5.7,1.4,8.6c0.3,1.6,0.7,3.2,1,4.9
		c-0.8,0.3-1.6,0.7-2.4,1.3c-2,1.4-3.9,3.1-5.8,4.6c-3.4,2.8-6.9,5.5-10.3,8.3c-3.4,2.7-7.4,5.3-9.9,9c-2.3,3.4-3.4,7.8-4.6,11.7
		c-1.2,4-2.4,8.1-3.1,12.2c-0.7,4.4-1.4,9.1-0.6,13.5c0.2,1,0.4,2,0.8,2.9c-0.2,9.6,0.3,19.2,1.5,28.7c0.7,5.6,1.6,11.3,3,16.8
		c0.2,3.2,0.5,6.3,1,9.4c0.8,4.5,1.9,8.9,3.2,13.2c0.6,2.1,1.3,4.1,2,6.1c0.9,2.6,2,4.8,3.5,7c0.9,1.3,2.2,2.2,3.6,2.4
		c1.9,3.9,3.8,7.9,5.8,11.7c1.7,3.2,3.4,6.4,5.3,9.5c-1.4,0-2.8,0-4.3,0.3c-0.4,0-0.7,0-1.1,0.2c-0.3-0.3-0.6-0.7-1-0.9
		c-0.8-0.5-1.9-0.7-2.9-0.4c-1.5,0.5-2.3,1.7-2.5,3.2c-0.1,1.4,0.6,2.6,1.7,3.6c-0.7,1.4,0.1,3.1,0.6,4.5c0.7,1.9,1.5,3.8,2.5,5.7
		c1.4,2.7,3.1,5.4,5.5,7.1c0.5,3.4,1.2,6.7,2,9.9c0.5,2.1,0.9,4.3,1.3,6.4c-0.1,1.5-0.3,3-0.2,4.4c0.1,3.4,1,6.9,1.5,10.2
		c0.4,2.4,3.2,3.8,5.4,3.5c0.8-0.1,1.5-0.4,2.1-0.8c0.5,0.1,1.1,0.2,1.7,0.2c0.3,0,0.5,0,0.8,0c1.1,1.7,3.1,2.9,5.1,2.8
		c3.3-0.1,6.2-2.7,6.1-6.1c-0.2-7.8-0.5-15.5-0.1-23.2c0.3-6.2,0.6-12.6-0.5-18.7c4.8-1.6,9.5-3.5,14.2-5.3
		c-0.3,6.2-0.1,12.4,0.2,18.7c0.4,7.9,0.7,16.3,3.8,23.7c0.8,1.8,2.7,2.5,4.2,1.8c0.3,0.2,0.7,0.3,1,0.4c2,0.5,4.6-0.6,5.2-2.7
		c0.5-0.6,0.8-1.2,1-1.9c0,0,0,0,0,0c0.6-1.6,0.5-3.4,0.4-5.2c1.4-6.2,2.9-12.4,4.9-18.4c2.6-8.2,5.1-16.3,7.2-24.7
		c0.4-1.7,0.3-3.4-0.4-4.9c2.6-1.5,5.1-3.1,7.6-4.9c3-2.1,6.1-4.2,8.9-6.6c2.6-2.3,5.4-4.3,8.9-4.9c1.3-0.2,1.8-1.5,1.6-2.6
		c0.5-0.2,0.9-0.4,1.4-0.7C180.2,319.6,178.3,315.5,175.5,316.2z M26.4,56.2C26.4,56.2,26.4,56.2,26.4,56.2c0,0.2,0.1,0.3,0.1,0.5
		c-0.1,0.8-0.3,1.6-0.5,2.4c-0.1-0.1-0.1-0.1-0.2-0.2c0.1-0.6,0.3-1.2,0.4-1.8C26.3,56.8,26.4,56.5,26.4,56.2z M130.4,193.9
		C130.4,193.9,130.4,193.9,130.4,193.9C130.4,193.9,130.4,193.9,130.4,193.9C130.4,193.9,130.4,193.9,130.4,193.9z M25.9,52.4
		c0.1,0.6,0.1,1.1,0.2,1.7c-0.2-0.4-0.4-0.8-0.7-1.1C25.5,52.7,25.7,52.6,25.9,52.4z M37.4,54.8c0,0,0-0.1,0-0.2
		C37.4,54.7,37.4,54.7,37.4,54.8z M38.2,49.7C38.3,49.2,38.4,49.2,38.2,49.7L38.2,49.7z"/>
	<path class="st0" d="M51.3,371c0.1-0.5,0.2-1,0.2-1.5c0.1-2-0.4-4.1-1.3-5.9c-0.3-0.5-0.7-1.1-1-1.6c0.4,0.6,0.4,0.7,0.2,0.2
		c-0.3-0.5-0.6-0.9-0.8-1.4c-1.1-1.9-2-3.9-2.9-6c-0.9-2.2-1.5-3.9-2-5.4c-0.9-2.7-1.3-3.8-2.1-6.4c-0.1-0.3-0.1-0.6-0.2-0.9
		c-0.5-2-1-4-1.4-6c-1.2-6.9-1.4-14-1.3-21c0.2-10.6,1.3-21.2,2.5-31.7c1.2-10.6,2.5-21.1,4.5-31.5c2.2-11.4,4.7-22.7,7.9-33.7
		c1-3.3-3.5-5.7-4.7-2.4c-3.7,10.1-6.4,20.4-8.6,31.1c-1.1,5.2-1.9,10.4-3,15.6c-1.2,5.3-2.3,10.6-3.4,16c-2.2,11.2-3.7,22.7-4,34.2
		c-0.1,4.1-0.1,8.3,0.2,12.5c-0.6,3.7-0.9,7.5-0.7,11.3c0.1,3.1,0.5,6.3,1,9.4c0.5,3.1,1.7,5.9,2.8,8.7c0.1,0.3,0.3,0.7,0.4,1
		c0.3,1.1,0.6,2.3,0.9,3.4c0.5,1.7,1.1,3.3,1.6,5c0.2,0.5,0.4,1.1,0.6,1.6c0.3,0.8,0.5,1.5,0.8,2.3c1.4,4,2.9,7.2,6.5,8.6
		c0.8,0.3,1.6,0.4,2.3,0.3c1.4,1.3,3,2.4,4.4,3.6c1.9,1.7,4.8-1.7,3.3-4.1C52.8,374.8,52.1,372.9,51.3,371z"/>
	<path class="st0" d="M289.7,139.6c-2.7-2.3-7.5-3.5-10.6-1.3c-1.5,1-2.9,2-4.1,3.4c-0.7,0.8-1.4,1.6-2,2.4c-1,1.2-2,2.3-2.9,3.5
		c0,0-0.1,0.1-0.1,0.1c-0.1,0.1-0.1,0.1-0.2,0.2c-0.6,0.6-1.1,1.3-1.6,1.9c-3.3,3.8-6.4,7.7-9.4,11.7c-2,2.7-4,5.3-6,8
		c-0.9-4.2-7.7-6.2-10.4-1.7c-0.7,1.1-0.9,2-1.1,3.2c-0.1,0.8,0,0.6,0,0.5c0,0.1-0.1,0.2-0.2,0.6c-0.4,1.1-0.7,2.3-1.1,3.4
		c-0.7,2.3-1.7,4.5-2.5,6.7c-1.7,4.6-3.4,9.2-5,13.8c-1.6,4.5-2.7,9.2-4,13.8c-0.7,2.3-1.5,4.6-2.1,6.9c-0.3,1.2-0.5,2.5-0.7,3.7
		c-1.1,2.9-2.2,5.7-3.2,8.6c-1.1,2.9-2.3,5.7-3.4,8.6c-0.2,0.4-0.3,0.8-0.5,1.2c-0.5,0.9-0.9,1.8-1.4,2.7c-1.8,3.3-3.6,6.6-5.4,9.9
		c-1.1,1.9-2.3,3.8-3,5.8c-0.3,0.8-0.5,1.6-0.7,2.4c0,0.1,0,0.1,0,0.2c-1-1.9-1.9-3.9-2.9-5.8c-2.6-4.8-5.3-9.5-8.2-14.1
		c-2.9-4.5-6.1-8.8-9.4-13c-1.8-2.2-3.6-4.5-5.4-6.7c-0.4-0.4-0.8-0.9-1.1-1.3c-0.4-0.5,0,0,0.1,0.1c-0.2-0.3-0.5-0.6-0.7-0.9
		c-0.8-1-1.6-2-2.3-3c-1.1-1.4-2.2-2.8-3.3-4.1c0.6,0.7-0.5-0.6-0.7-0.9c-0.4-0.5-0.8-1.1-1.2-1.6c-1.1-1.5-1.6-1.8-2.5-3.1
		c-0.4-0.5-0.8-1.1-1.1-1.6c-0.1-0.7-0.2-1.4-0.3-2.1c-0.3-1.8-0.4-3.7-1.4-5.3c-0.8-1.4-2-2.6-3.2-3.7c-1.9-1.6-4.6-1.5-6.2,0.3
		c-0.9,0.1-1.7,0.4-2.3,1.1c-2.1,2.4-1.9,4.8-0.7,7.5c0.3,0.7,0.6,1.4,1,2.1c0,0.2,0.1,0.4,0.1,0.5c0.5,3,1.4,6,2.2,9
		c1.6,6,2.7,12.1,3.9,18.2c1.2,6.1,2.4,12.2,3.7,18.2c0.6,3,1.3,6.1,2.1,9.1c0.4,1.4,1,2.7,1.6,4.1c0.6,1.5,1.2,3.1,2.3,4.3
		c1.2,1.4,3.4,0.4,4-1c0.5-1.4,0.4-3,0.5-4.5c0-1.6,0.1-3-0.1-4.6c-0.4-3.2-0.9-6.4-1.4-9.6c-0.9-5.9-1.9-11.8-2.8-17.8
		c0.3,0.6,0.7,1.2,1,1.8c5.5,10.3,10.8,20.8,17.1,30.8c3.5,5.6,9.9,15,18.2,11.2c1.2-0.5,1.9-1.4,2.3-2.5c1.1,0.4,2.3,0.2,3.1-1
		c0.1-0.3,0.3-0.5,0.5-0.8c1.1,0.8,2.9,0.7,3.3-0.9c0.8-3,2.1-5.8,3.5-8.7c1.4-2.9,2.3-6.1,3.4-9.1c1.7-4.6,3.5-9.2,5.2-13.8
		c3.1-5.9,6.3-11.7,9.5-17.6c4.6-8.4,9.1-16.7,14.2-24.8c4.9-7.8,10.5-15,16.2-22.2c0.1-0.1,0.8-0.9,0.8-1c0.3-0.3,0.5-0.6,0.8-0.9
		c1-1.1,1.9-2.2,2.9-3.2c1.7-1.8,3.4-3.7,5.1-5.5c1.7-1.8,3.5-3.6,5.4-5.2c2.5-2.2,4.9-4.1,6.8-6.8
		C293.1,146.6,292.4,141.9,289.7,139.6z"/>
	<g>
		<g>
			<path class="st1" d="M56.6,61.6c-0.6-3-0.9-6-1.2-9c-0.3-3-0.6-6.1-0.3-9.1c0.2-2.1-2.2-3.6-3.8-1.9C50,43,49,44.6,48,46.2
				c-0.9,1.3-1.6,3.1-2.8,4.1c-1.2,0.5-0.8,2.4,0.4,2.7c2.1,0.5,3.6-1.5,4.8-2.9c0.4-0.4,0.7-0.8,1.1-1.2c0.1,1.4,0.2,2.7,0.3,4.1
				c0.3,3.2,0.6,6.4,0.7,9.6C52.6,65.5,57.3,64.8,56.6,61.6z"/>
			<path class="st1" d="M65.1,58.3c1.9-0.7,3.2-2.4,3.8-4.4c0.3-1.1,0.3-2.1,0.2-3.1c0.3-0.1,0.6-0.4,0.8-0.8
				c1.3-2.8,0.2-11.6-4.6-9.8c-1.7,0.6-3.1,2.7-4,4.2c-1.1,2-1.6,4.2-1.7,6.4C59.4,54.5,60.2,60.2,65.1,58.3z M63.2,50.1
				c0.1-1.1,0.4-2.2,0.9-3.3c0.4-0.8,0.9-1.4,1.4-2.1c0.1,0.4,0.3,0.9,0.4,1.3c0.3,1.3,0.3,2.6,0.7,3.8c0,0.1,0,0.1,0.1,0.2
				c-0.2,1.8-0.9,3.6-2.4,4.6c-0.2,0.1-0.8,0.3-0.8,0.5c-0.1-0.2-0.2-0.8-0.2-1C63.1,52.8,63.1,51.4,63.2,50.1z"/>
			<path class="st1" d="M74,52.9c0.9,1.9,2.3,3.8,4.6,3.9c2.1,0.1,3.9-1.4,4.7-3.3c0.8-2.1,0.4-4.5-0.1-6.6
				c-0.3-1.1-0.7-2.2-1.1-3.3c0-0.1-0.1-0.2-0.1-0.3c0.3-0.3,0.5-0.7,0.4-1.1c-0.6-4.4-6.4-5.5-8.8-2c-1.3,1.9-1.2,4.2-1,6.4
				C72.7,48.8,73,51,74,52.9z M76.2,44.9c0-0.9,0-3.2,1.4-2.9c0.5,0.1,1.1,0.8,1.6,1c0,0,0,0,0,0c0.3,1.1,0.6,2.2,0.7,3.4
				c0.1,0.9,0.3,7.6-1.7,5.8C76.3,50.7,76.2,47.1,76.2,44.9z"/>
			<path class="st1" d="M90.4,42.2c0.3-0.2,0.4-0.4,0.5-0.7c0.8-1.1,1.7-2.3,2.5-3.4c0,0.2,0,0.4,0.1,0.7c0.2,1.5,0.3,2.9,0.5,4.4
				c0.2,1.5,0.3,2.9,0.4,4.4c0.1,1.4,0.2,2.7,1.3,3.7c0.9,0.7,2.1,0.4,2.7-0.5c0.8-1.3,0.3-2.6,0-3.9c-0.3-1.5-0.7-3-1-4.5
				c-0.5-2.8-1.5-6-1.3-8.8c0.1-1.9-2.4-1.8-3.2-0.7c-1.7,2.5-3.2,5.2-4.7,7.9C87.4,42.2,89.4,43.1,90.4,42.2z"/>
			<path class="st1" d="M100.2,39.7c1.4-1,2.6-2.3,3.7-3.6c0.2,2.1,0.2,4.3,0.2,6.5c0.1,2.1,0.4,7.4,3.9,5.6
				c0.5-0.2,0.7-0.9,0.7-1.4c0-0.8,0.1-2.2-0.1-3.2c-0.2-1.4-0.3-2.8-0.5-4.2c-0.3-2.8-0.7-5.6-1.4-8.3c-0.5-1.7-2.6-1.4-3.4-0.2
				c-1.6,2.4-3.5,4.9-4.8,7.5c0,0,0,0,0,0C98.2,39.2,99.2,40.4,100.2,39.7z"/>
			<path class="st1" d="M122.7,43.8c1-1.3,1.1-2.7,1.1-4.2c0.6-1.1,1.2-2.3,1.4-3.5c0.2-1.3-0.2-2.7-0.5-3.9c-0.7-2.3-2.2-4.3-4.6-5
				c-5.2-1.6-7.2,4.5-7.8,8.4c-0.7,4,0.3,9.4,5,10.4C119.2,46.4,121.4,45.4,122.7,43.8z M115.6,36.2c0.3-1.3,1.3-7.1,3.7-5.5
				c1.2,0.8,1.2,2.7,1.3,3.9c0.1,1.5,0.6,2.9,0.6,4.4c0,0,0,0.1,0,0.1c-0.3,1.9-1.1,3.7-3.2,3.3C115.1,42,115.2,38.3,115.6,36.2z"/>
			<path class="st1" d="M65.1,86.4c1.2-1.5,1.3-3.9,1-5.7c-0.1-1-0.4-2-0.8-3c-0.2-0.4-0.3-0.7-0.5-1.1c0.2-0.3,0.2-0.7,0.1-1
				c-0.2-0.6-0.5-1.1-0.8-1.4c-0.1-0.6-0.6-0.8-1-0.7c-2.2-1.1-5.7-0.2-7.1,1.8c-2.2,3.2-1.9,7.9,0.1,11c1,1.7,2.4,2,4.2,2
				C62.1,88.2,63.9,87.8,65.1,86.4z M63.1,81.5c-0.1,1-0.4,2.5-1.4,3.1c-0.7,0.4-2.2,0.5-2.7,0c-1.4-1.4-1.2-4.8-0.6-6.5
				c0.9-2.3,2.4-1.4,4.1-0.9C62.8,78.6,63.3,79.9,63.1,81.5z"/>
			<path class="st1" d="M77.3,80.9c-0.8-2-1-4.2-1.6-6.2c-0.6-1.9-1-4.3-2.2-5.9c-0.8-1-2.4-1.1-3.1,0.2c-0.7,1.4-1.3,2.8-1.8,4.3
				c-0.4,1.1-1,2.3-1,3.5c-0.1,1.4,1.8,1.4,2.5,0.5c0.7-1,1.3-2.1,1.9-3.1c0.3,1.2,0.5,2.4,0.7,3.6c0.3,2.1,0.1,4.2,2.1,5.4
				C76,84.1,77.8,82.4,77.3,80.9z"/>
			<path class="st1" d="M81.7,65.3c-1.2,1.1-1.8,2.6-2,4.2c-0.2,3.1,0.7,7.5,3.4,9.3c3.1,2,6.4-0.2,7-3.6c0.6-3.2-1-6.5-3.1-8.9
				c0.1,0,0.1-0.1,0.2-0.1c1.2-0.7,0.4-2.3-0.8-2.4c-1,0-1.7-0.2-2.6,0.2C83.1,64.2,82.3,64.7,81.7,65.3z M85.5,67.2
				c0.8,1.7,1.6,3.5,1.5,5.4c0,1.3-0.8,4.5-2.5,2.6c-1-1.2-1.6-4-1.4-5.6c0.2-1.1,0.8-1.7,1.8-2.1C85.1,67.4,85.3,67.3,85.5,67.2z"
				/>
			<path class="st1" d="M104,70.2c0-0.1,0-0.3-0.1-0.5c0-0.5-0.1-1-0.1-1.5c-0.1-1.1-0.2-2.2-0.3-3.3c-0.3-2.2-0.8-4.4-1-6.6
				c-0.1-2.1-2.7-2.3-3.7-0.8c-1.7,2.6-3.8,5.7-4.5,8.7c-0.2,0.8,0.6,1.5,1.4,1.2c0.4-0.1,0.6-0.3,0.9-0.6c0,0,0,0,0,0
				c1.1-0.9,2-2.1,2.9-3.3c0.1,0.9,0.1,1.7,0.2,2.6c0.1,2-0.3,4.4,0.7,6.2c0.4,0.8,1.6,1.1,2.4,0.8c0.1,0,0.1,0,0.2-0.1
				C104.1,72.5,104.6,71.3,104,70.2z"/>
			<path class="st1" d="M115.3,64c-0.6-2.4-0.9-4.9-1.1-7.4c-0.1-1.8-2.8-2.4-3.5-0.7c-0.7,1.6-1.5,3.1-2.4,4.6
				c-0.7,1-2.1,2.2-1.9,3.5c0,0.4,0.3,0.9,0.8,0.9c0.4,0.1,0.6,0,0.9-0.2c0,0,0,0,0,0c0.3-0.3,1.1-0.7,1.5-1c0.5-0.4,1-0.9,1.5-1.5
				c0.1,0.9,0.3,1.7,0.4,2.6c0.5,2.5,0.8,5.3,2,7.6c1,1.9,4.4,0.8,4-1.4C117,68.6,115.9,66.4,115.3,64z"/>
			<path class="st1" d="M127.9,73.4c3.4-2.1,2.9-5.7,2.1-9.2c0.1-0.2,0.2-0.3,0.2-0.5c0.5-2.4-0.7-4.4-2.4-6
				c-1.5-1.5-3.9-2.1-5.8-0.9c-3.9,2.4-3.4,7.9-2.4,11.8c0.4,1.8,1.1,3.6,2.7,4.7C124,74.5,126.2,74.4,127.9,73.4z M124.4,70.3
				c-0.8-0.6-1-2.1-1.2-3c-0.3-1.3-0.5-2.6-0.4-3.9c0.1-0.8,0.3-2.7,1.3-3c0.8-0.2,1.2,1.1,1.5,1.7c0.6,1.2,1.3,1.8,2.4,2.3
				c0.1,1.8-0.1,3.5-1,4.9C126.4,70.1,125.4,71,124.4,70.3z"/>
			<path class="st1" d="M72.9,103.1c0.3-3.9-4.5-4.7-6.9-2.5c-2.6,2.4-3.2,7.1-1.9,10.3c1.4,3.4,5.4,4.7,8.2,2
				c2.8-2.7,1.6-6.3,0.6-9.6C72.9,103.3,72.9,103.2,72.9,103.1z M71,108.3c-0.3,1.5-2,4.1-3.4,2c-1-1.4-0.9-3.8-0.3-5.4
				c0.5-1.4,2-3,3.2-1.2c0.1,0.2,0.3,0.3,0.4,0.4C71.1,105.4,71.2,106.9,71,108.3z"/>
			<path class="st1" d="M85.8,96.9c-0.4-2.3-0.6-5.5-2.5-7.1c-1.1-1-2.8-0.4-3.2,1.1c-0.6,2.3-1,4.6-1.7,6.9
				c-0.3,1.1-1.7,3.7-0.6,4.7c0.4,0.3,1,0.3,1.3-0.1c0,0,0,0,0.1-0.1c0.1-0.1,0.2-0.3,0.2-0.5c0.2-0.5,1-1.3,1.2-1.7
				c0.5-0.9,1-1.8,1.4-2.7c0.1,0.8,0.2,1.6,0.3,2.5c0.3,2.3,0.5,5,1.4,7.2c1,2.5,4.6,1.3,3.9-1.4C86.9,102.7,86.4,99.9,85.8,96.9z"
				/>
			<path class="st1" d="M96.3,89.9c-0.3-2.1-3-2.3-3.7-0.3c-0.9,3-1.8,5.9-3,8.8c-0.4,1,0.4,1.7,1.3,1.5c0.2,0,0.3-0.1,0.5-0.1
				c0.6-0.1,0.7-0.7,0.6-1.1c0.5-0.7,1-1.5,1.4-2.3c0.3,2.1,0.6,4.3,1,6.4c0.6,3.9,6.5,2.3,5.1-1C97.9,97.9,96.8,94,96.3,89.9z"/>
			<path class="st1" d="M115.7,89.9c0.1,0.3,0-0.9,0-1c-0.1-0.6-0.4-1-0.8-1.4c-0.7-0.8-1.8-1.5-2.8-1.9c-1.9-0.8-4.1-0.6-5.4,1.1
				c-2.5,3-1.4,8.4,0.3,11.6c1.7,3.2,5.5,4.4,8.5,2.1c3.2-2.5,2.3-6.9,0.4-9.9C115.8,90.2,115.8,90.1,115.7,89.9z M113.5,97.3
				c-1.7,1.4-3.1,0.6-3.7-1.3c-0.5-1.6-1.4-4.8-0.4-6.3c0.5-0.7,1,0,1.6,0.5c0.4,0.4,0.8,0.8,1.3,1c0.3,0.1,0.6,0.3,1,0.4
				c0.2,0,0.4,0,0.5,0c0.2,0.1,0.4,0.1,0.5,0.1C115,93.7,115.2,95.9,113.5,97.3z"/>
			<path class="st1" d="M132,88.1c-0.7-1.9-1.4-3.7-2-5.7c-0.5-1.5-2.8-1.7-3.5-0.2c-0.9,1.9-2.1,4.2-2.4,6.3
				c-0.2,1.1,1.3,1.6,1.8,0.9c0.7-0.5,1.3-1.1,1.8-1.8c0.2,0.6,0.4,1.2,0.5,1.8c0.5,1.8,0.7,4.2,1.8,5.7c1.3,1.8,4.2,0.9,4.1-1.4
				C134,91.8,132.7,89.9,132,88.1z"/>
		</g>
		<g>
			<g>
				<path class="st2" d="M285.8,27.9c1.8,1.8,4.4,1.8,6.6,0.9c2.2-0.9,3.7-2.7,4.7-4.9c0.7-1.6,0.9-3.1,1-4.7
					c0.2-0.2,0.3-0.4,0.4-0.7c0.2-1.2,0.7-2.2,0.6-3.5c-0.1-1.2-0.7-2.5-1.6-3.3c-1.6-1.5-4.2-1.6-6.2-1.1
					c-4.7,1.2-7.8,5.7-7.5,10.4C283.8,23.3,284.1,26.2,285.8,27.9z M291.8,15.2c0.6-0.2,2-0.6,2.5-0.1c0.3,0.3,0.3,1.5,0.5,2
					c0.1,0.4,0.3,0.7,0.5,1.1c-0.6,2-1.6,4-3.1,5.3c-0.7,0.6-2.3,1.8-3.1,1.2c-0.7-0.5-0.8-2.8-0.8-3.6
					C288.1,18.5,289.3,16.2,291.8,15.2z"/>
			</g>
			<g>
				<path class="st2" d="M312.9,22.4c2.1-1.5,3.3-4.1,3.7-6.6c1.5-3.3,1.3-7.3-0.1-10.7c-0.7-1.9-1.8-4-3.8-4.8
					c-2-0.8-4.2-0.2-5.7,1.3c-1.6,1.6-2,4-2.3,6.2c-0.3,2.8-0.5,5.7-0.2,8.5C305.1,20.3,308.4,25.7,312.9,22.4z M307.9,7.8
					c0.2-1.5,0.7-4.5,2.7-4.6c1.6-0.1,2,2.6,2.2,3.8c0.5,3.4-0.4,6.9-1,10.2c-0.1,0.5,0.1,1,0.3,1.4c-0.9,1-2.1,1.9-3.2,0.9
					c-1.3-1.2-1.4-3.5-1.4-5.2C307.4,12.1,307.5,9.9,307.9,7.8z"/>
			</g>
			<g>
				<path class="st2" d="M332.5,31c3.2-0.5,4.1-3.2,4.3-6.2c1.2-1.9,2.1-3.8,2.5-6.1c0.4-2.5,0.3-5.2-0.5-7.7
					c-1-3.2-5.2-9.8-9.1-5.9c-1.7,1.6-2.4,4.3-2.7,6.6c-0.5,2.9-0.6,5.9-0.6,8.9C326.5,24,327.3,31.9,332.5,31z M330.3,14.4
					c0.1-1.1,0.3-2.2,0.5-3.2c0.2-0.9,0.5-2.5,1.3-3.1c0.7-0.6,1.3,0.7,1.7,1.4c0.4,0.8,0.7,1.6,1,2.5c0.5,2,0.3,4.2,0,6.2
					c-0.4,2.3-0.7,4.7-1.2,7.1c0,0.2,0,0.4,0,0.5c-0.5,0.9-1,1.4-1.7,1.3c-1.7-0.3-1.7-3.8-1.8-5C329.9,19.5,330,16.9,330.3,14.4z"
					/>
			</g>
			<g>
				<path class="st2" d="M279,46.4c1.7,0.7,3.5-0.7,4.7-1.7c0.9-0.7,1.7-1.5,2.5-2.3c0.2,2.4,0.4,4.7,0.7,7.1
					c0.2,1.8,0.3,3.6,0.5,5.4c0.2,1.7,0,3.2,1.6,4.2c1.5,1,3.1-0.4,3.2-1.9c0.1-1.4-0.3-2.9-0.5-4.3c-0.2-1.6-0.4-3.2-0.6-4.7
					c-0.4-3.2-0.9-6.4-1.2-9.6c-0.2-1.4-1.6-2.5-3-1.7c-1.6,1-2.8,2.3-3.9,3.8c-0.5,0.7-1,1.4-1.6,2c-0.3,0.4-0.7,0.7-1.1,1
					c-0.2,0.2-0.7,0.4-0.8,0.5c-0.4,0-0.8,0.3-1,0.8c0,0.1,0,0.1-0.1,0.2C278.3,45.6,278.5,46.2,279,46.4z"/>
			</g>
			<g>
				<path class="st2" d="M303.2,37.2c0,1.4-0.1,2.8-0.2,4.2c-0.2,3.1-1,6.6-0.4,9.7c0.5,2.4,4,2.1,4.6,0c0.8-2.9,0.2-6.7,0.1-9.7
					c-0.1-3.4-0.4-6.7-0.3-10.1c0.1-2-2.7-2.7-3.7-1c-1.7,3-3.3,6-5.4,8.7c-0.7,0.9,0.2,2.5,1.3,1.7C300.6,39.6,302,38.5,303.2,37.2
					z"/>
			</g>
			<g>
				<path class="st2" d="M319.7,52.1c0,1.7,0,2.8,1.5,3.9c1.9,1.4,4-0.8,3.7-2.7c0-2.6-0.5-5.3-0.7-7.9c-0.2-2.9-0.4-5.8-0.3-8.7
					c0-2.3-2.8-2.6-4-1.1c-1.4,1.8-2.4,3.9-3.5,5.8c-1,1.9-2.2,3.7-2.9,5.8c-0.4,1.2,1.1,1.8,1.9,1.1c1.7-1.5,3-3.4,4.3-5.1
					c0-0.1,0.1-0.1,0.1-0.2c0,1.4,0,2.7,0,4.1C319.9,48.7,319.8,50.4,319.7,52.1z"/>
			</g>
			<g>
				<path class="st2" d="M340.3,49c0.1,2,0.2,4.1,0.4,6.1c0.2,1.8,0.4,3.5,0.7,5.3c0.2,0.9,0.4,1.7,0.4,2.6c0.1,0.9,0,1.8,0.3,2.7
					c0.5,1.6,3,2.8,4.3,1.1c1.3-1.7,1.3-3.4,0.8-5.4c-0.5-1.9-1.2-3.7-1.7-5.5c-0.9-3.9-1.5-8-1.5-12c0-2.1-2.7-2.7-3.8-1
					c-1.3,2-2.4,4.1-4,5.9c-1,1.2-2.9,2.2-2.2,4c0.5,1.2,2.3,0.3,2-0.9c0.1,0.7,1.9-0.8,2.1-1C338.9,50.2,339.6,49.7,340.3,49
					C340.3,49.1,340.3,49.1,340.3,49z"/>
			</g>
			<g>
				<path class="st2" d="M287,83.4C287,83.4,287,83.4,287,83.4C287,83.4,287,83.4,287,83.4z"/>
			</g>
			<g>
				<path class="st2" d="M296.5,86.7c-0.1-1.5-0.2-2.9-0.3-4.4c-0.2-2.9-0.5-5.8-0.5-8.7c0-1.8-2-2.3-3.3-1.4
					c-1.7,1.3-2.8,3.4-4.1,5c-1.3,1.7-2.9,3.2-4.1,5c-0.7,1.1,0.6,2.1,1.6,1.6c0,0,0,0,0,0c0.2-0.1,0.3-0.2,0.5-0.3
					c0.3-0.1,0.6-0.2,0.6-0.2c0.2-0.1,0.3-0.2,0.3-0.4c1.4-1,2.8-2.3,4-3.5c0.3-0.3,0.5-0.5,0.8-0.8c0.1,1.9,0.1,3.7,0.1,5.6
					c0.1,1.8,0.1,3.6,0.1,5.4c0.1,1.5,0.3,2.7,1.7,3.5c1.8,1.1,3.7-1,2.8-2.8C296.4,89.6,296.6,87.7,296.5,86.7z"/>
			</g>
			<g>
				<path class="st2" d="M313.6,70.2c-4.7-3.5-8.5,3.3-9.6,6.9c-0.7,2.4-1.1,4.9-0.9,7.4c0.1,2.1,0.4,4.6,1.9,6.2
					c1.4,1.4,3.5,1.8,5.4,1.3c2.2-0.6,3.6-2.2,4.4-4.3c0.9-2.3,0.9-4.8,0.6-7.2c-0.3-2.6-1.8-5.3-1.6-7.9
					C314.4,72,314.5,70.9,313.6,70.2z M308.4,88.7c-2.8-0.3-2-6.9-1.6-8.7c0.5-2.4,1.8-7,4.8-7.1c-0.1,2.7,0.9,5.3,0.9,8
					C312.6,83.3,311.9,89.1,308.4,88.7z"/>
			</g>
			<g>
				<path class="st2" d="M330.5,67.8c-3.9-0.3-7.6,2.3-9.1,6c-1.8,4.4-1.2,11.4,2.8,14.5c4.4,3.5,10.7-1.4,12.9-5.4
					c2.8-5.1-0.2-11.7-3.8-15.6C332.3,66.3,331,66.8,330.5,67.8z M333.3,79.5c-0.4,2.1-4.6,7.8-7,5.7c-2.5-2.2-2.9-7.2-1.9-10.2
					c0.9-2.7,3.4-4.7,6.1-5c0.4,1.6,1,3,1.7,4.6C332.9,76.1,333.7,77.9,333.3,79.5z"/>
			</g>
			<g>
				<path class="st2" d="M274.5,118.6c-0.1-2.4-0.3-4.7-0.4-7.1c-0.1-1.8,0.3-4.4-1.6-5.4c-0.9-0.5-1.9-0.3-2.7,0.3
					c-1.5,1.3-2.8,2.8-4.1,4.3c-1.3,1.4-2.7,2.7-3.7,4.3c-1,1.5,1,2.9,2.2,2.2c0,0,0,0,0,0c1.6-1,2.9-2.4,4.3-3.6
					c0.5-0.4,1-0.9,1.5-1.3c0.1,1.1,0.1,2.2,0.2,3.2c0.1,2.1,0.1,4.3,0.2,6.4c0,2.1,0,4.3,0.1,6.4c0.1,1.7,0.7,3.7,2.7,3.5
					c0.8,0,1.6-0.5,1.8-1.4c0.3-1.1-0.1-3.1-0.1-4.9C274.8,123.4,274.6,121,274.5,118.6z"/>
			</g>
			<g>
				<path class="st2" d="M292,105.4c-1.9-1.2-4.5-0.5-6.2,0.7c-3.9,3-4.5,9.3-4.7,13.8c-0.1,2.7,0,5.4,0.6,8
					c0.5,2.3,2.1,3.4,4.4,3.4c2.4,0,4.9-1.1,6.2-3.1c0.6-0.9,0.8-1.9,1-2.9c1.9-1.3,2.2-4.2,2.4-6.3c0.2-2.6,0-5.2-0.6-7.7
					C294.6,109.5,293.9,106.5,292,105.4z M286.2,127.2c-0.1,0-0.4,0-0.4,0c-0.2-0.1-0.3-1.8-0.4-2c-0.1-1.1-0.2-2.2-0.2-3.3
					c-0.1-2.3,0.1-4.6,0.6-6.9c0.4-1.8,0.8-4,2.2-5.3c0.3-0.2,0.6-0.5,1-0.6c0.7-0.2,0.5-0.4,0.8,0.3c0.4,0.9,0.6,1.9,0.8,2.9
					c0.4,1.9,0.5,3.9,0.3,5.8c-0.2,1.9-1.2,4.4-0.5,6.3c0,0,0,0,0,0c0,0.1-0.1,0.2-0.1,0.2C289.6,125.8,287.6,127.6,286.2,127.2z"/>
			</g>
			<g>
				<path class="st2" d="M315.5,106.1c-0.8-2-2.3-3.9-4.6-4.1c-2.6-0.2-4.4,1.7-5.7,3.7c-2.7,4.1-4.2,9.5-3.4,14.4
					c0.7,4.5,4.7,8.7,9.6,7.5c2.4-0.6,4.4-2.4,5-4.8c0.4-1.6,0.3-3.3,0-5C316.8,113.8,316.9,109.8,315.5,106.1z M309.3,123.6
					c-4.7-0.3-4.2-7.1-3.4-10.2c0.6-2,1.5-4,2.7-5.7c0.4-0.5,1.1-1.7,1.8-1.5c0.6,0.1,0.9,1.4,1,2c0.5,2.3,0.2,4.8,0.1,7.1
					c-0.2,2.4-0.1,4.6,0.6,6.9C311.5,123.1,310.5,123.7,309.3,123.6z"/>
			</g>
			<g>
				<path class="st2" d="M335.5,112.6c0-4.3-0.2-8.6-1.1-12.8c-0.3-1.5-2-1.9-3.2-1.3c-2.3,1.1-4.3,2.8-6.1,4.6
					c-0.9,0.9-1.8,1.8-2.7,2.7c-0.6,0.7-1.6,1.4-1.9,2.3c-0.4,1.3,1.7,2.3,2.3,1c0,0.1,1.1-0.5,1-0.5c0.5-0.3,0.9-0.7,1.4-1
					c0.9-0.6,1.7-1.2,2.6-1.9c0.9-0.6,1.8-1.3,2.7-1.9c0.2,2.7,0.2,5.4,0.1,8.2c0,1.8-0.1,3.6-0.1,5.4c0,1.8-0.3,3.9,0.3,5.7
					c0.7,2,3.1,2.2,4.3,0.6c0.2-0.2,0.3-0.6,0.3-0.9c0-0.1,0-0.3,0-0.4c0,0,0,0.1,0,0.1c0.1-1.1,0-2.1,0-3.2
					C335.5,117.1,335.5,114.8,335.5,112.6z"/>
			</g>
			<g>
				<path class="st2" d="M355,117.5c-0.6-1.3-0.3-3.4-0.3-4.8c-0.1-1.9-0.2-3.9-0.4-5.8c-0.2-1.8-0.4-3.6-0.7-5.4
					c-0.2-1.6-0.5-2.9-2-3.8c-0.8-0.5-2-0.3-2.7,0.3c-2.7,2.7-5.6,5.2-8.3,7.9c-1,0.8,0.1,2.4,1.3,1.8c2.6-1.2,5.1-2.9,7.4-4.6
					c0.1,0.7,0.1,1.3,0.2,2c0.1,1.7,0.2,3.4,0.3,5.1c0,1.6,0.1,3.2,0,4.8c-0.1,1.6-0.4,3,0,4.6C350.9,123.5,356.7,121.3,355,117.5z"
					/>
			</g>
			<g>
				<path class="st2" d="M281.6,78.1c-0.1-0.3-0.4-0.6-0.7-0.6c-0.4-0.6-0.9-1.3-1.4-1.8c-1.9-1.9-4.9-1.2-6.8,0.3
					c-4.2,3.2-5.2,9.7-4.2,14.6c0.4,2.3,1.3,5.1,3.7,6c2.3,0.9,5.1,0,6.8-1.6C283,90.9,282.7,83.2,281.6,78.1z M278,89.8
					c-0.7,1.4-1.9,2.9-3.4,3.4c-2,0.6-2.5-1.5-2.8-3c-0.8-3.2-0.4-7.1,1.6-9.9c0.7-0.9,2.4-2.9,3.5-1.7c0.5,0.6,0.7,1.7,0.9,2.4
					c0.3,0.9,0.7,1.7,1,2.5c0.1,0.3,0.3,0.5,0.6,0.6c0,0.1,0,0.2-0.1,0.4C279.1,86.3,278.8,88.2,278,89.8z"/>
			</g>
		</g>
		<g>
			<g>
				<path class="st3" d="M58.5,128.2c-6.3-11.5-9.9-24.2-13.3-36.8c-1.9-7-4-13.9-5.6-20.9c-0.8-3.3-1.5-6.7-2.2-10
					c-0.3-1.6-0.6-3.2-0.9-4.9c-0.1-0.7-0.2-1.4-0.3-2.1C36.1,53,36,52.6,36,52.2c0-0.1-0.1-0.6,0-0.1c0-0.2-0.1-0.4-0.1-0.6
					c0-0.2,0-0.4-0.1-0.6c0-0.2-0.2-1.5-0.1-1c0,0.3,0-0.1,0-0.2c0-0.3-0.1-0.6-0.1-0.8c-0.1-0.7-0.2-1.5-0.3-2.2
					c-0.2-1.7-0.4-3.4-0.7-5c-0.4-2.4-1-4.8-1.4-7.3c-0.3-1.9-3.5-1.9-3.8,0c-0.3,2.3-0.7,4.6-0.7,6.9c0.1,2.9,0.4,5.7,0.9,8.6
					c1,6.4,2.4,12.8,3.8,19.2c1.6,7.1,3.3,14.1,5.3,21.1c2,7,4.7,13.8,7.7,20.4c2.9,6.4,5.8,12.9,9.5,18.9
					C56.9,131.2,59.3,129.8,58.5,128.2L58.5,128.2z"/>
			</g>
		</g>
		<g>
			<g>
				<path class="st3" d="M31.8,36.8c6.4-2.4,12.5-5.3,19-7.4c6.5-2.1,13-3.9,19.6-5.5c12.9-3.2,26.3-5.4,39.6-6
					c3.8-0.2,7.6-0.2,11.4-0.2c3.8,0,7.9,0.6,11.7-0.1c2.7-0.5,2.5-4.6,0-5.3c-3.4-0.9-7.3-0.5-10.8-0.4c-3.4,0.1-6.7,0.3-10.1,0.5
					c-6.9,0.5-13.8,1.2-20.7,2.3c-13.4,2.1-26.7,5.2-39.5,9.9c-7.3,2.7-14.8,5.2-21.7,8.9C28.7,34.4,29.9,37.5,31.8,36.8L31.8,36.8z
					"/>
			</g>
		</g>
		<g>
			<g>
				<path class="st3" d="M131.1,15.8c2.4,5,4.3,10.2,5.6,15.6c1.4,5.7,2.5,11.5,3.6,17.3c2.2,11.6,3.9,23.4,5.2,35.2
					c0.8,6.8,0.9,13.6,2.3,20.2c0.5,2.5,4.2,1.8,4.3-0.6c0.4-6.1-0.6-12-1.3-18c-0.7-6.1-1.6-12.3-2.6-18.3
					c-2-11.8-4.4-23.6-7.7-35.2c-1.7-6.1-3.7-12.1-6.5-17.8C132.9,12.2,130.2,13.9,131.1,15.8L131.1,15.8z"/>
			</g>
		</g>
		<g>
			<g>
				<path class="st3" d="M57.2,130.3c3.3,0.1,6.5-0.6,9.8-1.1c3.1-0.5,6.2-0.9,9.4-1.4c6.4-1,12.9-2.1,19.3-3.4
					c12.5-2.5,25-5.5,37.2-9c3.4-1,6.7-2,9.9-3.2c1.6-0.6,3.2-1.3,4.8-2.1c0.8-0.4,1.7-0.8,2.4-1.3c1-0.6,1.5-1.4,1.8-2.5
					c0.3-1.1-0.4-2.3-1.5-2.6c-1-0.3-1.8-0.3-2.7,0.1c-0.7,0.3-1.3,0.7-2,1c-1.3,0.7-2.7,1.3-4.1,1.9c-2.7,1.2-5.5,2.2-8.3,3.1
					c-6,2-12,3.9-18.2,5.5c-12.3,3.2-24.9,5.9-37.4,8.3c-3.4,0.6-6.8,1.3-10.3,1.8c-3.5,0.6-7.2,0.9-10.6,2
					C55.3,128,55.6,130.2,57.2,130.3L57.2,130.3z"/>
			</g>
		</g>
		<g>
			<g>
				<path class="st3" d="M19.1,31.7C19,39,19.2,46.3,19.8,53.5c0.7,7.2,1.7,14.5,2.8,21.6c2.3,14.4,5.9,28.5,10.8,42.2
					c1.4,3.9,2.9,7.8,4.5,11.6c1.6,3.8,3.2,7.5,5.4,11c1.3,2.1,5.2,0.8,4.2-1.8c-2.6-6.8-6-13.2-8.7-20c-2.7-6.6-5-13.4-7.1-20.2
					c-4.2-13.8-7.2-27.9-8.4-42.3c-0.7-8-1.1-16-1.1-24.1C22.3,29.6,19.1,29.6,19.1,31.7L19.1,31.7z"/>
			</g>
		</g>
		<g>
			<g>
				<path class="st3" d="M20.9,32.8C33.9,25.4,48,20.2,62.5,16.3c15.1-4,30.7-7.4,46.4-8.7c4.5-0.4,9-0.4,13.5-0.3
					c2.2,0.1,4.5,0.2,6.7,0.4c1.1,0.1,2.2,0.4,3.4,0.4c1.1,0,2.2,0,3.3,0c2.4,0,2.9-3.5,0.6-4.2c-2-0.6-4-1-6.1-1.1
					c-2.1-0.1-4.2-0.3-6.2-0.3c-4.1-0.1-8.2,0-12.3,0.3c-8.3,0.6-16.4,1.8-24.6,3.3C72,9.1,56.7,12.8,42.2,18.3
					c-8.1,3.1-15.9,6.7-23.2,11.5C17.2,31,18.9,33.9,20.9,32.8L20.9,32.8z"/>
			</g>
		</g>
		<g>
			<g>
				<path class="st3" d="M134.6,6.7c3.4,4.8,5.3,10.7,7.1,16.3c2.1,6.6,4.1,13.3,6.1,20c4.3,14.4,7.7,29.1,10.2,43.9
					c0.7,4,1.3,8.1,1.8,12.1c0.5,4.3,0.8,8.7,1.8,13c0.6,2.5,4.3,1.9,4.4-0.6c0.2-3.8-0.4-7.7-0.9-11.4c-0.5-3.9-1.1-7.7-1.7-11.6
					c-1.2-7.6-2.7-15.1-4.5-22.6c-1.7-7.3-3.7-14.6-6-21.7c-2.2-6.9-4.6-13.7-7.1-20.6c-2.3-6.4-4.7-13.1-9-18.5
					C135.7,3.9,133.6,5.5,134.6,6.7L134.6,6.7z"/>
			</g>
		</g>
		<g>
			<g>
				<path class="st3" d="M45,141.3c8.3-0.5,16.5-1.6,24.6-2.8c8.2-1.2,16.3-2.6,24.5-4.2c15.8-3.1,31.8-6.5,47.2-11.2
					c4.1-1.3,8.2-2.8,12.2-4.3c2.1-0.8,4.2-1.7,6.3-2.6c1-0.4,2-1,2.8-1.7c0.9-0.7,1.5-1.7,2.2-2.6c0.7-1-0.2-2.7-1.5-2.6
					c-0.9,0.1-1.8,0.1-2.7,0.3c-1,0.2-2,0.8-2.9,1.2c-1.7,0.8-3.3,1.8-5,2.6c-3.4,1.7-7,2.9-10.6,4.1c-7.4,2.4-14.9,4.4-22.5,6.3
					c-15.8,4-31.8,7.3-47.8,10c-9.1,1.5-18.2,2.8-27.3,4.3C42.9,138.5,43.3,141.4,45,141.3L45,141.3z"/>
			</g>
		</g>
		<g>
			<g>
				<path class="st3" d="M18.8,30.6c-3.9,5.4-7.2,11-10.4,16.9c-1.6,2.8-3,5.7-4.5,8.6c-0.7,1.5-1.5,3-2.2,4.6
					c-0.7,1.6-1.2,3.2-1.7,4.9c-0.5,2,2.4,3.3,3.4,1.4c1.6-2.8,2.7-5.8,4-8.8c1.3-3,2.7-6,4.2-9c2.9-5.8,6.3-11.4,9.8-17
					C22.7,30.4,20,29,18.8,30.6L18.8,30.6z"/>
			</g>
		</g>
		<g>
			<g>
				<path class="st3" d="M0.1,66c0.5,6.8,1.3,13.5,2.2,20.2c0.9,6.9,2.5,13.7,4.2,20.4c3.4,13.5,7.9,26.9,13.8,39.6
					c3.2,6.8,6.6,13.8,11,19.9c1.6,2.2,5.1,0.3,3.7-2.2c-3.4-5.7-6.8-11.4-9.7-17.3c-3-6.1-5.6-12.4-7.9-18.8
					c-4.6-12.9-8-26.2-10.3-39.7c-0.6-3.7-1.5-7.3-2.1-11C4.5,73.4,4,69.7,3.6,66C3.4,63.8-0.1,63.7,0.1,66L0.1,66z"/>
			</g>
		</g>
		<g>
			<g>
				<path class="st3" d="M163.1,109.8c-1.8,1.2-2.9,3.6-4,5.3c-1.1,1.7-2.2,3.4-3.4,5.1c-2.4,3.5-4.8,6.9-7.6,10.1
					c-2.7,3.2-5.5,6.2-8.4,9.2c-1.5,1.5-2.9,3.1-4.4,4.6c-1.6,1.6-3.4,3.2-4.6,5.2c-1.2,1.9,1.3,4.7,3.2,3.2
					c1.9-1.3,3.3-3.2,4.8-4.9c1.5-1.7,2.9-3.3,4.3-5c2.7-3.3,5.4-6.6,8-10c2.6-3.4,5.3-6.6,7.8-10.1c1.3-1.8,2.5-3.6,3.7-5.4
					c1.2-1.8,2.8-3.8,2.9-6C165.7,110,164.1,109.1,163.1,109.8L163.1,109.8z"/>
			</g>
		</g>
		<g>
			<g>
				<path class="st3" d="M106.7,147.7c-1.5,6.3-2.3,12.8-2.8,19.3c-0.3,3.2-0.5,6.4-0.7,9.5c-0.2,3.3-0.5,6.6-0.2,10
					c0.3,3.3,4.6,3.2,5,0c0.4-3.2,0.3-6.3,0.2-9.5c0-3.2,0-6.4,0.1-9.5c0.2-6.3,0.8-12.6,1.6-18.9
					C110.2,146.5,107.3,145.5,106.7,147.7L106.7,147.7z"/>
			</g>
		</g>
		<g>
			<g>
				<path class="st3" d="M85.1,153.1c-0.3,5.6-0.1,11.3,0,16.9c0.1,2.9,0.2,5.8,0.3,8.7c0.1,2.8,0.3,5.6,1.1,8.4
					c0.8,2.8,5.3,2.4,5.2-0.7c-0.1-2.7-0.6-5.3-1-8c-0.5-2.9-0.8-5.7-1.1-8.6c-0.6-5.5-0.9-11.1-0.8-16.7
					C88.9,150.7,85.2,150.7,85.1,153.1L85.1,153.1z"/>
			</g>
		</g>
		<g>
			<g>
				<path class="st3" d="M34.8,167.6c1.7,1,4.3,0.5,6.3,0.5c2-0.1,4.1-0.2,6.1-0.3c4.2-0.3,8.3-0.6,12.5-1c4.1-0.4,8.1-0.8,12.2-1.3
					c2.2-0.3,4.4-0.5,6.6-0.9c1-0.2,1.9-0.3,2.9-0.6c1.1-0.4,2.2-0.8,3.2-1.2c2.1-0.8,1.9-4-0.5-4c-1.1,0-2.1-0.1-3.2-0.1
					c-1.1,0-2.3,0.2-3.4,0.4c-1.9,0.3-3.9,0.6-5.8,0.9c-4.1,0.7-8.1,1.3-12.2,1.8c-4.1,0.5-8.1,1-12.2,1.3c-2,0.2-4.1,0.3-6.1,0.5
					c-1.9,0.2-4.7-0.1-6.3,1.1C33.8,165.4,33.6,166.9,34.8,167.6L34.8,167.6z"/>
			</g>
		</g>
		<g>
			<g>
				<path class="st3" d="M108.3,159.1c4.3-0.3,8.5-0.8,12.7-1.5c2-0.3,4-0.7,6-1.1c2.2-0.4,4.2-1.2,6.2-2.3c1.7-0.9,0.8-3.4-0.9-3.4
					c-4.3-0.1-8.3,1-12.4,2c-4,0.9-8,1.9-12.1,2.9C105.9,156.2,106.3,159.3,108.3,159.1L108.3,159.1z"/>
			</g>
		</g>
		<g>
			<g>
				<path class="st3" d="M42.5,138.3c-2.2,4.3-4.1,8.7-6,13.1c-1,2.2-1.9,4.5-2.9,6.7c-0.9,2.2-2.5,4.5-2.8,6.9
					c-0.2,2,2.7,3,3.9,1.6c1.5-1.7,2.1-4.5,2.9-6.6c0.9-2.3,1.8-4.5,2.7-6.8c1.7-4.4,3.4-8.7,5.5-13C46.9,138,43.7,136.1,42.5,138.3
					L42.5,138.3z"/>
			</g>
		</g>
		<g>
			<g>
				<path class="st3" d="M87.2,188.5c2.4,2.7,6.6,3.3,10,3.3c1.7,0,3.5-0.1,5.2-0.3c1.8-0.2,3.7-0.5,5.3-1.5c1.6-1,2-3,0.9-4.5
					c-1.1-1.5-3.2-1.6-4.6-0.3c-0.3,0.2-0.3,0.2,0,0c-0.1,0.1-0.3,0.2-0.5,0.3c-0.6,0.4,0.4-0.1-0.3,0.1c-0.6,0.2-1.3,0.4-1.9,0.5
					c-1.4,0.3-2.8,0.5-4.2,0.6c-1.4,0.1-2.9,0.2-4.2,0c-1.4-0.2-2.7-0.7-3.9-1.2C87.2,184.9,86.1,187.3,87.2,188.5L87.2,188.5z"/>
			</g>
		</g>
		<g>
			<g>
				<path class="st3" d="M88.2,154.5c3-1.9,6.3-3.2,9.8-3.9c1.6-0.3,3.3-0.4,4.9-0.4c0.9,0,1.9,0.1,2.8,0.2c0.2,0,0.5,0.1,0.7,0.1
					c-0.5-0.1-0.4,0,0.3,0.2c0.8,0.2,1.6,0,2.3-0.4c1.4-0.8,1.6-2.8,0.5-3.9c-1.1-1.1-2.3-0.9-3.7-1c-0.9,0-1.9-0.1-2.8,0
					c-2.1,0.1-4.1,0.4-6.1,0.9c-3.8,1-7.4,2.7-10.6,5.1c-0.8,0.6-1.2,1.5-0.6,2.4C86.2,154.6,87.4,155,88.2,154.5L88.2,154.5z"/>
			</g>
		</g>
		<g>
			<g>
				<path class="st3" d="M84.6,179.4c-3.2,1.8-6.4,3.6-9.4,5.7c-3.1,2.1-6.2,4.3-9.2,6.4c-3,2.2-6,4.4-8.9,6.8
					c-1.4,1.2-2.8,2.3-4.3,3.5c-1.5,1.3-3.2,2.4-4.2,4.2c-1.4,2.4,1.3,4.6,3.6,3.6c1.7-0.8,3-2.4,4.4-3.7c1.4-1.2,2.7-2.5,4.1-3.6
					c2.7-2.3,5.4-4.7,8.3-6.9c2.8-2.2,5.6-4.3,8.6-6.3c3-2.1,6-4.2,9.1-6.3C88.6,181.3,86.8,178.2,84.6,179.4L84.6,179.4z"/>
			</g>
		</g>
		<g>
			<g>
				<path class="st3" d="M105.5,178.4c0.9,0.6,2.2,0.7,3.3,0.9c1.1,0.2,2.2,0.4,3.4,0.6c2.2,0.3,4.5,0.7,6.7,1.1
					c4.6,0.8,9.1,1.6,13.7,2.5c4.4,0.9,8.7,1.8,13,3.1c2,0.6,4,1.2,6,1.9c2,0.8,3.9,1.9,5.8,2.8c1.3,0.5,2.9-0.5,3.4-1.6
					c0.6-1.4,0-2.7-1.2-3.5c-1.8-1.4-4.2-2.2-6.3-2.9c-2-0.7-4-1.3-6-1.7c-4.4-1.1-8.9-2.1-13.3-3c-4.6-0.9-9.2-1.8-13.9-2.4
					c-2.3-0.3-4.5-0.6-6.8-0.8c-1.1-0.1-2.3-0.2-3.4-0.3c-1.2-0.1-2.7-0.4-3.9,0.1C104.4,175.6,104.1,177.4,105.5,178.4L105.5,178.4
					z"/>
			</g>
		</g>
		<g>
			<g>
				<path class="st3" d="M156.5,187.6c-5,1.9-10.2,3.2-15.4,4.8c-5.3,1.6-10.7,3.1-16.1,4.6c-11.9,3.4-23.8,6.8-35.8,10.1
					c-7,2-14,3.8-20.5,6.9c-1,0.5-1.3,1.8-0.9,2.7c0.5,1,1.4,1.4,2.5,1.2c6.3-1,12.4-3,18.5-4.8c6.2-1.9,12.3-3.8,18.5-5.7
					c10.9-3.4,21.9-6.9,32.8-10.2c5.8-1.8,11.5-3.9,17.2-6.1C159.5,190.2,158.7,186.8,156.5,187.6L156.5,187.6z"/>
			</g>
		</g>
		<g>
			<g>
				<path class="st3" d="M49.9,208.8c6.1,3.2,12.7,5.5,19.1,8c2.1,0.8,3.4-2.5,1.5-3.6c-5.9-3.4-12.7-4.8-18.9-7.5
					c-0.9-0.4-1.9-0.3-2.4,0.6C48.8,207.2,49,208.4,49.9,208.8L49.9,208.8z"/>
			</g>
		</g>
		<g>
			<g>
				<path class="st3" d="M73.4,230.2c-0.6,1.7-1.1,3.4-1.3,5.3c-0.2,2.1,0,4.1,0.2,6.2c0.4,3.9,0.7,7.9,1,11.8
					c0.5,7.9,1.4,15.7,2.2,23.6c1.7,15.7,3.3,31.4,6.1,46.9c0.7,3.6,1.3,7.2,2,10.8c0.7,3.8,1.5,7.4,3.1,10.9c0.5,1.1,2.1,1.5,3.1,1
					c1.2-0.5,1.7-1.7,1.5-3c-1-6.2-2.3-12.4-3.6-18.6c-1.5-7.4-2.5-14.9-3.6-22.4c-1.1-7.6-2.2-15.2-3.2-22.8
					c-1-7.9-1.9-15.8-3-23.7c-0.6-4.2-1.1-8.5-1.5-12.7c-0.2-2.1-0.5-4.2-0.6-6.4c-0.1-2.1,0.5-4.1,1.1-6.2
					C77.4,229,74.1,228.2,73.4,230.2L73.4,230.2z"/>
			</g>
		</g>
		<g>
			<g>
				<path class="st3" d="M75.1,232.4c5.6-0.7,11-2.8,16.3-4.6c5.4-1.8,10.8-3.7,16.2-5.6c10.7-3.7,21.4-7.3,32.4-10.1
					c3-0.8,6-1.5,9.1-2.3c1.5-0.4,3-0.8,4.5-1.5c1.4-0.6,2.8-1.2,4.2-1.9c1.9-0.9,0.8-3.7-1-3.7c-2.9-0.1-5.7,0-8.5,0.6
					c-2.7,0.6-5.3,1.4-7.9,2.2c-5.3,1.7-10.7,3.5-15.9,5.4c-10.7,3.8-21.4,7.9-32.2,11.7c-3,1.1-6.1,2.1-9.1,3.2c-3,1-6.1,2-8.9,3.4
					C72.8,229.9,73.4,232.6,75.1,232.4L75.1,232.4z"/>
			</g>
		</g>
		<g>
			<g>
				<path class="st3" d="M155.3,206.2c2,6.9,3,14,4,21.1c1.2,8.6,2.1,17.2,3.1,25.8c1.7,15.9,2.8,31.8,4.2,47.6c0.3,3,0.5,5.9,1,8.8
					c0.2,0.9,0.4,1.8,0.7,2.7c0.2,0.7,0.5,1.9,1.1,2.4c-0.2-0.3-0.3-0.6-0.5-0.8c0,0,0,0.1,0,0.1c0.1,1,1.5,1.6,2.4,1.3
					c1.1-0.3,1.5-1.3,1.3-2.4c0,0,0-0.1,0-0.1c-0.1,0.5-0.1,1-0.2,1.5c0.4-0.6,0.4-1.7,0.5-2.4c0-0.3,0.1-0.7,0.1-1
					c0.1-0.7,0,0.3,0,0c0.1-0.5,0.1-0.9,0.1-1.3c0-2.3-0.2-4.6-0.4-6.8c-0.6-6.9-1.2-13.8-2-20.7c-1.9-17.6-3.7-35.2-6.9-52.6
					c-1.5-8.1-3.2-16.1-5.2-24.1C158.1,203.1,154.7,204,155.3,206.2L155.3,206.2z"/>
			</g>
		</g>
		<g>
			<g>
				<path class="st3" d="M89.3,346.9c3.1,0.7,6.5-0.3,9.5-1.1c2.8-0.7,5.6-1.5,8.4-2.2c5.7-1.6,11.4-3.3,17-5.3
					c11-3.8,21.8-8.4,32.1-13.8c2.9-1.5,5.8-3.2,8.6-4.9c1.4-0.9,2.8-1.7,4.2-2.6c0.7-0.5,1.5-0.9,2.2-1.4c0.9-0.6,1.4-1.5,1.9-2.5
					c1.1-1.8-0.7-4-2.7-3.5c-0.8,0.2-1.6,0.3-2.3,0.7c-0.6,0.3-1.2,0.9-1.8,1.3c-1.2,0.9-2.3,1.7-3.5,2.5c-2.4,1.6-4.8,3.2-7.2,4.6
					c-4.9,3-10,5.7-15.2,8.1c-10.3,4.8-21.1,8.6-32,11.8c-3.1,0.9-6.1,1.8-9.2,2.6c-3.3,0.9-6.6,1.9-10,2.6
					C87.8,344.1,87.8,346.5,89.3,346.9L89.3,346.9z"/>
			</g>
		</g>
		<g>
			<g>
				<path class="st3" d="M47.7,206.8c-4.9,12.4-8.6,25.4-12,38.3c-1.7,6.7-3.4,13.3-4.8,20.1c-1.4,6.4-3,12.8-4.1,19.3
					c-0.6,3.6-1.2,7.3-1.6,11c-0.2,1.8-0.4,3.5-0.6,5.3c-0.2,1.8-0.2,3.6-0.5,5.4c-0.1,0.8-0.2,1.5,0,2.3c0.1,0.5,0.4,0.9,0.6,1.4
					c0.2,0.6,0.3,1.2,0.3,1.8c0.1,0.8,0.1,1.5,0.2,2.3c0.2,1.8,0.3,3.4,0.4,5.3c0.6,9.3,1.7,18.7,3.1,27.9c0.7,4.8,1.5,9.5,2.5,14.3
					c0.4,2,0.9,4,1.7,5.9c0.3,0.6,0.6,1.3,0.9,1.9c0.1,0.2,0.3,0.5,0.5,0.7c0.2,0.3,1,1.4,0.5,0.7c1.4,2.5,5.2,0.3,3.8-2.2
					c0.4,0.7,0,0,0-0.3c-0.1-0.2-0.1-0.4-0.2-0.7c-0.2-0.6-0.3-1.3-0.5-1.9c-0.3-1.6-0.8-3.1-1.2-4.6c-1.1-4-2-8-2.8-12
					c-1.8-9-3.3-18.1-4.3-27.3c-0.4-3.4-0.7-6.7-0.4-10.1c0.1-0.8,0.3-1.4,0.6-2c0.6-1.2,0.5-2.1,0.5-3.3c-0.1-1.9,0.2-3.9,0.4-5.8
					c0.3-3.6,0.8-7.1,1.2-10.6c0.8-6.4,1.6-12.9,2.9-19.2c1.4-6.5,2.9-13.1,4.5-19.6c3.6-14.4,8-28.7,11.2-43.2
					C51.2,205.6,48.4,204.9,47.7,206.8L47.7,206.8z"/>
			</g>
		</g>
		<g>
			<g>
				<path class="st3" d="M60.8,226.7c-1.6,2.2-2.1,4.9-2.6,7.6c-0.5,2.7-1,5.4-1.4,8.2c-0.2,1.4-0.3,2.8-0.4,4.3
					c-0.1,1.4-0.4,2.8-0.6,4.1c-0.5,2.8-1.1,5.5-1.7,8.3c-2.3,10.8-4.8,21.5-7,32.3c-0.6,2.9-1.2,5.7-1.7,8.6
					c-0.3,1.5-0.5,2.9-0.8,4.4c-0.3,1.5-0.6,2.9-0.6,4.4c0.1,2,2.6,2.2,3.3,0.4c0.9-2.3,1.1-5,1.6-7.4c0.5-2.6,1-5.1,1.5-7.7
					c1-5.3,2.1-10.7,3.2-16c1.1-5.5,2.2-10.9,3.4-16.4c1.1-5.5,2.1-11,3.9-16.3c1-2.9,1.6-5.9,2.1-9c0.6-3.1,1.3-6.4,0.4-9.5
					C62.9,225.9,61.4,225.8,60.8,226.7L60.8,226.7z"/>
			</g>
		</g>
		<g>
			<g>
				<path class="st3" d="M44,308.9c0.9,10.1,3.2,20,5.1,30c0.9,4.9,1.8,9.8,2.6,14.7c0.4,2.5,0.8,5.1,1.3,7.6c0.5,2.6,1,5.2,2.3,7.5
					c1,1.8,3.5,0.8,3.7-1c0.2-2.6-0.4-5.3-1-7.9c-0.5-2.5-1.2-5-1.7-7.5c-1.1-4.8-2.1-9.5-3-14.3c-1.8-9.9-3.2-19.9-5.9-29.5
					C46.9,306.6,43.8,306.9,44,308.9L44,308.9z"/>
			</g>
		</g>
		<g>
			<g>
				<path class="st3" d="M35.9,368c-2.5,3.6-2.2,8.3-1,12.3c1.3,4.3,3.6,8.5,5.8,12.4c0.8,1.4,1.7,2.8,2.7,4.1
					c1,1.4,1.9,2.9,2.8,4.4c1.1,1.8,2.1,3.6,3.2,5.4c0.6,0.9,1.1,1.9,1.7,2.8c0.9,1.6,1.7,3.6,3.5,4.2c2.6,0.9,5.6,0.3,8.1-0.7
					c2.7-1.1,6-3.3,5.8-6.6c-0.1-1.8-2.5-3.2-3.9-1.6c-0.1,0.1-0.5,0.5-0.1,0.1c-0.2,0.2-0.4,0.3-0.6,0.5c-0.1,0.1-0.7,0.5-0.3,0.2
					c-0.2,0.1-0.4,0.3-0.7,0.4c-0.4,0.2-0.9,0.4-1.3,0.6c-0.3,0.1-0.5,0.3-0.8,0.4c-0.1,0-0.7,0.4-0.5,0.2c-0.6,0.3-1.9,0.7-2.8,0.8
					c-0.1,0-0.8,0.2-0.4,0.1c0.4-0.1-0.3,0-0.4,0c-0.2,0-0.5,0-0.7,0c0.4,0,0.2,0-0.1,0c0.6,0.4,1.1,0.9,1.7,1.3
					c-2.1-2.8-4.3-5.5-6.3-8.3c-1.6-2.2-3-4.6-4.3-7c-1.3-2.3-2.8-4.6-4.1-6.9c-1.6-2.9-2.8-5.9-3.7-9c-0.9-3-1.8-6.1-0.5-9.1
					C39.3,367.5,36.8,366.7,35.9,368L35.9,368z"/>
			</g>
		</g>
		<g>
			<g>
				<path class="st3" d="M54.4,367.4c2,2.9,3.9,6.1,5.1,9.4c1.2,3,1.8,6.2,2.5,9.3c0.7,3.2,1,6.2,1.2,9.4c0.1,1.8,0.1,3.6,0.1,5.5
					c0,2,0.4,3.9,0.8,5.9c0.4,1.9,3.3,1.8,3.8,0c0.6-2.1,1-4.1,1-6.3c0-1.8,0-3.6-0.1-5.4c-0.2-3.6-0.6-7.2-1.3-10.7
					c-1.5-7.1-5.8-13.7-10.5-19.1C55.9,363.9,53.3,365.8,54.4,367.4L54.4,367.4z"/>
			</g>
		</g>
		<g>
			<g>
				<path class="st3" d="M50.2,282.6c1.1,12.2,2.1,24.5,3.5,36.7c0.8,7.1,1.7,14.3,2.9,21.4c0.6,3.5,1.2,7.1,2.5,10.4
					c0.6,1.6,1.4,3,2.6,4.2c1.3,1.2,2.8,2.1,4.3,2.8c3.5,1.8,6.9,3.8,10.4,5.5c1.8,0.9,3.7,1.7,5.6,2.4c2,0.7,4.2,0.9,6.3,0.9
					c2.4,0.1,2.4-3,0.5-3.8c-1.5-0.6-3-1.3-4.5-1.9c-1.6-0.6-3.2-1.2-4.8-1.9c-3-1.3-6-2.8-8.8-4.6c-1.3-0.9-2.7-1.7-4.1-2.5
					c-1.1-0.7-1.9-1.5-2.4-2.7c-1.3-3.1-1.9-6.7-2.5-10c-2.3-12-3.7-24.3-5.1-36.4c-0.8-7-1.9-14-3.1-21
					C53.2,280.3,50,280.7,50.2,282.6L50.2,282.6z"/>
			</g>
		</g>
		<g>
			<g>
				<path class="st3" d="M88.3,367.7c3.9,0,7.7-1.1,11.3-2.1c3.5-1,6.9-2.2,10.3-3.4c6.5-2.4,13-4.8,19.4-7.4
					c12.4-5,24.8-10.3,36.3-17.2c2.8-1.7,5.5-3.5,8.2-5.3c2.8-1.9,5.8-3.9,8.1-6.4c1.7-1.9,1.7-5.2-1.1-6c-2.4-0.7-4.3,1.2-6,2.5
					c-2.5,2-4.8,4.1-7.2,5.9c-10.7,7.9-22.5,14.2-34.7,19.5c-6.8,3-13.8,5.7-20.7,8.4c-3.8,1.5-7.7,2.9-11.6,4.2
					c-1.9,0.6-3.9,1.2-5.9,1.7c-2.1,0.6-4.3,1.3-6.4,1.6c-1.1,0.1-2,0.8-2,2C86.2,366.8,87.1,367.7,88.3,367.7L88.3,367.7z"/>
			</g>
		</g>
		<g>
			<g>
				<path class="st3" d="M157.9,189.3c1.8,3.3,2.9,6.1,4.1,9.7c1.4,4.3,2.5,8.7,3.4,13.2c2.3,10.5,4.1,21.1,5.6,31.7
					c1.5,10.8,2.7,22,3.7,33.1c0.9,9.4,1.6,18.9,1.9,28.4c0.1,5.4,0.4,10.9-0.1,16.2c0,0.1,0,0.3,0,0.4c0,0.5,0.1-0.5,0.1-0.5
					c-0.2,1.6-0.1,0.5,0,0.2c-0.3,1.5,0.4,3.1,2,3.5c1.4,0.4,3.3-0.5,3.5-2c0.9-4.8,0.3-10,0.1-14.9c-0.5-9.2-1.1-18.3-1.8-27.5
					c-0.9-11.4-2.3-22.7-3.8-34c-1.5-10.9-3.1-21.8-5.8-32.5c-2.1-8.4-4.5-17-8.4-24.8c-0.4-0.7-0.7-1.5-1.1-2.2
					C160.1,185.1,156.8,187.1,157.9,189.3L157.9,189.3z"/>
			</g>
		</g>
		<g>
			<g>
				<path class="st3" d="M160.7,192c5.4,9.4,11.8,18.2,18.6,26.7c6.3,7.8,13.2,15.1,19.2,23.1c1.8,2.5,3.6,5,5.4,7.5
					c0.9,1.3,1.8,2.5,2.7,3.8c1.1,1.6,2.1,3.4,3.9,4.2c1.6,0.8,4.1-0.1,4-2.3c-0.3-3.2-2.7-5.7-4.6-8.2c-1.7-2.3-3.5-4.5-5.4-6.7
					c-3.3-3.9-6.7-7.8-10.1-11.7c-6.6-7.6-13.5-14.9-19.8-22.8c-4-4.9-7.7-10-11.2-15.3C162.3,188.7,159.7,190.2,160.7,192
					L160.7,192z"/>
			</g>
		</g>
		<g>
			<g>
				<path class="st3" d="M169.9,230.7c4.3,8.2,9.5,16.1,15.1,23.4c2.9,3.8,5.9,7.5,8.9,11.1c1.5,1.8,2.9,3.6,4.4,5.3
					c1.4,1.6,2.7,3.4,4.2,4.9c3.3,3.3,10.1,6.1,14.1,2.7c1.8-1.5,0.4-4.9-2-4.7c-1.7,0.1-3.2,0.9-4.9,0.2c-1.5-0.6-2.8-1.7-3.9-2.8
					c-2.9-3.1-5.6-6.3-8.4-9.5c-5.7-6.6-11.4-13.2-16.6-20.2c-2.9-3.9-5.6-8-8-12.2C171.8,227,168.9,228.7,169.9,230.7L169.9,230.7z
					"/>
			</g>
		</g>
		<g>
			<g>
				<path class="st3" d="M213.8,256.4c1.3-1.9,2.2-4.3,3-6.5c0.8-2.2,1.6-4.3,2.4-6.4c1.5-4.1,3.1-8.2,4.8-12.3
					c3.1-7.9,6.4-15.7,9.8-23.5c6.8-15.7,14.2-31.1,21-46.8c2.1-4.7,4.2-9.4,6.2-14.1c0.9-2.1,1.8-4.1,3-6c0.5-0.8,1-1.5,1.7-2.2
					c0.8-1,1.4-2.1,2-3.2c1-1.8-0.7-4.6-2.9-3.8c-2.3,0.9-3.8,2.2-5,4.4c-1,1.8-1.7,3.7-2.5,5.5c-1.8,4.2-3.6,8.4-5.4,12.6
					c-3.5,8.2-7.2,16.3-10.8,24.4c-6.9,15.9-14,31.7-20.5,47.7c-1.9,4.7-3.8,9.4-5.6,14.1c-0.9,2.4-1.8,4.7-2.7,7.1
					c-1,2.6-1.9,5.2-2.2,7.9C209.9,257.5,212.8,257.9,213.8,256.4L213.8,256.4z"/>
			</g>
		</g>
		<g>
			<g>
				<path class="st3" d="M213.5,278.6c7.3-0.6,10-8.7,12.3-14.5c1.1-2.8,2.2-5.5,3.4-8.2c2.2-4.7,4.2-9.5,6.3-14.3
					c8.3-19,16.2-38.3,25.1-57c4.9-10.4,10.7-20.4,14.7-31.2c0.4-1-0.3-2.1-1.2-2.5c-1.1-0.4-2,0-2.6,0.9c-6.1,8-10,17.2-13.9,26.3
					c-4,9.2-7.7,18.4-11.7,27.6c-7.7,18-15.4,35.9-22.7,54.1c-1.1,2.8-2.4,5.5-4.2,8c-1,1.4-1.8,2.4-3,3.7c-1.2,1.3-2.2,2-3.6,2.8
					C210.6,275.6,211.2,278.8,213.5,278.6L213.5,278.6z"/>
			</g>
		</g>
		<g>
			<g>
				<path class="st3" d="M268.3,168.1c-0.2-3.1,2-4.6,4.5-6c2.7-1.5,5.8-2,8.7-2.6c5.5-1.2,11-2.3,16.6-3c6.6-0.9,13.3-1.6,19.9-2.5
					c6.9-1,13.8-2.2,20.7-3.5c7.9-1.5,15.6-3.4,23.1-6.3c0.9-0.3,1.5-1.1,1.4-2.1c-0.1-0.9-0.9-1.7-1.9-1.7
					c-7.5,0.5-15,1.9-22.3,3.5c-7.2,1.6-14.5,3.1-21.8,4.5c-12.8,2.3-25.8,3.5-38.5,6.5c-3.6,0.8-7.7,1.7-10.5,4.3
					c-2.6,2.4-4,6-3.5,9.5C265.1,170.5,268.4,170.1,268.3,168.1L268.3,168.1z"/>
			</g>
		</g>
		<g>
			<g>
				<path class="st3" d="M310,145c4.4-0.3,8.7-0.6,13.1-1.1c4.2-0.5,8.5-1,12.7-1.4c4.3-0.4,8.5-0.7,12.8-0.9
					c2.1-0.1,4.3-0.2,6.4-0.2c2.3-0.1,5.1,0.3,7-1.2c0.9-0.7,0.8-2.4,0-3.1c-1.7-1.6-4.8-1.4-7-1.4c-2.1,0-4.3,0.1-6.4,0.3
					c-4.4,0.4-8.8,1-13.2,1.6c-8.6,1.3-17.2,2.6-25.8,4.2C307.7,142.1,308.1,145.1,310,145L310,145z"/>
			</g>
		</g>
		<g>
			<g>
				<path class="st3" d="M311.2,138.4c7.3-0.5,14.6-0.6,21.9-0.9c7.3-0.3,14.7,0.1,22-0.6c2.8-0.3,2.8-4,0-4.3
					c-7.3-0.9-14.9-0.3-22.2,0.1c-7.4,0.4-14.8,1.4-22.1,2.5C309,135.5,309.4,138.5,311.2,138.4L311.2,138.4z"/>
			</g>
		</g>
		<g>
			<g>
				<path class="st3" d="M303.1,134.6c4.3-0.5,8.6-1.1,12.9-1.6c0.9-0.1,1.7-0.7,1.7-1.7c0-0.8-0.8-1.7-1.7-1.7
					c-4.3,0.4-8.6,0.7-12.9,1.1c-1,0.1-2,0.8-1.9,1.9C301.2,133.6,302,134.7,303.1,134.6L303.1,134.6z"/>
			</g>
		</g>
		<g>
			<g>
				<path class="st3" d="M147.3,344.6c-1.5,6.9-2.9,13.7-4.4,20.6c-0.7,3.4-1.4,6.8-2.2,10.2c-0.7,3.5-1.7,6.9-2.3,10.4
					c-0.2,1.2,0.3,2.4,1.5,2.7c1.1,0.3,2.4-0.4,2.7-1.5c0.8-3.4,1.2-6.9,1.9-10.3c0.7-3.5,1.3-7,2-10.5c1.3-6.9,2.6-13.8,3.9-20.7
					C150.8,343.4,147.7,342.5,147.3,344.6L147.3,344.6z"/>
			</g>
		</g>
		<g>
			<g>
				<path class="st3" d="M121.1,354.5c-0.3,4.8-0.1,9.7,0.1,14.5c0.3,8.5,0.5,17.1,1.6,25.6c0.1,1.1,0.8,2,2,2c1.1,0,2-0.9,2-2
					c0.1-8.5-0.7-17.1-1.3-25.6c-0.4-4.8-0.8-9.7-0.6-14.5C125,352.1,121.3,352.1,121.1,354.5L121.1,354.5z"/>
			</g>
		</g>
		<g>
			<g>
				<path class="st3" d="M108.9,401.3c0.5-6.7,0.4-13.5,0.3-20.2c0-6.8,0-13.5-0.7-20.2c-0.3-2.8-4.2-2.9-4.4,0
					c-0.6,6.7-0.1,13.5,0.3,20.2c0.4,6.7,0.7,13.5,1.4,20.2C106,403.2,108.8,403.3,108.9,401.3L108.9,401.3z"/>
			</g>
		</g>
		<g>
			<g>
				<path class="st3" d="M76.5,363.6c1.3,7,2.8,14.1,4.3,21.1c0.7,3.6,1.5,7.1,2.3,10.7c0.8,3.4,1.4,7,2.6,10.2
					c0.4,1,1.2,1.6,2.3,1.5c1-0.1,1.8-1,1.8-2c-0.2-3.6-1.1-7.1-1.9-10.6c-0.8-3.6-1.7-7.2-2.6-10.8c-1.7-7-3.5-14-5.1-21.1
					C79.6,360.2,76,361.2,76.5,363.6L76.5,363.6z"/>
			</g>
		</g>
		<line class="st4" x1="54.4" y1="220.3" x2="62.8" y2="227.4"/>
	</g>
</g>
</svg>
