<?xml version="1.0" encoding="utf-8"?>
<!-- Generator: Adobe Illustrator 24.3.0, SVG Export Plug-In . SVG Version: 6.00 Build 0)  -->
<svg version="1.1" id="Layer_1" xmlns="http://www.w3.org/2000/svg" xmlns:xlink="http://www.w3.org/1999/xlink" x="0px" y="0px"
	 viewBox="0 0 360 360" style="enable-background:new 0 0 360 360;" xml:space="preserve">
<style type="text/css">
	.st0{fill:#198986;}
	.st1{fill:#44C1C5;}
</style>
<g>
	<path class="st0" d="M313.6,351.8c-8.7-26.7-17.4-44.8-25.1-60.8c-15-31.1-26.9-55.8-27.3-122.7h-43.9
		c-0.5,66.8-12.3,91.5-27.3,122.6c7.6,16.2,15.7,35.2,23.9,60.9h-8.6c-10.3-31.6-20.5-52.8-29.5-71.6c-18.1-37.6-31.3-64.9-31.7-143
		H91.9c-0.4,78.1-13.6,105.4-31.7,143c-9,18.8-19.2,40-29.5,71.6H-0.2v8.2h360.3v-8.2H313.6z"/>
	<path class="st1" d="M143.7,72c-6.9,0-12.3,2.4-16,7.3c-3.8,4.9-5.6,11.4-5.6,19.6c0,8.2,1.9,14.7,5.6,19.6c3.7,4.9,9.1,7.3,16,7.3
		c6.9,0,12.3-2.4,16-7.3c3.8-4.9,5.6-11.4,5.6-19.6c0-8.2-1.9-14.7-5.6-19.6S150.6,71.9,143.7,72z M143.7,111.5c-4.7,0-7-4.2-7-12.6
		c0-8.4,2.3-12.6,7-12.6s7,4.2,7,12.6C150.7,107.3,148.4,111.5,143.7,111.5L143.7,111.5z"/>
	<path class="st1" d="M267.1,72c-6.9,0-12.3,2.4-16,7.3c-3.8,4.9-5.6,11.4-5.6,19.6c0,8.2,1.9,14.7,5.6,19.6c3.7,4.9,9.1,7.3,16,7.3
		c6.9,0,12.3-2.4,16-7.3s5.6-11.4,5.6-19.6c0-8.2-1.9-14.7-5.6-19.6S274.1,72,267.1,72z M267.1,111.5c-4.7,0-7-4.2-7-12.6
		s2.3-12.6,7-12.6c4.7,0,7,4.2,7,12.6S271.8,111.5,267.1,111.5L267.1,111.5z"/>
	<path class="st1" d="M69.5,0c-6.9,0-12.3,2.4-16,7.3c-3.8,4.9-5.6,11.4-5.6,19.6c0,8.2,1.9,14.7,5.6,19.6c3.7,4.9,9.1,7.3,16,7.3
		c6.9,0,12.3-2.4,16-7.3s5.6-11.4,5.6-19.6c0-8.2-1.9-14.7-5.6-19.6C81.7,2.4,76.4,0,69.5,0z M69.5,39.5c-4.7,0-7-4.2-7-12.6
		c0-8.4,2.3-12.6,7-12.6c4.7,0,7,4.2,7,12.6C76.5,35.3,74.1,39.5,69.5,39.5L69.5,39.5z"/>
	<path class="st1" d="M163.7,2.5c-6.9,0-12.3,2.4-16,7.3c-3.8,4.9-5.6,11.4-5.6,19.6c0,8.2,1.9,14.7,5.6,19.6s9.1,7.3,16,7.3
		c6.9,0,12.3-2.4,16-7.3c3.8-4.9,5.6-11.4,5.6-19.6c0-8.2-1.9-14.7-5.6-19.6C176,4.9,170.7,2.5,163.7,2.5z M163.7,42
		c-4.7,0-7-4.2-7-12.6s2.3-12.6,7-12.6c4.7,0,7,4.2,7,12.6S168.4,42,163.7,42L163.7,42z"/>
	<path class="st1" d="M219.9,33.6c-6.9,0-12.3,2.4-16,7.3c-3.8,4.9-5.6,11.4-5.6,19.6c0,8.2,1.9,14.7,5.6,19.6
		c3.7,4.9,9.1,7.3,16,7.3c6.9,0,12.3-2.4,16-7.3c3.8-4.9,5.6-11.4,5.6-19.6c0-8.2-1.9-14.7-5.6-19.6C232.2,36,226.9,33.6,219.9,33.6
		z M219.9,73.1c-4.7,0-7-4.2-7-12.6s2.3-12.6,7-12.6c4.7,0,7,4.2,7,12.6S224.6,73.1,219.9,73.1L219.9,73.1z"/>
	<path class="st1" d="M78.2,79.7l1.3,4.8c0.6,2.1,2.7,3.4,4.9,2.9l0,0c2.2-0.5,4.4,0.8,4.9,3c0.1,0.3,0.1,0.6,0.1,1v26.8
		c0,2.3,1.8,4.1,4.1,4.1h6.5c2.3,0,4.1-1.8,4.1-4.1l0,0V74.9c0-2.3-1.8-4.1-4.1-4.1l0,0h-7.7c-0.5,0-1,0.1-1.4,0.2l-10.2,3.7
		C78.7,75.5,77.6,77.6,78.2,79.7z"/>
	<path class="st1" d="M203.8,111.1l1.3,4.8c0.6,2.1,2.7,3.4,4.9,2.9l0,0c2.2-0.5,4.4,0.8,4.9,3c0.1,0.3,0.1,0.6,0.1,1v26.8
		c0,2.3,1.8,4.1,4.1,4.1h6.5c2.3,0,4.1-1.8,4.1-4.1l0,0v-43.3c0-2.3-1.8-4.1-4.1-4.1l0,0H218c-0.5,0-1,0.1-1.4,0.2l-10.2,3.7
		C204.3,106.9,203.2,109,203.8,111.1z"/>
	<path class="st1" d="M101.2,17.9l1.3,4.8c0.6,2.1,2.7,3.4,4.9,2.9l0,0c2.2-0.5,4.4,0.8,4.9,3c0.1,0.3,0.1,0.6,0.1,1v26.8
		c0,2.3,1.8,4.1,4.1,4.1h6.5c2.3,0,4.1-1.8,4.1-4.1l0,0V13.1c0-2.3-1.8-4.1-4.1-4.1l0,0h-7.7c-0.5,0-1,0.1-1.4,0.2L103.7,13
		C101.7,13.7,100.6,15.8,101.2,17.9z"/>
	<path class="st1" d="M241.7,12.5l1.3,4.8c0.6,2.1,2.7,3.4,4.9,2.9l0,0c2.2-0.5,4.4,0.8,4.9,3c0.1,0.3,0.1,0.6,0.1,1V51
		c0,2.3,1.8,4.1,4.1,4.1h6.5c2.3,0,4.1-1.8,4.1-4.1l0,0V7.8c0-2.3-1.8-4.1-4.1-4.1l0,0h-7.7c-0.5,0-1,0.1-1.4,0.2l-10.2,3.7
		C242.3,8.3,241.1,10.5,241.7,12.5z"/>
</g>
</svg>
