<?xml version="1.0" encoding="utf-8"?>
<!-- Generator: Adobe Illustrator 24.3.0, SVG Export Plug-In . SVG Version: 6.00 Build 0)  -->
<svg version="1.1" id="Layer_1" xmlns="http://www.w3.org/2000/svg" xmlns:xlink="http://www.w3.org/1999/xlink" x="0px" y="0px"
	 viewBox="0 0 360 360" style="enable-background:new 0 0 360 360;" xml:space="preserve">
<style type="text/css">
	.st0{fill:#3C6361;}
	.st1{fill:#60C8D3;}
</style>
<g>
	<path class="st0" d="M334.8,241.9V135.4c10-6.4,16.6-17.3,16.6-29.9c0-19.6-15.9-35.5-35.5-35.5c-6.7,0-12.8,2-18.2,5.2l-80-35.8
		c0.1-1.4,0.4-2.6,0.4-4c0-19.6-15.9-35.5-35.5-35.5s-35.5,15.9-35.5,35.5c0,1.4,0.2,2.6,0.4,4l-83,37.1C58.7,72.5,51.6,70,44,70
		C24.5,70,8.5,86,8.5,105.5c0,14.7,9,27.4,21.8,32.8v92.6c-12.8,5.4-21.8,17.9-21.8,32.6C8.5,283.1,24.5,299,44,299
		c7.7,0,14.7-2.5,20.6-6.6l83.2,38.5c3,16.6,17.4,29.1,34.9,29.1s31.9-12.6,34.9-29.1l73.4-33.9c6.5,6.4,15.3,10.3,25,10.3
		c19.6,0,35.5-15.9,35.5-35.5C351.2,259.2,344.6,248.3,334.8,241.9z M161.5,63.9c5.9,4.4,13.1,7.1,21.1,7.1c7.8,0,15.1-2.6,21.1-7.1
		l77.5,34.6c-0.5,2.2-0.7,4.6-0.7,7c0,1.4,0.2,2.6,0.4,3.9l-46.5,21.1c-12.2-15.2-30.6-25.2-51.7-25.2c-20.9,0-39.5,10-51.7,25.2
		l-51.6-23.3c0-0.5,0.1-1,0.1-1.6c0-1.6-0.2-3.1-0.5-4.7L161.5,63.9z M168.6,292c-5.6,2.4-10.3,6.4-14.1,11.1l-75.5-35
		c0.2-1.5,0.5-3,0.5-4.6c0-14.4-8.7-26.9-21.2-32.4v-93.2c3.2-1.4,6.1-3.4,8.7-5.6l51.3,23.2c-1.2,5.1-2.2,10.5-2.2,16.1
		c0,31.8,22.5,58.4,52.4,64.9V292z M182.6,209.3c-20.8,0-37.7-16.9-37.7-37.7s16.9-37.7,37.7-37.7s37.7,16.9,37.7,37.7
		C220.3,192.5,203.4,209.3,182.6,209.3z M306.7,237.6c-14.8,3.9-25.9,17.2-26.4,33.1l-69.8,32.3c-3.6-4.7-8.5-8.7-14.1-11.1v-55.6
		c29.9-6.5,52.4-33,52.4-64.9c0-5.6-0.9-10.8-2.2-16.1l48-21.7c3.6,2.6,7.6,4.6,12.1,5.9V237.6z"/>
	<circle class="st1" cx="182.6" cy="171.5" r="37.7"/>
</g>
</svg>
