<?xml version="1.0" encoding="utf-8"?>
<!-- Generator: Adobe Illustrator 24.3.0, SVG Export Plug-In . SVG Version: 6.00 Build 0)  -->
<svg version="1.1" id="Layer_1" xmlns="http://www.w3.org/2000/svg" xmlns:xlink="http://www.w3.org/1999/xlink" x="0px" y="0px"
	 viewBox="0 0 360 360" style="enable-background:new 0 0 360 360;" xml:space="preserve">
<style type="text/css">
	.st0{fill:#293D90;}
	.st1{fill:#DF4892;}
</style>
<g>
	<g>
		<g>
			<path class="st0" d="M129.4,309.2h-24.5c-0.8,0-1.4-0.6-1.4-1.4v-22.5c0-0.8,0.6-1.4,1.4-1.4h24.5c0.8,0,1.4,0.6,1.4,1.4v22.5
				C130.9,308.5,130.2,309.2,129.4,309.2z"/>
			<path class="st0" d="M91.2,238.2c-0.3-0.3-0.6-0.4-1-0.4H43.9v8.5c0,0.4,0.2,0.7,0.4,1l26.9,26.9c0.3,0.3,0.6,0.4,1,0.4h46.2
				v-8.5c0-0.4-0.2-0.7-0.4-1L91.2,238.2z"/>
			<path class="st0" d="M2.8,196.7v8.5c0,0.4,0.2,0.7,0.4,1l27.2,27.2v-9.1h43.3c1.3,0,1.9-1.5,1-2.4l-24.8-24.8
				c-0.3-0.3-0.6-0.4-1-0.4H2.8z"/>
			<path class="st0" d="M147.3,221.9l-24.8-24.8c-0.3-0.3-0.6-0.4-1-0.4H74.8c-1.3,0-1.9,1.5-1,2.4l24.8,24.8c0.3,0.3,0.6,0.4,1,0.4
				h46.7C147.5,224.3,148.2,222.8,147.3,221.9z"/>
			<path class="st0" d="M115.9,237.8c-1.3,0-1.9,1.5-1,2.4l25.3,25.3l0,0v9.1h50.7v-8.5c0-0.4-0.2-0.7-0.4-1l-26.9-26.9
				c-0.3-0.3-0.6-0.4-1-0.4H115.9z"/>
		</g>
	</g>
	<path class="st0" d="M149.9,192.8c0.4,0,0.7,0,1.1,0l88-12.5c2.9-0.4,5.5-1.8,7.7-4.4c1.1-1.1,1.8-2.6,1.8-1.8l-2.7,133.4h-223
		c-2.2,0-3.7,1.5-3.7,3.7s1.5,3.7,3.7,3.7h258.3c2.2,0,3.7-1.5,3.7-3.7s-1.5-3.7-3.7-3.7h-11.4L267.5,177c0.7,1.5,1.8,2.6,3.3,3.7
		l72.9,50.6c1.5,1.1,3.3,1.5,4.8,1.5c2.6,0,5.1-1.1,7-3.3c2.6-3.7,2.2-8.8-1.5-11.7l-68.2-57.2c-2.2-1.8-5.1-2.9-8.4-2.9
		c-1.1,0-2.2,0.4-2.9,0.4c-0.4-2.9-1.5-5.5-3.3-8.1c0.4,0,0.7-0.4,0.7-0.4l0,0c2.6-1.8,4.4-4.4,4.8-7.3l19.4-86.9
		c1.1-4.4-1.8-8.8-6.2-9.9c-4.4-1.1-8.8,1.1-10.3,5.5l-27.1,84.3c-0.7,2.9-0.7,5.9,0.7,8.8c0,0.4,0.4,0.7,0.4,0.7
		c-1.8,0.7-3.7,1.8-5.1,3.3c-2.6,2.2-4,5.1-4.8,8.4c-0.4,0-0.4-0.4-0.7-0.4c-2.6-1.5-5.9-1.8-8.8-1.1L148,175.9
		c-4.4,1.1-7.3,5.5-6.2,9.9C142.5,189.9,145.8,192.8,149.9,192.8z M248.5,159.7c0-2.9,1.4-5.3,3.4-7.2c1.9-1.9,4.3-2.9,7.2-2.9h0.5
		c2.9,0,5.3,1.4,7.2,3.4c1.9,1.9,2.9,4.8,2.9,7.7s-1.4,5.3-3.4,7.2c-1.9,1.9-4.8,2.9-7.7,2.9c-2.9,0-5.3-1.4-7.2-3.4
		C249,165,248,162.6,248.5,159.7L248.5,159.7z"/>
	<path class="st1" d="M51.5,47.2C24.6,47.2,2.8,69,2.8,95.9s21.8,48.6,48.6,48.6s48.6-21.8,48.6-48.6S78.4,47.2,51.5,47.2z
		 M45.4,117.8c-1,1-2.3,1.5-3.6,1.5c-1.4,0-2.8-0.5-3.8-1.5l-14.2-14.4l7.6-7.5l10.5,10.6l32.7-30.9l7.3,7.6L45.4,117.8z"/>
</g>
</svg>
