<?xml version="1.0" encoding="utf-8"?>
<!-- Generator: Adobe Illustrator 24.3.0, SVG Export Plug-In . SVG Version: 6.00 Build 0)  -->
<svg version="1.1" id="Layer_1" xmlns="http://www.w3.org/2000/svg" xmlns:xlink="http://www.w3.org/1999/xlink" x="0px" y="0px"
	 viewBox="0 0 360 360" style="enable-background:new 0 0 360 360;" xml:space="preserve">
<style type="text/css">
	.st0{fill:#874F9F;}
	.st1{fill:#F6DB12;stroke:#874F9F;stroke-width:9.0444;stroke-miterlimit:10;}
</style>
<g>
	<g>
		<path class="st0" d="M172.6,59.4v32.5c0,4.2,3.4,7.6,7.6,7.6c4.2,0,7.6-3.4,7.6-7.6V59.4c12.9-3.4,22.7-15.1,22.7-29.1
			c0-16.6-13.6-30.3-30.3-30.3s-30.3,13.6-30.3,30.3C149.9,44.6,159.8,56,172.6,59.4z M180.2,15.1c8.3,0,15.1,6.8,15.1,15.1
			s-6.8,15.1-15.1,15.1c-8.3,0-15.1-6.8-15.1-15.1S171.9,15.1,180.2,15.1z"/>
		<path class="st0" d="M74.3,104.4c5.7,0,10.6-1.5,15.1-4.2l23.1,23.1c1.5,1.5,3.4,2.3,5.3,2.3s3.8-0.8,5.3-2.3c3-3,3-7.6,0-10.6
			L100,89.6c2.6-4.5,4.2-9.8,4.2-15.1c0-16.6-13.6-30.3-30.3-30.3S43.7,57.9,43.7,74.5S58,104.4,74.3,104.4z M74.3,59
			c8.3,0,15.1,6.8,15.1,15.1s-6.8,15.1-15.1,15.1s-15.1-6.8-15.1-15.1S66,59,74.3,59z"/>
		<path class="st0" d="M59.6,187.6h32.5c4.2,0,7.6-3.4,7.6-7.6s-3.4-7.6-7.6-7.6H59.6c-3.4-12.9-15.1-22.7-29.1-22.7
			c-16.6,0-30.3,13.6-30.3,30.3s13.6,30.3,30.3,30.3C44.8,210.3,56.2,200.4,59.6,187.6z M30.8,195.1c-8.3,0-15.1-6.8-15.1-15.1
			s6.8-15.1,15.1-15.1s15.1,6.8,15.1,15.1S39.1,195.1,30.8,195.1z"/>
		<path class="st0" d="M112.9,237.1l-23.1,23.1c-4.5-2.6-9.8-4.2-15.1-4.2c-16.6,0-30.3,13.6-30.3,30.3s13.6,30.3,30.3,30.3
			s30.3-13.6,30.3-30.3c0-5.7-1.5-10.6-4.2-15.1l23.1-23.1c3-3,3-7.6,0-10.6C120.4,234.1,115.5,234.1,112.9,237.1z M74.3,301
			c-8.3,0-15.1-6.8-15.1-15.1s6.8-15.1,15.1-15.1s15.1,6.8,15.1,15.1S83,301,74.3,301z"/>
		<path class="st0" d="M187.8,300.6v-32.5c0-4.2-3.4-7.6-7.6-7.6c-4.2,0-7.6,3.4-7.6,7.6v32.5c-12.9,3.4-22.7,15.1-22.7,29.1
			c0,16.6,13.6,30.3,30.3,30.3s30.3-13.6,30.3-30.3C210.4,315.4,200.6,304,187.8,300.6z M180.2,344.9c-8.3,0-15.1-6.8-15.1-15.1
			s6.8-15.1,15.1-15.1c8.3,0,15.1,6.8,15.1,15.1S188.5,344.9,180.2,344.9z"/>
		<path class="st0" d="M286.1,255.6c-5.7,0-10.6,1.5-15.1,4.2l-23.1-23.1c-3-3-7.6-3-10.6,0c-3,3-3,7.6,0,10.6l23.1,23.1
			c-2.6,4.5-4.2,9.8-4.2,15.1c0,16.6,13.6,30.3,30.3,30.3c16.6,0,30.3-13.6,30.3-30.3C315.9,269.2,302.3,255.6,286.1,255.6z
			 M286.1,301c-8.3,0-15.1-6.8-15.1-15.1s6.8-15.1,15.1-15.1c8.3,0,15.1,6.8,15.1,15.1S294.4,301,286.1,301z"/>
		<path class="st0" d="M329.6,149.7c-14,0-25.7,9.8-29.1,22.7h-32.5c-4.2,0-7.6,3.4-7.6,7.6s3.4,7.6,7.6,7.6h32.5
			c3.4,12.9,15.1,22.7,29.1,22.7c16.6,0,30.3-13.6,30.3-30.3S346.2,149.7,329.6,149.7z M329.6,195.1c-8.3,0-15.1-6.8-15.1-15.1
			s6.8-15.1,15.1-15.1c8.3,0,15.1,6.8,15.1,15.1S338.3,195.1,329.6,195.1z"/>
		<path class="st0" d="M242.2,125.2c1.9,0,3.8-0.8,5.3-2.3l23.1-23.1c4.5,2.6,9.8,4.2,15.1,4.2c16.6,0,30.3-13.6,30.3-30.3
			s-13.6-30.3-30.3-30.3c-16.6,0-30.3,13.6-30.3,30.3c0,5.7,1.5,10.6,4.2,15.1l-23.1,23.1c-3,3-3,7.6,0,10.6
			C238.4,124.4,240.3,125.2,242.2,125.2z M286.1,59c8.3,0,15.1,6.8,15.1,15.1s-6.8,15.1-15.1,15.1c-8.3,0-15.1-6.8-15.1-15.1
			S277.4,59,286.1,59z"/>
	</g>
	<circle class="st1" cx="180.3" cy="180" r="59.7"/>
</g>
</svg>
