<?xml version="1.0" encoding="utf-8"?>
<!-- Generator: Adobe Illustrator 24.3.0, SVG Export Plug-In . SVG Version: 6.00 Build 0)  -->
<svg version="1.1" id="Layer_1" xmlns="http://www.w3.org/2000/svg" xmlns:xlink="http://www.w3.org/1999/xlink" x="0px" y="0px"
	 viewBox="0 0 360 360" style="enable-background:new 0 0 360 360;" xml:space="preserve">
<style type="text/css">
	.st0{fill:#FADA87;}
	.st1{fill:none;}
	.st2{fill:#1D3130;}
</style>
<g>
	<g>
		<g>
			<g>
				<path class="st0" d="M263.7,158.5c-3.1-2.3-8.2-0.3-13.3,1.4c-5.1,2-10.4,4-13.8,1.7c-2-1.1-3.1-3.4-3.7-7.3v-44.6H225h-20.9
					h-76.2v44.6c-0.6,3.7-1.7,5.9-3.7,7.3c-3.4,2-8.8,0-13.8-1.7c-5.1-2-10.2-3.7-13.3-1.4c-8.8,6.5-7.3,21.5-7.1,22v0.3
					c0.3,4.8,1.4,13.3,7.3,17.8c3.1,2.3,8.2,0.3,13.3-1.4c5.1-2,10.2-3.7,13.6-2c2,1.1,3.1,3.1,3.7,6.5v48.6h76.2H225h7.9v-48.8
					c0.6-3.1,1.7-5.4,3.7-6.5c3.4-2,8.5,0,13.6,2c5.4,2,10.2,3.7,13.3,1.4c5.9-4.5,7.1-13,7.3-17.8v-0.3
					C271.1,180,272.5,165,263.7,158.5z"/>
			</g>
		</g>
	</g>
	<g>
		<g>
			<g>
				<path class="st1" d="M127.6,168.4"/>
			</g>
		</g>
	</g>
	<g>
		<g>
			<g>
				<path class="st2" d="M127.6,252.8H12.1c-4.8,0-8.8-4-8.8-8.8V116.2c0-4.8,4-8.8,8.8-8.8h115.5c1.4,0,2.8,1.1,2.8,2.8v44.6v0.3
					c-0.6,4.5-2.3,7.6-5.1,9c-4.5,2.5-10.4,0.6-16.1-1.7c-4.2-1.7-8.8-3.4-10.7-2c-7.3,5.6-5.9,19.5-5.9,19.5s0,0.3,0,0.6
					c0.3,4.2,1.1,11.9,6.2,15.5c2,1.4,6.5-0.3,10.7-2c5.6-2,11.6-4.2,16.1-1.7c2.5,1.4,4.2,4.2,5.1,8.2c0,0.3,0,0.3,0,0.6v48.6
					c0,0.8-0.3,1.4-0.8,2C129,252.6,128.5,252.8,127.6,252.8z M12.1,112.8c-1.7,0-3.4,1.4-3.4,3.4v127.9c0,1.7,1.4,3.4,3.4,3.4
					h112.9V202c-0.6-2.3-1.1-3.7-2.3-4.2c-2.3-1.4-7.1,0.6-11.3,2c-5.6,2-11.6,4.2-15.8,1.1c-6.8-5.1-8.2-14.4-8.5-19.8v-0.3
					c-0.3-1.7-1.4-17.2,8.2-24.6c4.5-3.1,10.2-0.8,15.8,1.1c4.2,1.7,9,3.4,11.3,2c1.1-0.6,2-2.3,2.3-5.1v-41.5H12.1z"/>
			</g>
		</g>
	</g>
	<g>
		<g>
			<g>
				<path class="st1" d="M232.9,168.4"/>
			</g>
		</g>
	</g>
	<g>
		<g>
			<g>
				<path class="st2" d="M348.7,252.8H233.2c-0.8,0-1.4-0.3-2-0.8c-0.6-0.6-0.8-1.1-0.8-2v-48.6c0-0.3,0-0.3,0-0.6
					c0.8-4,2.5-6.8,5.1-8.2c4.5-2.5,10.4-0.3,16.1,1.7c4.2,1.7,8.8,3.4,10.7,2c5.1-3.7,5.9-11.3,6.2-15.5v-0.3
					c0-0.3,1.4-14.1-6.2-19.8c-2-1.4-6.5,0.3-10.7,2c-5.6,2-11.6,4.2-16.1,1.7c-2.5-1.7-4.2-4.5-5.1-9v-0.3V110
					c0-1.4,1.1-2.8,2.8-2.8h115.5c4.8,0,8.8,4,8.8,8.8v127.9C357.5,248.9,353.5,252.8,348.7,252.8z M235.8,247.2h112.9
					c1.7,0,3.4-1.4,3.4-3.4V116.2c0-1.7-1.4-3.4-3.4-3.4H235.8v41.8c0.3,2.5,1.1,4.5,2.3,5.1c2.3,1.4,7.1-0.6,11.3-2
					c5.6-2,11.6-4.2,15.8-1.1c9.9,7.3,8.5,22.9,8.5,24.6v0.3c-0.3,5.1-1.7,14.4-8.5,19.5c-4.5,3.1-10.2,0.8-15.8-1.1
					c-4.2-1.7-9-3.4-11.3-2c-1.1,0.6-1.7,2-2.3,4.2V247.2z"/>
			</g>
		</g>
	</g>
	<g>
		<g>
			<g>
				<path class="st2" d="M348.1,255.4H11.9C5.4,255.4,0,250,0,243.5V116.5c0-6.5,5.4-11.9,11.9-11.9h336.3c6.5,0,11.9,5.4,11.9,11.9
					v127.1C360,250,354.9,255.4,348.1,255.4z M11.9,115.6c-0.6,0-0.8,0.3-0.8,0.8v127.1c0,0.6,0.3,0.8,0.8,0.8h336.3
					c0.6,0,0.8-0.3,0.8-0.8V116.5c0-0.6-0.3-0.8-0.8-0.8L11.9,115.6z"/>
			</g>
		</g>
	</g>
</g>
</svg>
