<?xml version="1.0" encoding="utf-8"?>
<!-- Generator: Adobe Illustrator 24.3.0, SVG Export Plug-In . SVG Version: 6.00 Build 0)  -->
<svg version="1.1" id="Layer_1" xmlns="http://www.w3.org/2000/svg" xmlns:xlink="http://www.w3.org/1999/xlink" x="0px" y="0px"
	 viewBox="0 0 360 360" style="enable-background:new 0 0 360 360;" xml:space="preserve">
<style type="text/css">
	.st0{fill:#010101;}
	.st1{fill:none;stroke:#010101;stroke-width:15.1772;stroke-miterlimit:10;}
</style>
<g>
	<g>
		<circle class="st0" cx="52.8" cy="52.8" r="39.6"/>
	</g>
	<g>
		<polygon class="st0" points="314.6,314.6 52.8,314.6 52.8,299.2 299.2,299.2 299.2,52.8 314.6,52.8 		"/>
	</g>
	<g>
		<path class="st1" d="M52.8,52.8"/>
	</g>
	<g>
		<g>
			<rect x="52.8" y="42.5" class="st0" width="22.8" height="21.2"/>
		</g>
		<g>
			<rect x="151.8" y="42.5" class="st0" width="57.2" height="21.2"/>
		</g>
		<g>
			<rect x="284.5" y="42.5" class="st0" width="22.8" height="21.2"/>
		</g>
	</g>
	<g>
		
			<rect x="0.2" y="172.4" transform="matrix(0.7071 -0.7071 0.7071 0.7071 -74.7105 179.9343)" class="st0" width="359.3" height="15.4"/>
	</g>
	<g>
		
			<ellipse transform="matrix(0.9985 -5.529898e-02 5.529898e-02 0.9985 -16.909 3.3887)" class="st0" cx="52.8" cy="307.2" rx="37.4" ry="37.4"/>
		<path class="st0" d="M52.8,360C23.5,360,0,336.5,0,307.2c0-29.3,23.5-52.8,52.8-52.8s52.8,23.5,52.8,52.8
			C105.6,336.5,82.2,360,52.8,360z M52.8,284.5c-12.4,0-22.8,10.2-22.8,22.8c0,12.4,10.2,22.8,22.8,22.8s22.8-10.2,22.8-22.8
			C75.5,294.7,65.3,284.5,52.8,284.5z"/>
	</g>
	<g>
		<circle class="st0" cx="307.2" cy="307.2" r="37.4"/>
		<path class="st0" d="M307.2,360c-29.3,0-52.8-23.5-52.8-52.8c0-29.3,23.5-52.8,52.8-52.8c29.3,0,52.8,23.5,52.8,52.8
			C360,336.5,335.8,360,307.2,360z M307.2,284.5c-12.4,0-22.8,10.2-22.8,22.8c0,12.4,10.2,22.8,22.8,22.8
			c12.5,0,22.8-10.2,22.8-22.8C329.2,294.7,319.6,284.5,307.2,284.5z"/>
	</g>
	<g>
		<circle class="st0" cx="307.2" cy="52.8" r="37.4"/>
		<path class="st0" d="M307.2,105.6c-29.3,0-52.8-23.5-52.8-52.8S277.8,0,307.2,0C336.6,0,360,23.5,360,52.8
			S335.8,105.6,307.2,105.6z M307.2,30.1c-12.4,0-22.8,10.2-22.8,22.8s10.2,22.8,22.8,22.8c12.5,0,22.8-10.2,22.8-22.8
			S319.6,30.1,307.2,30.1z"/>
	</g>
</g>
</svg>
