<?xml version="1.0" encoding="utf-8"?>
<!-- Generator: Adobe Illustrator 24.3.0, SVG Export Plug-In . SVG Version: 6.00 Build 0)  -->
<svg version="1.1" id="Layer_1" xmlns="http://www.w3.org/2000/svg" xmlns:xlink="http://www.w3.org/1999/xlink" x="0px" y="0px"
	 viewBox="0 0 360 360" style="enable-background:new 0 0 360 360;" xml:space="preserve">
<style type="text/css">
	.st0{opacity:0.5;}
	.st1{fill:#063753;}
	.st2{fill:#214F60;}
	.st3{fill:#324E5C;}
</style>
<g>
	<g>
		<g class="st0">
			<g>
				<g>
					<g>
						<g>
							<path class="st1" d="M103.4,279.9h0.2c0.1,0,0.1,0,0.1-0.1v-41c0-0.1,0-0.1-0.1-0.1h-0.2c-0.1,0-0.1,0-0.1,0.1v41
								C103.3,279.9,103.3,279.9,103.4,279.9z"/>
						</g>
					</g>
				</g>
				<g>
					<g>
						<g>
							<polygon class="st2" points="103.5,281.8 101.5,281.8 101.3,279.8 101.3,236.9 105.3,236.8 105.6,238.9 105.6,281.7 							
								"/>
						</g>
					</g>
				</g>
			</g>
		</g>
		<g class="st0">
			<g>
				<g>
					<g>
						<g>
							<path class="st3" d="M176.8,241.3h79.8c0.1,0,0.1,0,0.1-0.1v-38.4c0-0.1,0-0.1-0.1-0.1h-79.8c-0.1,0-0.1,0-0.1,0.1v38.4
								C176.7,241.2,176.8,241.3,176.8,241.3z"/>
						</g>
					</g>
				</g>
				<g>
					<g>
						<g>
							<path class="st2" d="M256.6,243.2h-81.7l-0.1-2.1v-40.3l2.1-0.1h81.7l0.1,2.1v40.3L256.6,243.2z M178.7,239.3h76.1v-34.7
								h-76.1V239.3z"/>
						</g>
					</g>
				</g>
			</g>
		</g>
		<g class="st0">
			<g>
				<g>
					<g>
						<g>
							<path class="st3" d="M103.8,318.5h152.8c0.1,0,0.1-0.1,0.1-0.1V280c0-0.1-0.1-0.1-0.1-0.1H103.8c-0.1,0-0.1,0.1-0.1,0.1v38.3
								C103.6,318.4,103.7,318.5,103.8,318.5z"/>
						</g>
					</g>
				</g>
				<g>
					<g>
						<g>
							<path class="st2" d="M256.6,320.4H101.9l-0.2-2.1v-40.1l2.1-0.2h154.7l0.2,2.1v40.1L256.6,320.4z M105.6,316.5h149.3v-34.7
								H105.6V316.5z"/>
						</g>
					</g>
				</g>
			</g>
		</g>
		<g>
			<g>
				<g>
					<g>
						<g>
							<g>
								<path class="st3" d="M256.4,324H103.6c-3.1,0-5.9-2.6-5.9-5.7V201.9c0-3.1,2.9-5.7,5.9-5.7h152.7c3.1,0,5.9,2.6,5.9,5.7
									v116.5C262.3,321.4,259.4,324,256.4,324z M108.8,312.9h142.4V207.3H108.8V312.9z"/>
							</g>
						</g>
					</g>
					<g>
						<g>
							<g>
								<path class="st2" d="M256.4,326H103.6c-4.2,0-7.9-3.6-7.9-7.6V201.9c0-4.1,3.7-7.6,7.9-7.6h152.7c4.2,0,7.9,3.6,7.9,7.6
									v116.5C264.2,322.4,260.6,326,256.4,326z M103.6,198.1c-2.1,0-4,1.8-4,3.8v116.5c0,1.9,1.9,3.8,4,3.8h152.7
									c2.1,0,4-1.8,4-3.8V201.9c0-1.9-1.9-3.8-4-3.8H103.6z M253.1,314.8H106.9V205.3h146.2V314.8z M110.8,311h138.5V209.2H110.8
									V311z"/>
							</g>
						</g>
					</g>
				</g>
			</g>
			<g>
				<g>
					<g>
						<g>
							<g>
								<rect x="103.3" y="238.9" class="st3" width="153.5" height="3.3"/>
							</g>
						</g>
					</g>
					<g>
						<g>
							<g>
								<rect x="101.3" y="237" class="st2" width="157.3" height="7.2"/>
							</g>
						</g>
					</g>
				</g>
			</g>
			<g>
				<g>
					<g>
						<g>
							<g>
								<rect x="103.3" y="278.2" class="st3" width="153.5" height="3.3"/>
							</g>
						</g>
					</g>
					<g>
						<g>
							<g>
								<rect x="101.3" y="276.3" class="st2" width="157.3" height="7.2"/>
							</g>
						</g>
					</g>
				</g>
			</g>
			<g>
				<g>
					<g>
						<g>
							<g>
								<path class="st1" d="M103.3,323"/>
							</g>
						</g>
					</g>
				</g>
			</g>
			<g>
				<g>
					<g>
						<g>
							<g>
								<path class="st1" d="M256.7,323"/>
							</g>
						</g>
					</g>
				</g>
			</g>
			<g>
				<g>
					<g>
						<g>
							<g>
								<rect x="177.8" y="203.7" class="st3" width="3.3" height="114.8"/>
							</g>
						</g>
					</g>
					<g>
						<g>
							<g>
								<rect x="175.8" y="201.7" class="st2" width="7.2" height="118.7"/>
							</g>
						</g>
					</g>
				</g>
			</g>
			<g>
				<g>
					<g>
						<g>
							<g>
								<path class="st1" d="M103.6,203.7"/>
							</g>
						</g>
					</g>
				</g>
			</g>
			<g>
				<g>
					<g>
						<g>
							<g>
								<path class="st1" d="M103.6,318.5"/>
							</g>
						</g>
					</g>
				</g>
			</g>
		</g>
	</g>
	<g class="st0">
		<g>
			<g>
				<g>
					<path class="st1" d="M103.6,115.7h0.2c0.1,0,0.1,0,0.1-0.1v-41c0-0.1,0-0.1-0.1-0.1h-0.2c-0.1,0-0.1,0-0.1,0.1v41
						C103.4,115.6,103.5,115.7,103.6,115.7z"/>
				</g>
			</g>
			<g>
				<g>
					<polygon class="st2" points="103.7,117.6 101.6,117.6 101.5,115.5 101.5,72.7 105.5,72.6 105.7,74.6 105.7,117.5 					"/>
				</g>
			</g>
		</g>
	</g>
	<g>
		<g>
			<g>
				<g>
					<g>
						<g>
							<path class="st1" d="M256.6,163.8H103.8c-3.1,0-5.9-2.6-5.9-5.7V41.7c0-3.1,2.9-5.7,5.9-5.7h152.7c3.1,0,5.9,2.6,5.9,5.7
								v116.5C262.5,161.2,259.6,163.8,256.6,163.8z M109,152.7h142.4V47.1H109V152.7z"/>
						</g>
					</g>
				</g>
				<g>
					<g>
						<g>
							<path class="st1" d="M256.6,165.8H103.8c-4.2,0-7.9-3.6-7.9-7.6V41.7c0-4.1,3.7-7.6,7.9-7.6h152.7c4.2,0,7.9,3.6,7.9,7.6
								v116.5C264.4,162.2,260.7,165.8,256.6,165.8z M103.8,37.9c-2.1,0-4,1.8-4,3.8v116.5c0,1.9,1.9,3.8,4,3.8h152.7
								c2.1,0,4-1.8,4-3.8V41.7c0-1.9-1.9-3.8-4-3.8H103.8z M253.3,154.6H107.1V45.2h146.2V154.6z M110.9,150.8h138.5V49H110.9
								V150.8z"/>
						</g>
					</g>
				</g>
			</g>
		</g>
		<g>
			<g>
				<g>
					<g>
						<g>
							<rect x="103.4" y="78.7" class="st1" width="153.5" height="3.3"/>
						</g>
					</g>
				</g>
				<g>
					<g>
						<g>
							<rect x="101.5" y="76.8" class="st1" width="157.3" height="7.2"/>
						</g>
					</g>
				</g>
			</g>
		</g>
		<g>
			<g>
				<g>
					<g>
						<g>
							<rect x="103.4" y="118" class="st1" width="153.5" height="3.3"/>
						</g>
					</g>
				</g>
				<g>
					<g>
						<g>
							<rect x="101.5" y="116.1" class="st1" width="157.3" height="7.2"/>
						</g>
					</g>
				</g>
			</g>
		</g>
		<g>
			<g>
				<g>
					<g>
						<g>
							<path class="st1" d="M103.4,162.8"/>
						</g>
					</g>
				</g>
			</g>
		</g>
		<g>
			<g>
				<g>
					<g>
						<g>
							<path class="st1" d="M256.9,162.8"/>
						</g>
					</g>
				</g>
			</g>
		</g>
		<g>
			<g>
				<g>
					<g>
						<g>
							<rect x="177.9" y="43.5" class="st1" width="3.3" height="114.8"/>
						</g>
					</g>
				</g>
				<g>
					<g>
						<g>
							<rect x="176" y="41.5" class="st1" width="7.2" height="118.7"/>
						</g>
					</g>
				</g>
			</g>
		</g>
		<g>
			<g>
				<g>
					<g>
						<g>
							<path class="st1" d="M103.8,43.5"/>
						</g>
					</g>
				</g>
			</g>
		</g>
		<g>
			<g>
				<g>
					<g>
						<g>
							<path class="st1" d="M103.8,158.3"/>
						</g>
					</g>
				</g>
			</g>
		</g>
	</g>
	<g>
		<g>
			<g>
				<g>
					<g>
						<path class="st1" d="M47.5,258.7c-1,0-1.9-0.3-2.8-0.8C8.5,234.3,3.1,201.7,3.1,184.4c0-26.6,20.4-72.4,76.5-89.4
							c2.8-0.8,5.6,0.7,6.4,3.4c0.8,2.7-0.7,5.6-3.4,6.4c-50.8,15.4-69.2,56-69.2,79.6c0,15.2,4.8,43.9,36.9,64.8
							c2.4,1.6,3.1,4.8,1.5,7.1C50.8,257.9,49.2,258.7,47.5,258.7z"/>
					</g>
				</g>
				<g>
					<g>
						<path class="st1" d="M47.5,260.6c-1.4,0-2.7-0.4-3.9-1.2C6.7,235.4,1.2,202.1,1.2,184.4c0-27.2,20.8-74,77.9-91.3
							c3.9-1.1,7.7,1,8.8,4.7c0.6,1.8,0.4,3.7-0.5,5.4c-0.9,1.7-2.4,2.9-4.2,3.4c-49.8,15.1-67.8,54.7-67.8,77.7
							c0,14.8,4.7,42.8,36,63.2c1.6,1,2.7,2.6,3.1,4.5c0.4,1.9,0,3.8-1,5.3C52.1,259.4,49.9,260.6,47.5,260.6z M81.2,96.7
							c-0.3,0-0.6,0-1,0.1C25.1,113.5,5,158.3,5,184.4c0,16.9,5.3,48.8,40.7,71.8c1.5,1,3.5,0.5,4.5-0.9c0.5-0.7,0.6-1.6,0.5-2.4
							c-0.2-0.8-0.7-1.6-1.4-2c-32.8-21.4-37.7-50.8-37.7-66.4c0-24.1,18.8-65.7,70.6-81.4c0.8-0.2,1.5-0.8,1.9-1.6
							c0.4-0.8,0.5-1.6,0.2-2.5C83.8,97.6,82.6,96.7,81.2,96.7z"/>
					</g>
				</g>
			</g>
		</g>
		<g>
			<g>
				<g>
					<g>
						<g>
							<polygon class="st1" points="52.6,226.1 81.2,268.9 29.8,272.3 							"/>
						</g>
					</g>
					<g>
						<g>
							<path class="st1" d="M26.6,274.5l25.7-52.2l32.4,48.3L26.6,274.5z M52.8,230L33,270.2l44.7-3L52.8,230z"/>
						</g>
					</g>
				</g>
			</g>
		</g>
	</g>
	<g>
		<g>
			<g>
				<g>
					<g>
						<path class="st1" d="M278.9,274.1c-2.2,0-4.3-1.4-4.9-3.7c-0.8-2.7,0.7-5.6,3.4-6.4c50.4-15.3,69.2-56.9,69.2-79.6
							c0-15.2-4.8-43.9-36.8-64.8c-2.4-1.6-3.1-4.8-1.5-7.1c1.5-2.4,4.7-3.1,7.1-1.5c36.1,23.5,41.5,56.1,41.5,73.5
							c0,26.6-20.4,72.4-76.5,89.4C279.8,274,279.4,274.1,278.9,274.1z"/>
					</g>
				</g>
				<g>
					<g>
						<path class="st1" d="M278.9,276c-3.1,0-5.9-2.1-6.8-5c-0.6-1.8-0.4-3.7,0.5-5.4c0.9-1.7,2.4-2.9,4.2-3.4
							c49.4-15,67.8-55.6,67.8-77.7c0-14.8-4.7-42.8-36-63.2c-1.6-1-2.7-2.6-3.1-4.5c-0.4-1.9,0-3.8,1-5.3c1-1.6,2.6-2.7,4.4-3.1
							c1.9-0.4,3.8,0,5.4,1c36.9,24,42.4,57.4,42.4,75.1c0,27.2-20.7,74-77.9,91.3C280.3,275.9,279.6,276,278.9,276z M312.5,112
							c-0.2,0-0.5,0-0.7,0.1c-0.8,0.2-1.5,0.7-2,1.4c-0.5,0.7-0.6,1.6-0.5,2.4c0.2,0.8,0.7,1.6,1.4,2c32.8,21.4,37.7,50.8,37.7,66.4
							c0,23.2-19.2,65.9-70.6,81.4c-0.8,0.2-1.5,0.8-1.9,1.6c-0.4,0.8-0.5,1.6-0.2,2.5c0.5,1.7,2.3,2.7,4,2.2
							c55.2-16.7,75.2-61.5,75.2-87.6c0-16.9-5.3-48.8-40.7-71.8C313.8,112.2,313.1,112,312.5,112z"/>
					</g>
				</g>
			</g>
		</g>
		<g>
			<g>
				<g>
					<g>
						<g>
							<polygon class="st1" points="307.4,142.7 278.8,99.9 330.2,96.5 							"/>
						</g>
					</g>
					<g>
						<g>
							<path class="st1" d="M307.7,146.5l-32.4-48.3l58-3.9L307.7,146.5z M282.3,101.6l24.9,37.2L327,98.6L282.3,101.6z"/>
						</g>
					</g>
				</g>
			</g>
		</g>
	</g>
</g>
</svg>
