<?xml version="1.0" encoding="utf-8"?>
<!-- Generator: Adobe Illustrator 24.3.0, SVG Export Plug-In . SVG Version: 6.00 Build 0)  -->
<svg version="1.1" id="Layer_1" xmlns="http://www.w3.org/2000/svg" xmlns:xlink="http://www.w3.org/1999/xlink" x="0px" y="0px"
	 viewBox="0 0 360 360" style="enable-background:new 0 0 360 360;" xml:space="preserve">
<style type="text/css">
	.st0{fill:#7D3D97;}
</style>
<g>
	<g>
		<path class="st0" d="M139.9,110.9H99.3c-1.5,0-2.2-1.2-2.2-2.2V59.6c0-1.5,1.2-2.2,2.2-2.2h40.6c1.5,0,2.2,1.2,2.2,2.2v48.7
			C142.5,109.7,141.3,110.9,139.9,110.9z M101.9,106.1h35.7V62.2h-35.7V106.1z"/>
	</g>
	<g>
		<path class="st0" d="M139.9,302.8H99.3c-1.5,0-2.2-1.2-2.2-2.2v-48.7c0-1.5,1.2-2.2,2.2-2.2h40.6c1.5,0,2.2,1.2,2.2,2.2v48.7
			C142.5,301.7,141.3,302.8,139.9,302.8z M101.9,297.9h35.7V254h-35.7V297.9z"/>
	</g>
	<g>
		<path class="st0" d="M261.1,110.9h-40.6c-1.5,0-2.2-1.2-2.2-2.2V59.6c0-1.5,1.2-2.2,2.2-2.2h40.6c1.5,0,2.2,1.2,2.2,2.2v48.7
			C263.7,109.7,262.5,110.9,261.1,110.9z M223.1,106.1h35.7V62.2h-35.7V106.1z"/>
	</g>
	<g>
		<path class="st0" d="M261.1,302.8h-40.6c-1.5,0-2.2-1.2-2.2-2.2v-48.7c0-1.5,1.2-2.2,2.2-2.2h40.6c1.5,0,2.2,1.2,2.2,2.2v48.7
			C263.7,301.7,262.5,302.8,261.1,302.8z M223.1,297.9h35.7V254h-35.7V297.9z"/>
	</g>
	<g>
		<path class="st0" d="M139.9,159.6H99.3c-1.5,0-2.2-1.2-2.2-2.2v-49.1c0-1.5,1.2-2.2,2.2-2.2h40.6c1.5,0,2.2,1.2,2.2,2.2V157
			C142.5,158.6,141.3,159.6,139.9,159.6z M101.9,154.8h35.7v-43.9h-35.7V154.8z"/>
	</g>
	<g>
		<path class="st0" d="M139.9,208.3H99.3c-1.5,0-2.2-1.2-2.2-2.2V157c0-1.5,1.2-2.2,2.2-2.2h40.6c1.5,0,2.2,1.2,2.2,2.2v48.7
			C142.5,207.2,141.3,208.3,139.9,208.3z M101.9,203.5h35.7v-43.9h-35.7V203.5z"/>
	</g>
	<g>
		<path class="st0" d="M99.3,159.6H59.1c-1.5,0-2.2-1.2-2.2-2.2v-49.1c0-1.5,1.2-2.2,2.2-2.2h40.6c1.5,0,2.2,1.2,2.2,2.2V157
			C101.9,158.6,100.9,159.6,99.3,159.6z M61.4,154.8h35.7v-43.9H61.4V154.8z"/>
	</g>
	<g>
		<path class="st0" d="M139.9,255.5H99.3c-1.5,0-2.2-1.2-2.2-2.2v-48.7c0-1.5,1.2-2.2,2.2-2.2h40.6c1.5,0,2.2,1.2,2.2,2.2v48.7
			C142.5,254.4,141.3,255.5,139.9,255.5z M101.9,250.6h35.7v-43.9h-35.7V250.6z"/>
	</g>
	<g>
		<path class="st0" d="M99.3,255.5H59.1c-1.5,0-2.2-1.2-2.2-2.2v-48.7c0-1.5,1.2-2.2,2.2-2.2h40.6c1.5,0,2.2,1.2,2.2,2.2v48.7
			C101.9,254.4,100.9,255.5,99.3,255.5z M61.4,250.6h35.7v-43.9H61.4C61.4,206.9,61.4,250.6,61.4,250.6z"/>
	</g>
	<g>
		<path class="st0" d="M301.5,159.6H261c-1.5,0-2.2-1.2-2.2-2.2v-49.1c0-1.5,1.2-2.2,2.2-2.2h40.6c1.5,0,2.2,1.2,2.2,2.2V157
			C303.8,158.6,302.7,159.6,301.5,159.6z M263.7,154.8h35.7v-43.9h-35.7V154.8z"/>
	</g>
	<g>
		<path class="st0" d="M261.1,159.6h-40.6c-1.5,0-2.2-1.2-2.2-2.2v-49.1c0-1.5,1.2-2.2,2.2-2.2h40.6c1.5,0,2.2,1.2,2.2,2.2V157
			C263.7,158.6,262.5,159.6,261.1,159.6z M223.1,154.8h35.7v-43.9h-35.7V154.8z"/>
	</g>
	<g>
		<path class="st0" d="M301.5,255.5H261c-1.5,0-2.2-1.2-2.2-2.2v-48.7c0-1.5,1.2-2.2,2.2-2.2h40.6c1.5,0,2.2,1.2,2.2,2.2v48.7
			C303.8,254.4,302.7,255.5,301.5,255.5z M263.7,250.6h35.7v-43.9h-35.7V250.6z"/>
	</g>
	<g>
		<path class="st0" d="M261.1,255.5h-40.6c-1.5,0-2.2-1.2-2.2-2.2v-48.7c0-1.5,1.2-2.2,2.2-2.2h40.6c1.5,0,2.2,1.2,2.2,2.2v48.7
			C263.7,254.4,262.5,255.5,261.1,255.5z M223.1,250.6h35.7v-43.9h-35.7V250.6z"/>
	</g>
	<g>
		<path class="st0" d="M99.3,208.3H59.1c-1.5,0-2.2-1.2-2.2-2.2V157c0-1.5,1.2-2.2,2.2-2.2h40.6c1.5,0,2.2,1.2,2.2,2.2v48.7
			C101.9,207.2,100.9,208.3,99.3,208.3z M61.4,203.5h35.7v-43.9H61.4V203.5z"/>
	</g>
	<g>
		<path class="st0" d="M59.1,208.3H18.7c-1.5,0-2.2-1.2-2.2-2.2V157c0-1.5,1.2-2.2,2.2-2.2h40.6c1.5,0,2.2,1.2,2.2,2.2v48.7
			C61.4,207.2,60.3,208.3,59.1,208.3z M20.9,203.5h35.7v-43.9H20.9V203.5z"/>
	</g>
	<g>
		<path class="st0" d="M261.1,208.3h-40.6c-1.5,0-2.2-1.2-2.2-2.2V157c0-1.5,1.2-2.2,2.2-2.2h40.6c1.5,0,2.2,1.2,2.2,2.2v48.7
			C263.7,207.2,262.5,208.3,261.1,208.3z M223.1,203.5h35.7v-43.9h-35.7V203.5z"/>
	</g>
	<g>
		<path class="st0" d="M301.5,208.3H261c-1.5,0-2.2-1.2-2.2-2.2V157c0-1.5,1.2-2.2,2.2-2.2h40.6c1.5,0,2.2,1.2,2.2,2.2v48.7
			C303.8,207.2,302.7,208.3,301.5,208.3z M263.7,203.5h35.7v-43.9h-35.7V203.5z"/>
	</g>
	<g>
		<path class="st0" d="M341.7,208.3h-40.2c-1.5,0-2.2-1.2-2.2-2.2V157c0-1.5,1.2-2.2,2.2-2.2h40.6c1.5,0,2.2,1.2,2.2,2.2v48.7
			C344.3,207.2,343.3,208.3,341.7,208.3z M303.8,203.5h35.7v-43.9h-35.7V203.5z"/>
	</g>
	<g>
		<path class="st0" d="M220.5,208.3h-40.2c-1.5,0-2.2-1.2-2.2-2.2V157c0-1.5,1.2-2.2,2.2-2.2h40.2c1.5,0,2.2,1.2,2.2,2.2v48.7
			C223.1,207.2,222.1,208.3,220.5,208.3z M182.6,203.5h35.7v-43.9h-35.7V203.5z"/>
	</g>
	<g>
		<path class="st0" d="M180.3,208.3h-40.4c-1.5,0-2.2-1.2-2.2-2.2V157c0-1.5,1.2-2.2,2.2-2.2h40.6c1.5,0,2.2,1.2,2.2,2.2v48.7
			C182.6,207.2,181.5,208.3,180.3,208.3z M142.5,203.5h35.7v-43.9h-35.7V203.5z"/>
	</g>
	<g>
		<path class="st0" d="M261.1,59.6v48.7h40.6V157h40.4v48.7l-40.6-1.5v48.7l-40.6-1.5V300h-40.6v-96l-80.6,1.5v94.8H99.3v-47.3H59.1
			v-47.3H18.7v-49.1h40.6v-48.4h40.6V59.6h40.6V157h80.4V59.6H261.1 M261.1,44.1h-40.6c-8.5,0-15.6,7.1-15.6,15.6v81.8h-49.5V59.6
			c0-8.5-7.1-15.6-15.6-15.6H99.3c-8.5,0-15.6,7.1-15.6,15.6v33.1h-25c-8.5,0-15.6,7.1-15.6,15.6v33.1H18.3
			c-8.5,0-15.6,7.1-15.6,15.6v48.7c0,8.5,7.1,15.6,15.6,15.6h24.9v31.6c0,8.5,7.1,15.6,15.6,15.6h24.9V300c0,8.5,7.1,15.6,15.6,15.6
			h40.7c8.5,0,15.6-7.1,15.6-15.6v-79.2l49.5-0.8v80.4c0,8.5,7.1,15.6,15.6,15.6h40.6c8.5,0,15.6-7.1,15.6-15.6v-32.7l24.2,0.8h0.4
			c4.1,0,7.9-1.5,10.8-4.5s4.9-7.1,4.9-11.2V220l24.2,0.8h0.4c4.1,0,7.9-1.5,10.8-4.5c3-3,4.9-7.1,4.9-11.2v-48.3
			c0-8.5-7.1-15.6-15.6-15.6h-24.2v-32.8c0-8.5-7.1-15.6-15.6-15.6H277V59.6C276.7,51,269.6,44.1,261.1,44.1L261.1,44.1z"/>
	</g>
</g>
</svg>
