<?xml version="1.0" encoding="utf-8"?>
<!-- Generator: Adobe Illustrator 24.3.0, SVG Export Plug-In . SVG Version: 6.00 Build 0)  -->
<svg version="1.1" id="Layer_1" xmlns="http://www.w3.org/2000/svg" xmlns:xlink="http://www.w3.org/1999/xlink" x="0px" y="0px"
	 viewBox="0 0 360 360" style="enable-background:new 0 0 360 360;" xml:space="preserve">
<style type="text/css">
	.st0{fill:#186140;}
</style>
<g>
	<g>
		<g>
			<path class="st0" d="M349.2,1.3L349.2,1.3c-6.7-2.8-14.2-1.1-19.5,3.9L5,329.5c-5,5-6.7,12.8-3.9,19.5s9.3,11,16.7,11h324.7
				c9.9,0,17.7-8.2,17.7-17.7V17.6C360.1,10.6,355.5,3.9,349.2,1.3z M317.2,78.6c0,6.3,5.4,12.1,12.1,12.1h7.1v34h-7.1
				c-6.3,0-12.1,5.4-12.1,12.1c0,6.3,5.4,12.1,12.1,12.1h7.1v34h-7.1c-6.3,0-12.1,5.4-12.1,11.7s5.4,12.1,12.1,12.1h7.1v34h-7.1
				c-6.3,0-12.1,5.4-12.1,12.1c0,6.3,5.4,12.1,12.1,12.1h7.1v34h-7.1c-6.3,0-12.1,5.4-12.1,12.1s5.4,11.7,12.1,11.7h7.1v14.2H31.9
				L336.4,31.8v34.8h-7.1C322.6,66.6,317.2,71.9,317.2,78.6z"/>
		</g>
	</g>
	<g>
		<g>
			<path class="st0" d="M276.8,164.7L276.8,164.7c-4.6-1.7-9.5-0.7-13.2,2.4l-90.9,91.5c-3.5,3.5-4.6,8.5-2.4,13.2
				c1.7,4.6,6,7.4,11,7.4h91.3c6.3,0,11.7-5.4,11.7-11.7v-91.7C284.3,170.7,281.5,166.6,276.8,164.7z M260.5,204.5v50.6h-50.6
				L260.5,204.5z"/>
		</g>
	</g>
</g>
</svg>
