<?xml version="1.0" encoding="utf-8"?>
<!-- Generator: Adobe Illustrator 24.3.0, SVG Export Plug-In . SVG Version: 6.00 Build 0)  -->
<svg version="1.1" id="Layer_1" xmlns="http://www.w3.org/2000/svg" xmlns:xlink="http://www.w3.org/1999/xlink" x="0px" y="0px"
	 viewBox="0 0 360 360" style="enable-background:new 0 0 360 360;" xml:space="preserve">
<style type="text/css">
	.st0{fill:#E2DE61;}
</style>
<g>
	<g>
		<path class="st0" d="M102.2,230.7c0.2,14-3.4,26.1-10.9,36c-4.9,6.8-11.9,11.5-20.9,14.3c-4.8,1.5-10.5,2.2-16.9,2.2
			c-11.9,0-21.8-2.9-29.6-8.8c-6.5-4.8-11.7-11.4-15.5-19.7c-3.8-8.3-6-17.8-6.7-28.5l28.9-2.1c1.3,11.7,4.4,20.3,9.3,25.5
			c3.6,4,7.8,5.9,12.5,5.7c6.6-0.2,12-3.5,15.9-9.8c2-3.1,3.1-7.6,3.1-13.4c0-8.4-3.8-16.7-11.4-24.9c-6-5.7-15-14.2-27-25.6
			c-10.1-9.8-17.2-18.5-21.4-26.2c-4.5-8.7-6.8-18.1-6.8-28.3c0-18.3,6.2-32.2,18.5-41.7c7.6-5.7,17-8.5,28.3-8.5
			c10.8,0,20.1,2.4,27.8,7.2c6,3.8,10.9,9,14.6,15.8s5.9,14.5,6.7,23.3l-29.1,5.3c-0.9-8.3-3.2-14.7-7.1-19.3c-2.8-3.3-6.8-5-12.1-5
			c-5.6,0-9.8,2.5-12.7,7.4c-2.4,4-3.5,8.9-3.5,14.8c0,9.2,4,18.6,11.9,28.1c3,3.6,7.5,7.9,13.5,12.9c7.1,5.9,11.7,10,14,12.4
			c7.5,7.5,13.3,14.9,17.4,22.2c1.9,3.4,3.5,6.6,4.7,9.5C100.6,218.5,102.1,225,102.2,230.7z"/>
		<path class="st0" d="M222.9,232.6c0,13.3-4.7,24.7-14,34.1c-9.3,9.4-20.6,14.2-33.8,14.2h-47.8V79.2h47.8
			c13.3,0,24.6,4.7,33.9,14.2c9.3,9.4,13.9,20.7,13.9,33.9V232.6z M157.8,250.8h18.3c4.8,0,8.9-1.7,12.2-5.2c3.3-3.5,5-7.6,5-12.3
			V127.7c0-4.8-1.7-9-5.1-12.4c-3.4-3.4-7.4-5.1-12.1-5.1h-18.3V250.8z"/>
		<path class="st0" d="M279.9,280.8l-36-201.5h31.9L301,236.4l25.5-157.1h31.9l-36.7,201.5H279.9z"/>
	</g>
</g>
</svg>
