<?xml version="1.0" encoding="utf-8"?>
<!-- Generator: Adobe Illustrator 24.3.0, SVG Export Plug-In . SVG Version: 6.00 Build 0)  -->
<svg version="1.1" id="Layer_1" xmlns="http://www.w3.org/2000/svg" xmlns:xlink="http://www.w3.org/1999/xlink" x="0px" y="0px"
	 viewBox="0 0 360 360" style="enable-background:new 0 0 360 360;" xml:space="preserve">
<style type="text/css">
	.st0{fill:#F48286;}
</style>
<g>
	<g>
		<g>
			<path class="st0" d="M314,284h-47.2c-1.7,0-3.1,1.4-3.1,3.1v47.2c0,1.7,1.4,3.1,3.1,3.1H314c1.7,0,3.1-1.4,3.1-3.1v-47.2
				C317.1,285.4,315.7,284,314,284z"/>
			<path class="st0" d="M140.6,287.1c0-1.7-1.4-3.1-3.1-3.1H95.1c-1.7,0-3.1,1.4-3.1,3.1v47.2c0,1.7,1.4,3.1,3.1,3.1h43.4
				c1.7,0,3.1-1.4,3.1-3.1c0-0.9-0.4-1.7-0.9-2.2V287.1z"/>
			<path class="st0" d="M224.4,284h-42.5c-1.7,0-3.1,1.4-3.1,3.1v47.2c0,1.7,1.4,3.1,3.1,3.1h42.5c1.7,0,3.1-1.4,3.1-3.1v-47.2
				C227.4,285.4,226,284,224.4,284z"/>
			<path class="st0" d="M52.6,284H5.4c-1.7,0-3.1,1.4-3.1,3.1v47.2c0,1.7,1.4,3.1,3.1,3.1h47.2c1.7,0,3.1-1.4,3.1-3.1v-47.2
				C55.7,285.4,54.3,284,52.6,284z"/>
			<path class="st0" d="M52.6,199.1H5.4c-1.7,0-3.1,1.4-3.1,3.1v42.5c0,1.7,1.4,3.1,3.1,3.1h47.2c1.7,0,3.1-1.4,3.1-3.1v-42.5
				C55.7,200.5,54.3,199.1,52.6,199.1z"/>
			<path class="st0" d="M52.6,112.3H5.4c-1.7,0-3.1,1.4-3.1,3.1v43.4c0,1.7,1.4,3.1,3.1,3.1h47.2c1.7,0,3.1-1.4,3.1-3.1v-43.4
				C55.7,113.7,54.3,112.3,52.6,112.3z"/>
			<path class="st0" d="M52.6,22.6H5.4c-1.7,0-3.1,1.4-3.1,3.1v47.2c0,1.7,1.4,3.1,3.1,3.1h47.2c1.7,0,3.1-1.4,3.1-3.1V25.7
				C55.7,24,54.3,22.6,52.6,22.6z"/>
			<path class="st0" d="M181.9,76h42.5c1.7,0,3.1-1.4,3.1-3.1V25.7c0-1.7-1.4-3.1-3.1-3.1h-42.5c-1.7,0-3.1,1.4-3.1,3.1v47.2
				C178.8,74.6,180.2,76,181.9,76z"/>
			<path class="st0" d="M140.6,25.7c0-1.7-1.4-3.1-3.1-3.1H95.1c-1.7,0-3.1,1.4-3.1,3.1v47.2c0,1.7,1.4,3.1,3.1,3.1h43.4
				c1.7,0,3.1-1.4,3.1-3.1c0-0.9-0.4-1.7-0.9-2.2V25.7z"/>
			<path class="st0" d="M266.8,76H314c1.7,0,3.1-1.4,3.1-3.1V25.7c0-1.7-1.4-3.1-3.1-3.1h-47.2c-1.7,0-3.1,1.4-3.1,3.1v47.2
				C263.7,74.6,265.1,76,266.8,76z"/>
			<path class="st0" d="M290.4,113.2c-37.1,0-67.2,30.2-67.2,67.2s30.2,67.3,67.2,67.3s67.2-30.2,67.2-67.3S327.5,113.2,290.4,113.2
				z"/>
		</g>
	</g>
</g>
</svg>
